<?xml version="1.0" encoding="utf-8"?>
<!-- Generator: Adobe Illustrator 22.0.0, SVG Export Plug-In . SVG Version: 6.00 Build 0)  -->
<svg version="1.1" id="Layer_1" xmlns:v="https://vecta.io/nano"
	 xmlns="http://www.w3.org/2000/svg" xmlns:xlink="http://www.w3.org/1999/xlink" x="0px" y="0px" viewBox="0 0 100 100"
	 style="enable-background:new 0 0 100 100;" xml:space="preserve">
<style type="text/css">
	.st0{fill:#4C3229;stroke:#E5A82C;stroke-width:1.974;}
	.st1{fill:#FCC23A;}
	.st2{fill:#FDC73C;}
	.st3{fill:#F8AB1C;}
	.st4{fill:#E04F30;}
	.st5{fill:#8AC164;}
	.st6{fill:#30B5AE;}
	.st7{fill:#F8AC1F;}
	.st8{fill:url(#SVGID_1_);}
	.st9{fill:#CB8D0B;}
	.st10{fill:url(#SVGID_2_);}
	.st11{fill:#C48E23;stroke:#C17F1E;stroke-width:0.492;}
	.st12{fill:url(#SVGID_3_);}
	.st13{fill:#BC7C13;}
	.st14{fill:url(#SVGID_4_);stroke:#CC8628;stroke-width:0.235;}
	.st15{fill:#C48E23;stroke:#C17F1E;stroke-width:0.773;stroke-miterlimit:10;}
	.st16{fill:#C48E23;stroke:#C17F1E;stroke-width:0.609;stroke-miterlimit:10;}
	.st17{fill:#C48E23;stroke:#C17F1E;stroke-width:0.485;}
	.st18{fill:none;stroke:#C17F1E;stroke-width:0.403;stroke-miterlimit:10;}
	.st19{fill:#BF8210;}
	.st20{fill:none;stroke:#C17F1E;stroke-width:0.393;stroke-miterlimit:10;}
	.st21{fill:none;stroke:#C48D12;stroke-width:0.728;stroke-miterlimit:10;}
	.st22{fill:none;stroke:#C48D12;stroke-width:0.738;stroke-miterlimit:10;}
	.st23{enable-background:new    ;}
	.st24{opacity:0.68;fill:#FAB642;stroke:#895A13;stroke-width:0.492;stroke-miterlimit:10;enable-background:new    ;}
	.st25{opacity:0.68;fill:#FAB642;stroke:#895A13;stroke-width:0.454;stroke-miterlimit:10;enable-background:new    ;}
	.st26{fill:#BC8110;}
	.st27{fill:#D4AC30;stroke:#BC8110;stroke-width:0.941;stroke-miterlimit:10;}
	.st28{fill:url(#SVGID_5_);}
	.st29{fill:#9E6415;}
	.st30{fill:url(#SVGID_6_);stroke:#BC8110;stroke-width:0.941;}
	.st31{fill:none;stroke:#BC8110;stroke-width:0.941;}
	.st32{fill:url(#SVGID_7_);}
	.st33{fill:#A77213;}
	.st34{fill:#B08111;}
	.st35{opacity:0.3;fill:#C98F1A;enable-background:new    ;}
	.st36{opacity:0.1;fill:#C98F1A;enable-background:new    ;}
	.st37{fill:#E83E45;}
	.st38{fill:#F4B119;}
	.st39{fill:#277F34;}
	.st40{fill:#7ACDF4;}
	.st41{fill:none;stroke:#FFFFFF;stroke-width:1.641;stroke-miterlimit:10;}
	.st42{fill:none;stroke:#FCFCFC;stroke-width:1.641;stroke-miterlimit:10;}
	.st43{fill:#E83D44;}
	.st44{fill:#FCFCFC;}
	.st45{fill:#F4B219;}
	.st46{fill:#D79F18;}
	.st47{fill:#F0D69D;}
	.st48{fill:#DB1920;}
	.st49{fill:#E83F45;}
	.st50{fill:#79CDF2;}
	.st51{fill:none;stroke:#4A4948;stroke-width:2;stroke-miterlimit:10;}
	.st52{fill:none;stroke:#FFFFFF;stroke-width:2;stroke-miterlimit:10;}
	.st53{fill:none;stroke:#F9F9F9;stroke-width:2.04;stroke-miterlimit:10;}
	.st54{fill:#5FB130;}
	.st55{fill:url(#SVGID_8_);}
	.st56{fill:url(#SVGID_9_);}
	.st57{fill:url(#SVGID_10_);}
	.st58{fill:#1072B9;}
	.st59{fill:#EB5D1D;}
	.st60{fill:#FFD700;}
	.st61{fill:#E51334;}
	.st62{opacity:0.15;fill:url(#SVGID_11_);enable-background:new    ;}
	.st63{opacity:0.5;fill:url(#SVGID_12_);enable-background:new    ;}
	.st64{fill:url(#SVGID_13_);}
	.st65{opacity:3.000000e-02;fill:none;stroke:#FFFFFF;stroke-width:2.006;stroke-miterlimit:10;enable-background:new    ;}
	.st66{fill:url(#SVGID_14_);}
	.st67{fill:url(#SVGID_15_);}
	.st68{fill:#C48E23;stroke:#C17F1E;stroke-width:1.592;}
	.st69{fill:url(#SVGID_16_);}
	.st70{fill:url(#SVGID_17_);stroke:#CC8628;stroke-width:0.761;}
	.st71{fill:#C48E23;stroke:#C17F1E;stroke-width:2.502;stroke-miterlimit:10;}
	.st72{fill:#C48E23;stroke:#C17F1E;stroke-width:1.97;stroke-miterlimit:10;}
	.st73{fill:#C48E23;stroke:#C17F1E;stroke-width:1.57;}
	.st74{fill:none;stroke:#C17F1E;stroke-width:1.305;stroke-miterlimit:10;}
	.st75{fill:none;stroke:#C17F1E;stroke-width:1.272;stroke-miterlimit:10;}
	.st76{fill:none;stroke:#C48D12;stroke-width:2.355;stroke-miterlimit:10;}
	.st77{fill:none;stroke:#C48D12;stroke-width:2.388;stroke-miterlimit:10;}
	.st78{opacity:0.68;fill:#FAB642;stroke:#895A13;stroke-width:1.592;stroke-miterlimit:10;enable-background:new    ;}
	.st79{opacity:0.68;fill:#FAB642;stroke:#895A13;stroke-width:1.469;stroke-miterlimit:10;enable-background:new    ;}
	.st80{fill:#D4AC30;stroke:#BC8110;stroke-width:3.046;stroke-miterlimit:10;}
	.st81{fill:url(#SVGID_18_);}
	.st82{fill:url(#SVGID_19_);stroke:#BC8110;stroke-width:3.046;}
	.st83{fill:none;stroke:#BC8110;stroke-width:3.046;}
	.st84{fill:url(#SVGID_20_);}
	.st85{fill:none;stroke:#FFFFFF;stroke-width:4.177;stroke-miterlimit:10;}
	.st86{fill:none;stroke:#FCFCFC;stroke-width:4.177;stroke-miterlimit:10;}
	.st87{fill:none;stroke:#4A4948;stroke-width:5.091;stroke-miterlimit:10;}
	.st88{fill:none;stroke:#FFFFFF;stroke-width:5.091;stroke-miterlimit:10;}
	.st89{fill:none;stroke:#F9F9F9;stroke-width:5.194;stroke-miterlimit:10;}
	.st90{fill:#EEF2E7;}
	.st91{fill:#5B6C3E;}
	.st92{fill:none;stroke:#FBFCF8;stroke-width:4;}
	.st93{fill:none;stroke:#E51D36;stroke-width:4;}
	.st94{fill:none;stroke:#526140;stroke-width:4;}
	.st95{fill:none;stroke:#FFFFFE;stroke-width:4;stroke-miterlimit:10;}
	.st96{fill:none;stroke:#E51D36;stroke-width:4;stroke-miterlimit:10;}
	.st97{fill:none;stroke:#F9FAF8;stroke-width:2.625;stroke-miterlimit:10;}
	.st98{fill:none;stroke:#526140;stroke-width:4;stroke-miterlimit:10;}
	.st99{fill:none;stroke:#0D443C;stroke-width:2.748;stroke-miterlimit:10;}
	.st100{fill:#0D443C;}
	.st101{fill:#F5ECF4;}
	.st102{fill:#28BDB4;}
	.st103{fill:#0C443C;}
	.st104{fill:none;stroke:#0D443C;stroke-width:1.615;stroke-miterlimit:10;}
	.st105{fill:none;stroke:#0D443C;stroke-width:3.214;stroke-miterlimit:10;}
	.st106{fill:#13466C;}
	.st107{fill:#C07285;}
	.st108{fill:#133A65;}
	.st109{fill:#FFFFFF;}
	.st110{font-family:'MVBoli';}
	.st111{font-size:3.04px;}
	.st112{fill:#022D5A;}
	.st113{fill:#F5ECF4;stroke:#0D443C;stroke-width:0.464;}
	.st114{opacity:0.76;fill:#FFFFFF;enable-background:new    ;}
	.st115{opacity:0.9;fill:#E1DEE5;enable-background:new    ;}
	.st116{fill:#FAFBFC;stroke:#153A64;stroke-width:0.421;stroke-miterlimit:10;}
	.st117{opacity:0.96;fill:#133A65;enable-background:new    ;}
	.st118{opacity:0.76;fill:#FAFBFC;enable-background:new    ;}
	.st119{fill:#343743;}
	.st120{fill:#343549;}
	.st121{fill:#333743;}
	.st122{fill:#737174;}
	.st123{fill:#F5A430;}
	.st124{fill:#4EBDD1;}
	.st125{fill:#D79414;}
	.st126{fill:#0BA5BD;}
	.st127{fill:#262834;}
	.st128{fill:#667881;}
	.st129{fill:#EDF5ED;}
	.st130{fill:#0BA6BE;}
	.st131{fill:#3A3946;}
	.st132{fill:#323548;}
	.st133{fill:#343649;}
	.st134{fill:#35364B;}
	.st135{fill:#3E3B48;}
	.st136{fill:#353548;}
	.st137{fill:#37354D;}
	.st138{fill:#32374D;}
	.st139{fill:#37344A;}
	.st140{fill:#262938;}
	.st141{fill:#F4F4F5;}
	.st142{fill:#3E909F;}
	.st143{fill:#786E74;}
	.st144{fill:#786E7B;}
	.st145{fill:#3E6A7C;}
	.st146{fill:#72746D;}
	.st147{fill:#0DADC2;}
	.st148{fill:#09A1C0;}
	.st149{fill:#25A4B8;}
	.st150{fill:#2A3249;}
	.st151{fill:#05A3C5;}
	.st152{fill:#292232;}
</style>
<path d="M940.6,71c-0.1,0.5,0,1.1,0,1.5c0,7.5,6.1,13.5,13.5,13.5c7.5,0,12.5-5.7,13.5-13.5c0.1-0.5,0.1-0.9,0.1-1.5H940.6z
	 M1009.9,71v1.5c0,7.5,6.1,13.5,13.5,13.5c7.4,0,12.5-6.1,13.5-13.5c0.1-0.5,0.1-0.9,0.1-1.5H1009.9L1009.9,71z M983.9,48h8.3v72.3
	h-8.3V48z M955.7,48.1l-11.5,20.1c-0.4,0.7-1.3,0.8-2.1,0.3l0,0c-0.8-0.5-1.1-1.5-0.7-2.2L952,47.7L955.7,48.1L955.7,48.1z"/>
<path d="M956.4,47.7L967,66.3c0.4,0.7,0.1,1.7-0.7,2.2l0,0c-0.8,0.5-1.8,0.4-2.1-0.3L952.6,48L956.4,47.7L956.4,47.7z M1024.9,48.1
	l-11.5,20c-0.4,0.7-1.4,0.8-2.2,0.2l0,0c-0.8-0.5-1.2-1.5-0.8-2.2l10.5-18.6C1020.9,47.5,1024.9,48.1,1024.9,48.1z"/>
<path d="M1025.5,47.8l10.6,18.5c0.4,0.7,0.1,1.7-0.7,2.2l0,0c-0.8,0.5-1.7,0.4-2.1-0.3L1021.8,48L1025.5,47.8z"/>
<path d="M1025.8,48h-74c-1.7,0-3-1.3-3-3v-0.4c0-1.7,1.3-3,3-3h74c1.7,0,3,1.3,3,3V45C1028.8,46.7,1027.5,48,1025.8,48z
	 M967.1,127.9h41.9c0,0-1-7.2-7.3-8.1h-27.6C974.1,119.8,967.1,121.3,967.1,127.9L967.1,127.9z M973.7,41.5h29.8
	c0,0-4.1-4.3-6.5-4.3c0,0-0.5-7.7-8.4-7.9s-8.4,7.9-8.4,7.9S976.7,37.7,973.7,41.5L973.7,41.5z"/>
<circle class="st0" cx="953.9" cy="-224" r="48.9"/>
<g>
	<ellipse class="st1" cx="925.9" cy="-250.4" rx="5.1" ry="5.3"/>
	<circle class="st1" cx="977.7" cy="-250.5" r="4.8"/>
	<path class="st1" d="M916.1-214.4h74.1v3.3h-74.1V-214.4z M916.1-209h74.1v3.3h-74.1V-209z"/>
	<path class="st1" d="M957.9-198.7l-4-0.1h-4l2.1-3.5l2-3.4l2,3.5L957.9-198.7z"/>
</g>
<g>
	<path class="st2" d="M921-241.5l-4.5,4.5l-2-2l6.7-6.1h9.5l6.8,5.6l-2,2l-4.6-4.6c0,0-0.3,0.2-0.3,1.1v18.6c0,0-0.1,0.4-0.1,1.5
		v5.3H928v-6.5h-3.8v6.4h-2.5v-6.4c0,0-0.2-0.3-0.2-0.4s0.3-18.3,0.3-18.3S922-242.5,921-241.5L921-241.5z M973.7-223.4h3v7.4h-3
		V-223.4z M979.4-223.5h3v7.4h-3V-223.5z"/>
	<path class="st2" d="M971.9-223.2c0,0,11.2-0.8,13,0l-5.6-18.6c0,0,0-0.6,0.5,0s5.1,5,5.1,5l2-2l-6.5-6.3c0,0-1-1.3-1.1,1h-0.9
		l-0.3-2.1l-0.3,2.2H977c0,0-0.3-2-1.3-1s-6.5,5.7-6.5,5.7l1.9,1.9l5.3-4.3c0,0,0.5-0.2,0.2,1.5
		C976.2-238.6,971.9-223.2,971.9-223.2L971.9-223.2z"/>
</g>
<path class="st3" d="M942.8-19.1l1.3-2.2c0,0-6.4-4.1-6.8-4.9l-1.8,2.2C935.5-24.1,939.6-20.2,942.8-19.1z M997.2-23.8l-1.8-1.8
	c0,0-5.6,5.1-6.5,5.3l1.6,2.3C990.5-18.1,995.3-21.1,997.2-23.8z"/>
<path class="st4" d="M967.3-101.9c0,0-6.5-6.3-10.3,1s7.8,14.1,7.8,14.1s0.8,0.8,2.1,1.5l3.5-2.7c0,0,5.8-3.5,6.6-7.4
	s0.6-6.5-2.5-8.3S968.7-103.9,967.3-101.9L967.3-101.9z"/>
<path class="st3" d="M987.5-93.7c0,0-1.5-0.3-0.1-1c0,0,1.7-0.4,2.3-1.4c0,0,0.9-1.4,1.1-2c0.1-0.5,0.7-1.5,1.2,0
	c0.4,1.4,0.2,1.9,3.6,3.5c0,0,0.8,0.3-0.4,1s-3.1,1.2-3.3,3.3c0,0-0.5,1.4-1,0.1C990.8-90.3,990.1-93.1,987.5-93.7L987.5-93.7z
	 M938.6-92.8c0,0-1.5-0.3-0.1-1c0,0,1.7-0.4,2.3-1.4c0,0,0.9-1.4,1.1-2c0.1-0.5,0.7-1.5,1.2,0c0.4,1.4,0.2,1.9,3.6,3.5
	c0,0,0.8,0.3-0.4,1s-3.1,1.2-3.3,3.3c0,0-0.5,1.4-1,0.1C942-89.3,941.3-92.1,938.6-92.8L938.6-92.8z"/>
<g>
	<path class="st5" d="M944.8-71.8h44v2.8h-44V-71.8z"/>
	<path class="st5" d="M942.4-75.4h2.6v9.9h-2.6V-75.4z M988.8-75.4h2.5v9.9h-2.5V-75.4z"/>
</g>
<path class="st6" d="M948.2-68.9v17.2c0,0-0.3,2.5,2.5,2.5h7.6c0,0,1.3-0.9,1.3,2.9s-1.3,35.9-1.3,35.9s-0.5,0.7,2.3,0.5
	c0,0,2.4,0.1,2.6-0.1s1-18.7,1-18.7s2-4.4,4.6-0.3l0.9,18.5c0,0-0.2,0.3,0.6,0.6h4.3c0,0,0.4,0.1,0-1.3l-1.4-36.7
	c0,0,0.3-1.8,2.3-1.4h7.9c0,0,1.4-0.3,1.9-1.9v-17.7h-5.2v12.1c0,0,0.6,1.9-1.6,0.9s-4.7-0.9-9.3,0.4c0,0-0.1-0.5,0-0.6
	s3.3-1.8,3-5.3c-0.3-3.5-2.3-4.7-4.3-5.2s-4.7,0.1-6.3,3c-1.6,3,0.5,6.5,2.4,7.3c0,0,0.3,0.5,0,0.8c0,0-5.8-1.9-8.3-0.7
	c0,0-2.2,1.2-2.2,0.3v-13H948.2z"/>
<g>
	<path class="st3" d="M1005-34.3l-2.2-1.4c0,0-4.3,6.2-5.1,6.6l2.1,1.9C999.7-27.1,1003.8-31.1,1005-34.3z M1009.6-46.1l-2.5-0.7
		c0,0-2.5,7.1-3.2,7.7l2.5,1.2C1006.4-37.9,1009.2-42.8,1009.6-46.1z M1010.7-59.4l-2.6,0.1c0,0,0,7.6-0.5,8.4l2.8,0.3
		C1010.4-50.5,1011.5-56.1,1010.7-59.4z M1007.6-72.7l-2.4,1c0,0,2.4,7.2,2.2,8.1l2.7-0.6C1010.1-64.2,1009.4-69.8,1007.6-72.7z
		 M999.8-84.7l-2,1.6c0,0,4.5,6.1,4.6,7l2.4-1.4C1004.8-77.5,1002.4-82.6,999.8-84.7z M932.3-27.1l1.9-1.7c0,0-4.8-5.8-5-6.8
		l-2.4,1.5C926.9-34.1,929.7-29.1,932.3-27.1z M924.7-38.1l2.4-0.9c0,0-2.4-7.2-2.2-8.1l-2.7,0.5C922.2-46.6,923-41,924.7-38.1z
		 M921.2-51l2.6-0.3c0,0-0.5-7.5-0.1-8.4l-2.8-0.1C920.9-59.8,920.2-54.2,921.2-51z M921.7-64.2l2.5,0.6c0,0,2.1-7.3,2.8-7.9
		l-2.6-1.1C924.4-72.6,921.8-67.6,921.7-64.2z M926.1-76.5l2.2,1.3c0,0,4.1-6.4,4.9-6.8l-2.2-1.8C931.1-83.8,927.2-79.7,926.1-76.5z
		"/>
	<path class="st3" d="M934.1-80.7l-4.7-4.1c0,0-1.2-0.9,0.2-1.9l5.2-0.5c0,0,1.1,0,1.1,1.1l0.2,4.8
		C936.1-81.3,935.3-79.7,934.1-80.7z M1001.6-85.5l-5.2,3.4c0,0-1.2,0.9-1.8-0.7l1-5.1c0,0,0.3-1.1,1.3-0.7s4.7,1.2,4.7,1.2
		S1003-86.4,1001.6-85.5z"/>
</g>
<path class="st7" d="M880.3-540.2h100v100h-100V-540.2z"/>
<linearGradient id="SVGID_1_" gradientUnits="userSpaceOnUse" x1="900.837" y1="617.2169" x2="927.288" y2="617.2169" gradientTransform="matrix(1 0 0 -1 0 102)">
	<stop  offset="0" style="stop-color:#F4C123"/>
	<stop  offset="1" style="stop-color:#C79407"/>
</linearGradient>
<path class="st8" d="M901.4-514.4c0.5,0.1,3.2-0.1,6.6-0.5c0,0,4.1-0.6,8.3-2.3c0,0,6.8-1.9,10.9,1.4v2.9c0,0-5.1-2.4-7.4-2.1
	c0,0-4.4,0.3-7,1.1c-2.6,0.7-6.3,1.9-12,0.7L901.4-514.4L901.4-514.4z"/>
<path class="st9" d="M927.2-515.8c0,0-6.3-3.2-10.9-1.3c-4.5,1.9-7.7,2.5-9.7,2.8c-1.6,0.3-5.3-0.1-5.3-0.1s3.9,0.1,5.3-0.3
	c1-0.3,7.3-2.4,7.9-2.7c0,0,4.5-2.2,8.8-0.9c0,0,3,0.7,3.7,1.4S927.2-515.8,927.2-515.8z M927.3-512.9c0,0-6.3-2.5-11-1.1
	c-5.4,1.6-8.6,1.7-10.2,1.7c-1.5,0-5.4-0.9-5.4-0.9s3.7,0.6,5.6,0.5c4.8-0.5,7.7-1.4,8.1-1.6c0,0,4.6-2.1,8.9-0.8c0,0,3,0.7,3.7,1.3
	C927.6-513.2,927.3-512.9,927.3-512.9L927.3-512.9z"/>
<linearGradient id="SVGID_2_" gradientUnits="userSpaceOnUse" x1="957.6" y1="616.9067" x2="930.4" y2="616.9067" gradientTransform="matrix(1 0 0 -1 0 102)">
	<stop  offset="0" style="stop-color:#F4C123"/>
	<stop  offset="1" style="stop-color:#C79407"/>
</linearGradient>
<path class="st10" d="M957-514.1c-0.5,0.1-3.3-0.1-6.8-0.5c0,0-4.2-0.6-8.6-2.3c0,0-7-1.9-11.2,1.4v2.9c0,0,5.2-2.4,7.6-2.1
	c0,0,4.5,0.3,7.2,1.1s6.4,1.9,12.4,0.7L957-514.1L957-514.1z"/>
<path class="st9" d="M930.5-515.6c0,0,6.5-3.2,11.2-1.3c4.6,1.9,7.9,2.5,10,2.8c1.6,0.3,5.4-0.1,5.4-0.1s-4,0.1-5.5-0.3
	c-1-0.3-7.5-2.4-8.1-2.7c0,0-4.6-2.2-9-0.9c0,0-3.1,0.7-3.8,1.4S930.5-515.6,930.5-515.6L930.5-515.6z M930.4-512.7
	c0,0,6.5-2.5,11.3-1.1c5.6,1.6,8.9,1.7,10.5,1.7s5.6-0.9,5.6-0.9s-3.9,0.6-5.7,0.5c-5-0.5-7.9-1.4-8.4-1.6c0,0-4.7-2.1-9.1-0.8
	c0,0-3.1,0.7-3.8,1.3C930-513,930.4-512.7,930.4-512.7L930.4-512.7z"/>
<ellipse class="st11" cx="959.4" cy="-513.9" rx="1.8" ry="1.7"/>
<linearGradient id="SVGID_3_" gradientUnits="userSpaceOnUse" x1="927.21" y1="600.5" x2="930.46" y2="600.5" gradientTransform="matrix(1 0 0 -1 0 102)">
	<stop  offset="0.556" style="stop-color:#D38D03"/>
	<stop  offset="1" style="stop-color:#DBD032"/>
</linearGradient>
<path class="st12" d="M928.8-477.3L928.8-477.3c-0.9,0-1.6-0.7-1.6-1.6c0,0,0,0,0,0v-39.2c0-0.9,0.7-1.6,1.6-1.6c0,0,0,0,0,0l0,0
	c0.9,0,1.6,0.7,1.6,1.6c0,0,0,0,0,0v39.2C930.5-478,929.7-477.3,928.8-477.3L928.8-477.3z"/>
<path class="st13" d="M927.3-510.5c0,0,0.4,0.5,2.7,0.5c0,0,0.9-0.5,1.1-1.1c0,0-0.6-0.5-1.5,0.4c0,0-1.7-0.8-2.6-0.5
	C926.2-510.9,927.3-510.5,927.3-510.5z M927.2-517.9c0,0,0.4,0.5,2.7,0.5c0,0,0.9-0.5,1.1-1.1c0,0-0.7-0.6-1.6,0.3
	c0,0-1.5-0.7-2.4-0.5C926.1-518.3,927.2-517.9,927.2-517.9z"/>
<linearGradient id="SVGID_4_" gradientUnits="userSpaceOnUse" x1="925.974" y1="628.2" x2="931.622" y2="628.2" gradientTransform="matrix(1 0 0 -1 0 102)">
	<stop  offset="0.246" style="stop-color:#DBD032"/>
	<stop  offset="0.556" style="stop-color:#D38D03"/>
</linearGradient>
<circle class="st14" cx="928.8" cy="-526.2" r="2.8"/>
<g>
	<g>
		<path class="st15" d="M929.5-519.1h-1.4c-0.5,0-0.9-0.4-0.9-0.9v-0.4c0-0.5,0.4-0.9,0.9-0.9h1.4c0.5,0,0.9,0.4,0.9,0.9v0.4
			C930.4-519.5,930-519.1,929.5-519.1z"/>
		<path class="st16" d="M929.4-521.3h-1.1c-0.4,0-0.7-0.3-0.7-0.7c0,0,0,0,0,0v-0.3c0-0.4,0.3-0.7,0.7-0.7c0,0,0,0,0,0h1.1
			c0.4,0,0.7,0.3,0.7,0.7c0,0,0,0,0,0v0.3C930.1-521.6,929.8-521.3,929.4-521.3C929.4-521.3,929.4-521.3,929.4-521.3z"/>
	</g>
	<ellipse class="st17" cx="899.5" cy="-514.2" rx="1.8" ry="1.7"/>
</g>
<path class="st18" d="M960.8-511.1v0.8c0,0.4-0.4,0.7-0.9,0.7s-0.9-0.3-0.9-0.7v-1.9"/>
<path class="st19" d="M898.5-509.9h0.4v2h-0.4V-509.9z M959.6-509.5h0.5v2h-0.5V-509.5z"/>
<g>
	<g>
		<path class="st20" d="M899.5-512.5v1.8c0,0.4-0.4,0.7-0.9,0.7s-0.9-0.3-0.9-0.7v-0.8"/>
		<g>
			<path class="st21" d="M898.2-505.1l-15.6,28.7 M899.3-505.2l15.8,28.6"/>
			<path class="st22" d="M959.1-504.9l-16,28.7 M960.3-504.9l16.3,28.6"/>
		</g>
	</g>
	<g class="st23">
		<path class="st24" d="M959.9-504.4L959.9-504.4c-0.6,0-1-0.4-1-0.9v-1.3c0-0.5,0.4-0.9,0.9-0.9h0.1c0.5,0,0.9,0.4,0.9,0.9v1.3
			C960.8-504.8,960.4-504.4,959.9-504.4z"/>
		<path class="st25" d="M898.8-505.1h-0.2c-0.5,0-0.8-0.4-0.8-0.8v-1.1c0-0.5,0.4-0.8,0.8-0.8h0.2c0.5,0,0.8,0.4,0.8,0.8v1.1
			C899.6-505.5,899.2-505.1,898.8-505.1z"/>
	</g>
</g>
<ellipse class="st26" cx="928.9" cy="-473" rx="3.4" ry="0.6"/>
<path class="st27" d="M931.1-473.3h-4.4c-0.6,0-1-0.5-1-1l0,0c0-0.6,0.5-1,1-1h4.4c0.6,0,1,0.5,1,1l0,0
	C932.1-473.8,931.7-473.3,931.1-473.3z M930.6-475.4h-3.4c-0.5,0-0.9-0.4-0.9-0.9v-0.2c0-0.5,0.4-0.9,0.9-0.9h3.4
	c0.5,0,0.9,0.4,0.9,0.9v0.2C931.5-475.8,931.1-475.4,930.6-475.4z"/>
<linearGradient id="SVGID_5_" gradientUnits="userSpaceOnUse" x1="924.6949" y1="570.5" x2="932.8849" y2="570.5" gradientTransform="matrix(1 0 0 -1 0 102)">
	<stop  offset="0.218" style="stop-color:#D38D03"/>
	<stop  offset="0.382" style="stop-color:#D4960A"/>
	<stop  offset="0.487" style="stop-color:#DBD032"/>
	<stop  offset="0.962" style="stop-color:#D38D03"/>
</linearGradient>
<path class="st28" d="M931.2-463.5h-5.6c-0.7-0.1-0.9-1.6-0.9-3.7v-2.6c0-2-0.2-3.3,1.9-3.7h5.4c1.2,0.8,0.9,1.6,0.9,3.7v2.6
	C932.9-465.1,933.2-464.1,931.2-463.5L931.2-463.5z"/>
<ellipse class="st29" cx="935.8" cy="-459" rx="9.1" ry="1.2"/>
<g>
	
		<linearGradient id="SVGID_6_" gradientUnits="userSpaceOnUse" x1="916.055" y1="562.7" x2="941.822" y2="562.7" gradientTransform="matrix(1 0 0 -1 0 102)">
		<stop  offset="0" style="stop-color:#F9B233"/>
		<stop  offset="1" style="stop-color:#F39200"/>
	</linearGradient>
	<ellipse class="st30" cx="928.9" cy="-460.7" rx="12.9" ry="2.3"/>
	<ellipse class="st31" cx="928.8" cy="-462.2" rx="12.5" ry="2"/>
</g>
<linearGradient id="SVGID_7_" gradientUnits="userSpaceOnUse" x1="915.9" y1="564.5" x2="941.6669" y2="564.5" gradientTransform="matrix(1 0 0 -1 0 102)">
	<stop  offset="0" style="stop-color:#F9B233"/>
	<stop  offset="1" style="stop-color:#F39200"/>
</linearGradient>
<ellipse class="st32" cx="928.8" cy="-462.5" rx="12.9" ry="2.3"/>
<path class="st33" d="M941.9-474.8c0,0,17.3,12.9,36,0H941.9z"/>
<ellipse class="st34" cx="960.1" cy="-475.3" rx="18.4" ry="3.5"/>
<ellipse class="st35" cx="960.2" cy="-475.4" rx="17.7" ry="3"/>
<path class="st33" d="M882.3-475.8c0,0,16.4,11.2,34.1,0H882.3z"/>
<ellipse class="st34" cx="899.5" cy="-476.2" rx="17.4" ry="3"/>
<ellipse class="st36" cx="899.6" cy="-476.3" rx="17" ry="2.4"/>
<path class="st37" d="M1030.6,226.5h-7.8c-0.3,0-0.6-0.3-0.6-0.6v-6c0-0.3,0.3-0.6,0.6-0.6h7.8c0.3,0,0.6,0.3,0.6,0.6v6.1
	C1031.2,226.3,1031,226.5,1030.6,226.5z"/>
<path class="st38" d="M1017.8,212.2h-2.1c0,0-0.7,0.1-0.7-1.2v-4.6h1.6c1.2,0,1.5-0.1,1.5-0.1"/>
<path class="st39" d="M949.4,196.4c0,0-2.6,5.6-0.9,7.3c0,0,0.9,0.5,1.4-0.7c0,0-0.4-4.1,1.6-5.6
	C951.6,197.5,950.5,196.4,949.4,196.4z"/>
<path class="st40" d="M1033,219.3h-13.5c-1,0-1.8-0.8-1.8-1.8c0,0,0,0,0,0v-16.7c0-1,0.8-1.8,1.8-1.8c0,0,0,0,0,0h13.5
	c1,0,1.8,0.8,1.8,1.8c0,0,0,0,0,0v16.7C1034.8,218.5,1034,219.3,1033,219.3C1033,219.3,1033,219.3,1033,219.3z"/>
<g>
	<path class="st41" d="M943.1,198.3c0,0,2.9-23.3,24.8-32.3"/>
	<path class="st42" d="M1024.8,186.5c0,0-8.5-17.1-21.8-20.5"/>
</g>
<path class="st37" d="M985.5,159.7c0,0-6.5-8.9-11.8-1.7c-5.3,7.3,3.8,11.7,11.4,21c0,0,9.9-8.3,11.4-10.9c1.5-2.7,4.1-6.3-0.3-11.9
	C992.1,150.9,985.5,159.7,985.5,159.7L985.5,159.7z"/>
<path class="st43" d="M1026.2,206.5c0,0-2.4-3.3-4.4-0.6s1.5,4.2,4.2,7.8c0,0,3.7-3.1,4.2-4.1c0.6-1,1.8-2.4-0.1-4.4
	S1026.2,206.5,1026.2,206.5L1026.2,206.5z"/>
<g>
	<path class="st44" d="M982.9,165.2l2.2,9v0.2l1.1-2.2v-0.1l-2-8c-0.1-0.2-0.2-0.4-0.4-0.5L982.9,165.2L982.9,165.2z"/>
	<path class="st44" d="M986.2,172.2L986.2,172.2l0.1-0.1l3-4.9h1.9l-0.9,1.4l-3.8,6.2c-0.2,0.3-0.6,0.3-1,0.1
		c-0.2-0.1-0.4-0.3-0.5-0.4l0,0v-0.2L986.2,172.2z M979,168.2l2.9-4.6c0.2-0.2,1.6-0.3,2-0.1l0,0l-1,1.7l-2.7,4.2
		c-0.1,0.1-0.2,0.2-0.3,0.2h-0.1L979,168.2L979,168.2z"/>
	<path class="st44" d="M979,168.2h-9.7v1.4h10.6L979,168.2z M999.9,168.8l-10.6-0.3v-1.4l10.6,0.2V168.8z"/>
</g>
<path class="st37" d="M1029.8,199h-7.1c-0.5,0-1-0.4-1-1v-5.3c0-0.5,0.4-1,1-1h7.1c0.5,0,1,0.4,1,1v5.3
	C1030.8,198.6,1030.3,199,1029.8,199z"/>
<g>
	<path class="st45" d="M970,198.9c0.3-7.2,6.2-13,13.5-13s13.2,5.8,13.5,13"/>
	<path class="st45" d="M997.9,201H969v-2.1h28.9V201z"/>
</g>
<path class="st46" d="M974.7,195.6h2.2v3.3h-2.2V195.6z M981.9,195.6h2.2v3.3h-2.2V195.6z M988.6,195.6h2.2v3.3h-2.2V195.6z"/>
<path class="st47" d="M984.7,223.2h-1.8c-6.2-0.6-10.8-5.1-11.3-11.3l0,0c-0.7-6.2-0.6-7.9-0.6-11.3h25v11.3
	C995.4,218.7,990.9,223,984.7,223.2L984.7,223.2z"/>
<path class="st43" d="M996.5,229.4h5.8v19h-5.8V229.4z"/>
<path class="st48" d="M1002.3,233h3.6v11.7h-3.6V233z"/>
<path class="st49" d="M1006,236.7h4v4.1h-4V236.7z"/>
<path class="st43" d="M965.8,230.2h5.6v19.1h-5.6V230.2z"/>
<path class="st48" d="M962.2,233.9h3.5v11.7h-3.5V233.9z"/>
<path class="st49" d="M958.3,237.8h3.9v4.1h-3.9V237.8z"/>
<path class="st50" d="M971.4,238h24.9v4.4h-24.9V238z"/>
<g>
	<path class="st51" d="M978.8,212.6c0.1,2.9,2.4,5.2,5.2,5.2c2.9,0,5.2-2.3,5.2-5.2 M981.5,207.2c0-1.1-1-1.9-2-1.9
		c-1.1,0-1.9,0.9-1.9,2 M991.7,207.2c0-1.1-1-1.9-2-1.9c-1.1,0-1.9,0.9-1.9,2"/>
	<path class="st52" d="M1014.5,236.7c0,0,3.7-3.5,5.2-5.9"/>
	<path class="st53" d="M954.2,237.6c0,0-8.7-10.2-8.7-14.7"/>
</g>
<path class="st45" d="M996,210.6c0,0-2,9.3,6.3,12v-23c0,0-1.9-4.3-6.9-5"/>
<g>
	<path class="st54" d="M946.8,217.6c0,0-10.1-4.4-7.2-11.4s9-3.5,9-3.5s0.3,0.3,0.9,0c0,0,6.1-3.4,9,3.5s-7,11.2-7,11.2"/>
	<path class="st54" d="M946.2,217c0,0,2.2-2,5.2-0.6l0.9,0.4"/>
	<path class="st54" d="M952.8,216.1c0,0-2.5,2.6-6,0.9l-1.1-0.5"/>
	<path class="st54" d="M946.6,217.5l-1-0.5c-0.3-0.2-0.4-0.5-0.3-0.8l0.1-0.1c0.2-0.3,0.5-0.4,0.8-0.3l1,0.5
		c0.3,0.2,0.4,0.5,0.3,0.8l-0.1,0.1C947.3,217.5,946.9,217.6,946.6,217.5z M952.8,216.6l-1.1,0.6c-0.3,0.2-0.6,0.1-0.8-0.2l0,0
		c-0.2-0.3-0.1-0.6,0.2-0.8l1.1-0.6c0.3-0.2,0.6-0.1,0.8,0.2l0,0C953.2,216.1,953.1,216.5,952.8,216.6z"/>
</g>
<linearGradient id="SVGID_8_" gradientUnits="userSpaceOnUse" x1="515.244" y1="995.8" x2="637.144" y2="995.8" gradientTransform="matrix(1 0 0 -1 0 102)">
	<stop  offset="0.218" style="stop-color:#D38D03"/>
	<stop  offset="0.382" style="stop-color:#D4960A"/>
	<stop  offset="0.487" style="stop-color:#DBD032"/>
	<stop  offset="0.962" style="stop-color:#D38D03"/>
</linearGradient>
<path class="st55" d="M515.2-921.2H592l13,0.8c6.5,0.8,11.8,2.6,15.8,5.3s6,5.9,6,9.5c0,7-7.9,11.4-23.9,13.2
	c5.4,1.3,9.6,3.3,12.5,5.8s5.6,6.6,8.2,12.2l13.4,8h-39.1c-3.3-8-6.3-13.8-9-17.5c-1.7-2.4-5.5-3.5-11.6-3.5h-13.4v8.3l20.2,12.7
	h-69l20.2-12.7v-29.3L515.2-921.2L515.2-921.2z M564-898.3h18.1l5.6-0.1c6.1,0,9.1-2,9.1-6c0-2.6-1-4.3-3-5.2s-5.9-1.3-11.7-1.3H564
	V-898.3z"/>
<linearGradient id="SVGID_9_" gradientUnits="userSpaceOnUse" x1="632" y1="995.8" x2="753.8" y2="995.8" gradientTransform="matrix(1 0 0 -1 0 102)">
	<stop  offset="0.218" style="stop-color:#D38D03"/>
	<stop  offset="0.382" style="stop-color:#D4960A"/>
	<stop  offset="0.487" style="stop-color:#DBD032"/>
	<stop  offset="0.962" style="stop-color:#D38D03"/>
</linearGradient>
<path class="st56" d="M723.2-921.2l-13.2,10l23,32l20.8,12.8h-69.5l19.1-11.2l-2.5-3.8h-31.8l-2.4,3.8l16.6,11.2H632l16.2-12.8
	l22.7-32l-13-10H723.2z M684.5-905.3l-9.8,14.9h20.1L684.5-905.3z"/>
<linearGradient id="SVGID_10_" gradientUnits="userSpaceOnUse" x1="753.916" y1="996" x2="844.499" y2="996" gradientTransform="matrix(1 0 0 -1 0 102)">
	<stop  offset="0.218" style="stop-color:#D38D03"/>
	<stop  offset="0.382" style="stop-color:#D4960A"/>
	<stop  offset="0.487" style="stop-color:#DBD032"/>
	<stop  offset="0.962" style="stop-color:#D38D03"/>
</linearGradient>
<path class="st57" d="M756.8-864.3v-27.5c4.9,5.6,11.7,10,20.3,13.2s18.2,4.7,28.6,4.7c11,0,16.4-1.5,16.4-4.4
	c0-1.4-0.7-2.3-2.2-2.8s-5-0.9-10.6-1.3l-12.1-0.9c-14-1-23.9-2.7-29.7-5c-9.3-3.7-13.8-8.9-13.8-15.6c0-6.3,3.1-11.3,9.3-14.9
	c6.1-3.6,14.7-5.4,25.5-5.4c10.5,0,19.8,1.4,28.2,4.3l2.3,0.8l15.5-4.7v23.2c-14.5-9.4-29.9-14.1-46.2-14.1
	c-9.9,0-14.8,1.5-14.8,4.4c0,1.4,1.2,2.4,3.6,3.1s6.9,1.3,13.6,1.8l11.7,0.9c14.7,1.2,24.5,2.9,29.6,5.3c8.3,4,12.6,9.3,12.6,15.9
	c0,5.9-3.3,10.7-10,14.2c-6.6,3.5-15.5,5.3-26.6,5.3c-12,0-24.2-2-36.7-5.9L756.8-864.3L756.8-864.3z"/>
<path class="st58" d="M1059.6-929.7h43.5c4.9,0,8.8,0.4,11.7,1.2c2.8,0.8,5.6,2.3,8.3,4.5c5.2,4.2,7.8,8.9,7.8,14
	c0,5.5-2.7,9.9-8,13.3c-5.4,3.4-12.4,5.1-20.9,5.1h-42.3l12.2-8.8v-20.4L1059.6-929.7L1059.6-929.7z M1088.7-899.1h8.1
	c5.7,0,9.6-0.7,11.5-2.2c1.9-1.4,2.8-4.3,2.8-8.7c0-8.6-4.7-13-14.1-13h-8.3V-899.1z"/>
<path class="st59" d="M1197.9-929.7v16.5l-12.5-10.2h-23.3v8.3h12.9l9.1-4.5v17.2l-9.1-5.2h-12.9v8.4h23.3l13.4-10.9v18.5h-66
	l12.2-8.8v-20.4l-12.2-8.8L1197.9-929.7z"/>
<path class="st58" d="M1207.1-890.1v-19.1c2.9,3.9,7,7,12.2,9.2s10.9,3.3,17.2,3.3c6.5,0,9.9-1,9.9-3c0-0.9-0.4-1.6-1.3-1.9
	s-3-0.6-6.3-0.9l-7.2-0.6c-8.4-0.7-14.4-1.9-17.8-3.5c-5.5-2.5-8.3-6.2-8.3-10.8c0-4.4,1.8-7.8,5.5-10.3s8.8-3.7,15.4-3.7
	c6.2,0,11.9,1,16.9,3l1.4,0.6l9.3-3.3v16.1c-8.6-6.5-17.9-9.8-27.8-9.8c-5.9,0-8.8,1-8.8,3c0,0.9,0.7,1.7,2.1,2.1
	c1.4,0.5,4.1,0.9,8.1,1.3l7,0.6c8.8,0.8,14.8,2,17.7,3.7c5,2.8,7.5,6.4,7.5,11.1c0,4.1-2,7.4-5.9,9.9c-3.9,2.4-9.4,3.7-16,3.7
	c-7.1,0-14.6-1.4-22.1-4.1L1207.1-890.1L1207.1-890.1z"/>
<path class="st60" d="M1263.6-929.7h40.8l-12.2,8.9v20.3l12.2,8.9h-40.8l12.2-8.9v-20.3L1263.6-929.7z"/>
<path class="st59" d="M1366.6-929.7v16.8c-8-7.4-16.7-11-26-11c-4.1,0-7.4,1.2-9.8,3.7s-3.5,5.9-3.5,10.4c0,8.7,4.6,13.1,13.8,13.1
	c4.2,0,7.6-1,10.3-3v-2.1l-13.5-9h41.6l-12.1,9v12.2l-7.3-4c-6.8,2.7-14,4-21.3,4c-8.8,0-16.2-1.9-22.2-5.7
	c-5.9-3.8-8.9-8.5-8.9-14.1c0-5.9,3.2-10.9,9.8-15.1c6.5-4.2,14.3-6.3,23.3-6.3c7.7,0,14.4,1.7,19.9,5L1366.6-929.7L1366.6-929.7z"
	/>
<path class="st61" d="M1408.3-929.7l20.6,20.6v-11.7l-12.2-8.9h34l-12.2,8.9v29.2h-17.2l-20.8-21.6v12.8l12.2,8.9h-34l12.2-8.9
	v-20.3l-12.2-8.9L1408.3-929.7z"/>
<radialGradient id="SVGID_11_" cx="1280.4987" cy="149.9" r="114.7844" gradientTransform="matrix(1.0055 0 0 1 1.5586 -900)" gradientUnits="userSpaceOnUse">
	<stop  offset="0" style="stop-color:#000000"/>
	<stop  offset="0.73" style="stop-color:#984023"/>
	<stop  offset="1" style="stop-color:#000000"/>
</radialGradient>
<ellipse class="st62" cx="1289.1" cy="-750.1" rx="115.4" ry="114.8"/>
<radialGradient id="SVGID_12_" cx="1280.4987" cy="149.9" r="57.3922" gradientTransform="matrix(1.0055 0 0 1 1.5586 -900)" gradientUnits="userSpaceOnUse">
	<stop  offset="0.15" style="stop-color:#FFFFFF"/>
	<stop  offset="0.213" style="stop-color:#E0CBC9"/>
	<stop  offset="0.293" style="stop-color:#C09593"/>
	<stop  offset="0.362" style="stop-color:#AA706F"/>
	<stop  offset="0.417" style="stop-color:#9E5B5C"/>
	<stop  offset="0.45" style="stop-color:#995356"/>
	<stop  offset="0.544" style="stop-color:#7E342F"/>
	<stop  offset="0.647" style="stop-color:#5C1A0C"/>
	<stop  offset="0.736" style="stop-color:#3F0800"/>
	<stop  offset="0.807" style="stop-color:#1F0200"/>
	<stop  offset="0.85" style="stop-color:#000000"/>
	<stop  offset="0.856" style="stop-color:#120100"/>
	<stop  offset="0.862" style="stop-color:#2F0200"/>
	<stop  offset="0.869" style="stop-color:#430700"/>
	<stop  offset="0.875" style="stop-color:#5A1100"/>
	<stop  offset="0.882" style="stop-color:#761D04"/>
	<stop  offset="0.888" style="stop-color:#952A10"/>
	<stop  offset="0.895" style="stop-color:#B63B1D"/>
	<stop  offset="0.9" style="stop-color:#D34E29"/>
	<stop  offset="0.906" style="stop-color:#BE4020"/>
	<stop  offset="0.916" style="stop-color:#A02F14"/>
	<stop  offset="0.926" style="stop-color:#822209"/>
	<stop  offset="0.937" style="stop-color:#681700"/>
	<stop  offset="0.948" style="stop-color:#510D00"/>
	<stop  offset="0.959" style="stop-color:#3D0500"/>
	<stop  offset="0.971" style="stop-color:#290200"/>
	<stop  offset="0.984" style="stop-color:#0E0100"/>
	<stop  offset="1" style="stop-color:#000000"/>
</radialGradient>
<ellipse class="st63" cx="1289.1" cy="-750.1" rx="57.7" ry="57.4"/>
<radialGradient id="SVGID_13_" cx="1280.4987" cy="149.9" r="47.8184" gradientTransform="matrix(1.0055 0 0 1 1.5586 -900)" gradientUnits="userSpaceOnUse">
	<stop  offset="0.15" style="stop-color:#FFFFFF"/>
	<stop  offset="0.282" style="stop-color:#A9A09D"/>
	<stop  offset="0.425" style="stop-color:#655A55"/>
	<stop  offset="0.564" style="stop-color:#382F2A"/>
	<stop  offset="0.694" style="stop-color:#1C150E"/>
	<stop  offset="0.813" style="stop-color:#090500"/>
	<stop  offset="0.919" style="stop-color:#010100"/>
	<stop  offset="1" style="stop-color:#000000"/>
</radialGradient>
<ellipse class="st64" cx="1289.1" cy="-750.1" rx="48.1" ry="47.8"/>
<path class="st65" d="M1289.1-750.1l-186.1,175L1289.1-750.1l-175.9-185.1L1289.1-750.1l-95.7,84.1L1289.1-750.1l-84.5-95.1
	L1289.1-750.1l84.5,95.2L1289.1-750.1l-205,84.9L1289.1-750.1l-85.3-203.8L1289.1-750.1l-220.2-8L1289.1-750.1l8.1-218.9
	L1289.1-750.1l-58.4,105.8L1289.1-750.1l58.3-105.8L1289.1-750.1l-106.4-58L1289.1-750.1L1189-613.8L1289.1-750.1l-137-99.6
	L1289.1-750.1l137.1,99.6L1289.1-750.1L1236.9-582L1289.1-750.1l-169-51.9L1289.1-750.1l-58.3-9L1289.1-750.1l9.1-58L1289.1-750.1
	l-24.5,7.2L1289.1-750.1l24.6-7.2L1289.1-750.1l-7.2-24.3L1289.1-750.1l7.3,24.4L1289.1-750.1l-264.4-16.6L1289.1-750.1l16.7-263
	L1289.1-750.1l-269.7-31.1L1289.1-750.1l31.3-268.3L1289.1-750.1l-109.8-17.8L1289.1-750.1l17.9-109.2L1289.1-750.1l-25.7,14.8
	L1289.1-750.1l-14.9-25.5L1289.1-750.1l14.9,25.6L1289.1-750.1l-75.5-12.3L1289.1-750.1l75.5,12.4L1289.1-750.1l12.4-75.1
	L1289.1-750.1l-38.8,49.6L1289.1-750.1l-49.8-38.6l99.7,77.2"/>
<linearGradient id="SVGID_14_" gradientUnits="userSpaceOnUse" x1="1197.9" y1="919.8518" x2="1283.6" y2="919.8518" gradientTransform="matrix(1 0 0 -1 0 102)">
	<stop  offset="0" style="stop-color:#F4C123"/>
	<stop  offset="1" style="stop-color:#C79407"/>
</linearGradient>
<path class="st66" d="M1199.7-814.9c1.7,0.4,10.4-0.2,21.5-1.6c0,0,13.4-1.9,26.9-7.5c0,0,22-6.3,35.5,4.5v9.2c0,0-16.4-7.9-24-6.9
	c0,0-14.2,1-22.6,3.4s-20.3,6-39.1,2.4L1199.7-814.9L1199.7-814.9z"/>
<path class="st9" d="M1283.4-819.6c0,0-20.5-10.4-35.3-4.2c-14.6,6.1-24.8,7.9-31.6,9.1c-5.1,0.9-17.1-0.2-17.1-0.2
	s12.7,0.2,17.3-1.1c3.2-0.9,23.8-7.7,25.5-8.6c0,0,14.6-7.2,28.6-2.8c0,0,9.9,2.4,11.9,4.4S1283.4-819.6,1283.4-819.6L1283.4-819.6z
	 M1283.8-810.3c0,0-20.4-8.2-35.6-3.7c-17.7,5.2-28,5.5-33,5.5s-17.6-2.8-17.6-2.8s12.2,2.1,18.1,1.5c15.6-1.5,25-4.7,26.4-5.3
	c0,0,14.9-6.8,28.9-2.5c0,0,9.9,2.3,11.9,4.3S1283.8-810.3,1283.8-810.3L1283.8-810.3z"/>
<linearGradient id="SVGID_15_" gradientUnits="userSpaceOnUse" x1="1382.135" y1="919.0518" x2="1293.9351" y2="919.0518" gradientTransform="matrix(1 0 0 -1 0 102)">
	<stop  offset="0" style="stop-color:#F4C123"/>
	<stop  offset="1" style="stop-color:#C79407"/>
</linearGradient>
<path class="st67" d="M1380.2-814.1c-1.7,0.4-10.7-0.2-22.1-1.6c0,0-13.8-1.9-27.8-7.5c0,0-22.6-6.3-36.5,4.5v9.2
	c0,0,16.9-7.9,24.7-6.9c0,0,14.6,1,23.3,3.4s20.9,6,40.2,2.4L1380.2-814.1L1380.2-814.1z"/>
<path class="st9" d="M1294.3-818.8c0,0,21.1-10.4,36.3-4.2c15,6.1,25.5,7.9,32.5,9.1c5.2,0.9,17.5-0.2,17.5-0.2s-13.1,0.2-17.8-1.1
	c-3.3-0.9-24.4-7.7-26.3-8.6c0,0-15-7.2-29.4-2.8c0,0-10.1,2.4-12.3,4.4S1294.3-818.8,1294.3-818.8L1294.3-818.8z M1293.9-809.4
	c0,0,21-8.2,36.6-3.7c18.2,5.2,28.8,5.5,34,5.5s18.1-2.8,18.1-2.8s-12.5,2.1-18.6,1.5c-16.1-1.5-25.7-4.7-27.1-5.3
	c0,0-15.3-6.8-29.7-2.5c0,0-10.1,2.3-12.3,4.3C1292.6-810.5,1293.9-809.4,1293.9-809.4z"/>
<ellipse class="st68" cx="1388.1" cy="-813.5" rx="5.9" ry="5.4"/>
<linearGradient id="SVGID_16_" gradientUnits="userSpaceOnUse" x1="1283.5" y1="865.8" x2="1294.043" y2="865.8" gradientTransform="matrix(1 0 0 -1 0 102)">
	<stop  offset="0.556" style="stop-color:#D38D03"/>
	<stop  offset="1" style="stop-color:#DBD032"/>
</linearGradient>
<path class="st69" d="M1288.7-695.3L1288.7-695.3c-2.9,0-5.2-2.4-5.2-5.2v-126.6c0-2.9,2.4-5.2,5.2-5.2l0,0c2.9,0,5.2,2.4,5.2,5.2
	v126.6C1294.1-697.6,1291.6-695.3,1288.7-695.3z"/>
<path class="st13" d="M1283.8-802.3c0,0,1.4,1.7,8.6,1.7c0,0,2.8-1.7,3.7-3.4c0,0-1.8-1.7-4.8,1.3c0,0-5.4-2.6-8.3-1.7
	C1280.2-803.7,1283.8-802.3,1283.8-802.3L1283.8-802.3z M1283.5-826.4c0,0,1.4,1.7,8.6,1.7c0,0,2.8-1.7,3.7-3.4c0,0-2.4-1.9-5.3,1
	c0,0-4.9-2.4-7.8-1.5S1283.5-826.4,1283.5-826.4L1283.5-826.4z"/>
<linearGradient id="SVGID_17_" gradientUnits="userSpaceOnUse" x1="1279.474" y1="955.1" x2="1297.797" y2="955.1" gradientTransform="matrix(1 0 0 -1 0 102)">
	<stop  offset="0.246" style="stop-color:#DBD032"/>
	<stop  offset="0.556" style="stop-color:#D38D03"/>
</linearGradient>
<circle class="st70" cx="1288.6" cy="-853.1" r="9.1"/>
<g>
	<g>
		<path class="st71" d="M1290.8-830.2h-4.4c-1.6,0-2.9-1.3-2.9-2.9v-1.3c0-1.6,1.3-2.9,2.9-2.9h4.4c1.6,0,2.9,1.3,2.9,2.9v1.3
			C1293.9-831.5,1292.4-830.2,1290.8-830.2z"/>
		<path class="st72" d="M1290.5-837.3h-3.5c-1.2,0-2.3-1-2.3-2.2c0,0,0-0.1,0-0.1v-1c0-1.2,1-2.3,2.2-2.3c0,0,0.1,0,0.1,0h3.5
			c1.2,0,2.3,1,2.3,2.2c0,0,0,0.1,0,0.1v1C1292.8-838.4,1291.8-837.3,1290.5-837.3C1290.6-837.3,1290.5-837.3,1290.5-837.3z"/>
	</g>
	<ellipse class="st73" cx="1193.5" cy="-814.4" rx="5.8" ry="5.4"/>
</g>
<path class="st74" d="M1392.5-804.5v2.5c-0.1,1.4-1.4,2.4-3.1,2.4s-3.1-1.1-3.1-2.4v-6.1"/>
<path class="st19" d="M1190.2-800.6h1.4v6.4h-1.4V-800.6z M1388.7-799.3h1.5v6.4h-1.5V-799.3z"/>
<g>
	<g>
		<path class="st75" d="M1193.6-808.9v5.9c0,1.3-1.3,2.4-3,2.4s-2.9-1-3-2.4v-2.5"/>
		<g>
			<path class="st76" d="M1189.3-785.1l-50.4,92.7 M1193-785.2l51.2,92.2"/>
			<path class="st77" d="M1386.9-784.5l-51.7,92.7 M1391-784.3l52.7,92.2"/>
		</g>
	</g>
	<g class="st23">
		<path class="st78" d="M1389.6-782.7h-0.3c-1.6,0-2.9-1.3-2.9-2.9v-4.2c0-1.6,1.3-2.9,2.9-2.9h0.3c1.6,0,2.9,1.3,2.9,2.9v4.2
			C1392.5-784,1391.2-782.7,1389.6-782.7z"/>
		<path class="st79" d="M1191.3-785.1h-0.6c-1.5,0-2.7-1.2-2.7-2.7c0,0,0,0,0,0v-3.4c0-1.5,1.2-2.7,2.7-2.7c0,0,0,0,0,0h0.6
			c1.5,0,2.7,1.2,2.7,2.7c0,0,0,0,0,0v3.4C1194-786.3,1192.8-785.1,1191.3-785.1C1191.3-785.1,1191.3-785.1,1191.3-785.1z"/>
	</g>
</g>
<ellipse class="st26" cx="1289" cy="-681.6" rx="11.2" ry="2"/>
<path class="st80" d="M1296.3-682.6h-14.4c-1.8,0-3.2-1.5-3.2-3.2l0,0c0-1.8,1.5-3.2,3.2-3.2h14.4c1.8,0,3.2,1.5,3.2,3.2l0,0
	C1299.5-684.1,1298.1-682.6,1296.3-682.6z M1294.5-689.1h-10.9c-1.6,0-2.9-1.3-2.9-2.9v-0.7c0-1.6,1.3-2.9,2.9-2.9h10.9
	c1.6,0,2.9,1.3,2.9,2.9v0.7C1297.4-690.4,1296.1-689.1,1294.5-689.1z"/>
<linearGradient id="SVGID_18_" gradientUnits="userSpaceOnUse" x1="1275.343" y1="768.6" x2="1301.908" y2="768.6" gradientTransform="matrix(1 0 0 -1 0 102)">
	<stop  offset="0.218" style="stop-color:#D38D03"/>
	<stop  offset="0.382" style="stop-color:#D4960A"/>
	<stop  offset="0.487" style="stop-color:#DBD032"/>
	<stop  offset="0.962" style="stop-color:#D38D03"/>
</linearGradient>
<path class="st81" d="M1296.5-650.7h-18.3c-2.3-0.4-2.8-5.3-2.8-11.8v-8.2c0-6.5-0.5-10.5,6-11.8h17.4c4,2.5,3,5.3,3,11.8v8.2
	C1301.8-656,1303-652.7,1296.5-650.7L1296.5-650.7z"/>
<ellipse class="st29" cx="1311.4" cy="-636.2" rx="29.5" ry="3.8"/>
<g>
	
		<linearGradient id="SVGID_19_" gradientUnits="userSpaceOnUse" x1="1247.2999" y1="743.9" x2="1330.9" y2="743.9" gradientTransform="matrix(1 0 0 -1 0 102)">
		<stop  offset="0" style="stop-color:#F9B233"/>
		<stop  offset="1" style="stop-color:#F39200"/>
	</linearGradient>
	<ellipse class="st82" cx="1289.1" cy="-641.9" rx="41.8" ry="7.3"/>
	<ellipse class="st83" cx="1288.6" cy="-646.7" rx="40.4" ry="6.5"/>
</g>
<linearGradient id="SVGID_20_" gradientUnits="userSpaceOnUse" x1="1246.7999" y1="749.6" x2="1330.4" y2="749.6" gradientTransform="matrix(1 0 0 -1 0 102)">
	<stop  offset="0" style="stop-color:#F9B233"/>
	<stop  offset="1" style="stop-color:#F39200"/>
</linearGradient>
<ellipse class="st84" cx="1288.6" cy="-647.6" rx="41.8" ry="7.3"/>
<path class="st33" d="M1331.3-687.3c0,0,56.2,41.7,116.7,0H1331.3z"/>
<ellipse class="st34" cx="1390.2" cy="-688.9" rx="59.6" ry="11.2"/>
<ellipse class="st35" cx="1390.5" cy="-689.2" rx="57.6" ry="9.6"/>
<path class="st33" d="M1137.7-690.6c0,0,53.3,36.3,110.7,0H1137.7z"/>
<ellipse class="st34" cx="1193.5" cy="-691.9" rx="56.5" ry="9.8"/>
<ellipse class="st36" cx="1194" cy="-692.2" rx="55.1" ry="7.8"/>
<path class="st37" d="M795.4-668.8h-19.9c-0.8,0-1.5-0.7-1.5-1.5v-15.4c0-0.8,0.7-1.5,1.5-1.5h19.9c0.8,0,1.5,0.7,1.5,1.5v15.4
	C796.9-669.5,796.2-668.8,795.4-668.8z"/>
<path class="st38" d="M762.6-705.1h-5.4c0,0-1.8,0.2-1.8-3v-11.8c0,0,1.2,0,4.1-0.1l3.8-0.2"/>
<path class="st39" d="M588.1-745.3c0,0-6.5,14.2-2.2,18.6c0,0,2.2,1.4,3.5-1.7c0,0-1-10.4,4.1-14.2
	C593.5-742.6,590.7-745.3,588.1-745.3L588.1-745.3z"/>
<path class="st40" d="M801.4-687.2h-34.5c-2.5,0-4.5-2-4.5-4.5c0,0,0,0,0,0v-42.5c0-2.5,2-4.5,4.5-4.5c0,0,0,0,0,0h34.5
	c2.5,0,4.5,2,4.5,4.5c0,0,0,0,0,0v42.5C805.9-689.2,803.9-687.2,801.4-687.2C801.4-687.2,801.4-687.2,801.4-687.2z"/>
<g>
	<path class="st85" d="M571.9-740.5c0,0,7.3-59,63.1-81.9"/>
	<path class="st86" d="M780.5-770.4c0,0-21.7-43.5-55.5-52"/>
</g>
<path class="st37" d="M680.2-838.4c0,0-16.7-22.6-30.3-4.2c-13.5,18.4,9.7,29.7,29.1,53.4c0,0,25.4-21,29.3-27.7
	c3.8-6.7,10.5-16-0.7-30.3C697.1-860.7,680.2-838.4,680.2-838.4L680.2-838.4z"/>
<path class="st43" d="M784.2-719.6c0,0-6.2-8.4-11.2-1.6c-4.9,6.8,3.9,10.7,10.8,19.8c0,0,9.5-7.8,10.9-10.3s4.6-6.1-0.3-11.3
	C789.4-728,784.2-719.6,784.2-719.6L784.2-719.6z"/>
<g>
	<path class="st44" d="M673.5-824.6l5.6,23.3v0.1l2.8-5.7l0.1-0.1v-0.2l-5-20.4c-0.1-0.6-0.5-1-1.1-1.3L673.5-824.6L673.5-824.6z"/>
	<path class="st44" d="M682-806.8L682-806.8l0.1-0.3l7.6-12.5l4.9,0.1l-2.2,3.6l-9.7,15.6c-0.4,0.6-1.6,0.7-2.6,0.2
		c-0.6-0.3-1-0.7-1.2-1.1v-0.1c-0.1-0.1-0.1-0.3-0.1-0.4L682-806.8z M663.6-816.9l7.4-11.8c0.4-0.6,4.1-0.7,5.1-0.1l0,0l-2.7,4.2
		l-6.8,10.7c-0.1,0.3-0.5,0.4-0.9,0.5h-0.3L663.6-816.9L663.6-816.9z"/>
	<path class="st44" d="M663.6-816.9h-24.8v3.5h27L663.6-816.9z M716.9-815.4l-27.1-0.6l0.1-3.7l27.1,0.6L716.9-815.4z"/>
</g>
<path class="st37" d="M793.2-738.6h-18c-1.4,0-2.5-1.1-2.5-2.5v-13.5c0-1.4,1.1-2.5,2.5-2.5h18c1.4,0,2.5,1.1,2.5,2.5v13.5
	C795.6-739.7,794.5-738.6,793.2-738.6z"/>
<g>
	<path class="st45" d="M640.5-739c0.7-18.3,15.9-32.9,34.5-32.9s33.7,14.6,34.5,32.9"/>
	<path class="st45" d="M711.9-733.6h-73.7l-0.1-5.5l73.7,0.1L711.9-733.6z"/>
</g>
<path class="st46" d="M652.6-747.2h5.5v8.3h-5.5V-747.2z M671-747.2h5.5v8.3H671V-747.2z M688-747.2h5.5v8.3H688V-747.2z"/>
<path class="st47" d="M678.1-677.2h-4.5c-15.9-1.4-27.4-12.9-28.9-28.7l0,0c-1.7-15.8-1.6-20.1-1.6-28.7h63.7v28.7
	C705.4-688.7,693.9-677.8,678.1-677.2z"/>
<path class="st43" d="M708.4-661.7h14.8v48.3h-14.8V-661.7z"/>
<path class="st48" d="M723.1-652.3h9.3v29.6h-9.3V-652.3z"/>
<path class="st49" d="M732.4-642.9h10.2v10.3h-10.2V-642.9z"/>
<path class="st43" d="M629.9-659.5h14.4v48.4h-14.4V-659.5z"/>
<path class="st48" d="M620.8-650.1h9v29.6h-9V-650.1z"/>
<path class="st49" d="M610.9-640.1h10v10.3h-10V-640.1z"/>
<path class="st50" d="M644.3-639.7h63.6v11.2h-63.6V-639.7z"/>
<g>
	<path class="st87" d="M663.1-704.2c0.1,7.2,6,13.1,13.4,13.1s13.3-5.8,13.4-13.1 M669.8-717.8c-0.1-2.7-2.4-4.9-5.2-4.8
		s-4.9,2.3-4.9,5.1 M696-717.8c-0.1-2.7-2.4-4.9-5.2-4.8s-4.9,2.3-4.9,5.1"/>
	<path class="st88" d="M754.3-642.9c0,0,9.5-9,13.3-15"/>
	<path class="st89" d="M600.2-640.8c0,0-22.2-26-22.3-37.3"/>
</g>
<path class="st45" d="M706.8-709.4c0,0-5.2,23.7,16.2,30.5v-58.4c0,0-4.8-11-17.5-12.8"/>
<g>
	<path class="st54" d="M581.4-691.6c0,0-25.6-11.2-18.4-29c7.2-17.7,22.9-9,22.9-9s0.7,0.7,2.2,0c0,0,15.6-8.7,22.9,8.9
		c7.2,17.6-18,28.4-18,28.4"/>
	<path class="st54" d="M579.8-692.9c0,0,5.6-5,13.2-1.5l2.4,1.1"/>
	<path class="st54" d="M596.5-695.3c0,0-6.4,6.7-15.4,2.2l-2.8-1.4"/>
	<path class="st54" d="M581-691.8l-2.5-1.3c-0.7-0.4-1-1.3-0.6-2l0.1-0.3c0.4-0.7,1.3-1,2-0.6l2.5,1.3c0.7,0.4,1,1.3,0.6,2l-0.1,0.3
		C582.7-691.7,581.7-691.4,581-691.8z M596.6-694l-2.7,1.6c-0.7,0.4-1.6,0.2-2.1-0.5l0,0c-0.4-0.7-0.2-1.6,0.5-2.1l2.7-1.6
		c0.7-0.4,1.6-0.2,2.1,0.5l0,0C597.7-695.3,597.3-694.4,596.6-694z"/>
</g>
<g>
	<path class="st90" d="M931.1-309H906c-0.9,0-1.6-0.7-1.6-1.6c0,0,0,0,0,0v-1.4h26.8L931.1-309L931.1-309z"/>
	<path class="st90" d="M931.9-309h-0.8v-14.9h2.1v13.6C933.2-309.5,932.6-309,931.9-309z"/>
	<path class="st90" d="M933.2-323.9h21.6v2h-21.6V-323.9z"/>
	<path class="st90" d="M956-321.9h-1.2V-338h1.9v15.4C956.7-322.1,956.4-321.9,956-321.9z"/>
	<path class="st90" d="M956.7-338h20.2v2.4h-20.2V-338z"/>
	<path class="st90" d="M978.2-335.5h-1.9v-12.9c0-0.7,0.6-1.3,1.3-1.3h1.5v13.4C979.1-336,978.7-335.5,978.2-335.5L978.2-335.5z"/>
	<path class="st90" d="M999.1-347.9h-20v-3.3h20c0.9,0,1.6,0.7,1.6,1.6c0,0,0,0,0,0l0,0C1000.7-348.5,1000-347.9,999.1-347.9
		L999.1-347.9z"/>
</g>
<g>
	<path class="st91" d="M928.7-311h-25.8c-0.9,0-1.7-0.8-1.7-1.7l0,0c0-0.9,0.8-1.7,1.7-1.7h25.8V-311L928.7-311z"/>
	<path class="st91" d="M929.9-311h-1.2v-15.1c0-0.5,0.4-1,0.9-1c0,0,0.1,0,0.1,0h1.9v14.4C931.6-311.9,930.8-311,929.9-311z"/>
	<path class="st91" d="M954.1-323.9h-22.5v-3.4h23.5v2.4C955.1-324.3,954.6-323.9,954.1-323.9z"/>
	<path class="st91" d="M955.1-327.1H951V-339c0-0.9,0.8-1.7,1.7-1.7h2.4C955.1-340.8,955.1-327.1,955.1-327.1L955.1-327.1z"/>
	<path class="st91" d="M976.1-338h-21v-2.8h22.5v1.3C977.6-338.7,977-338,976.1-338C976.1-338,976.1-338,976.1-338z"/>
	<path class="st91" d="M977.6-340.6h-3.3v-11.1c0-1,0.8-1.8,1.8-1.8h1.5V-340.6z"/>
	<path class="st91" d="M998-349.9h-20.4v-3.8H998c1,0,1.9,0.8,1.9,1.9l0,0C999.8-350.6,999-349.9,998-349.9z"/>
</g>
<g>
	<g>
		<ellipse class="st92" cx="918.1" cy="-372.3" rx="6.8" ry="5.6"/>
		<circle class="st93" cx="916.8" cy="-373.4" r="6.2"/>
		<ellipse class="st92" cx="954" cy="-397" rx="6.8" ry="5.6"/>
		<circle class="st94" cx="952.8" cy="-398" r="6.2"/>
		<g>
			<path class="st95" d="M919.7-355.6c0,0-7,6.4-4.6,24c0,0-7.9,9.3-4.8,12.4s6.4,1.6,8.6-0.6c0,0,4.9-7.5,4.9-10.3v-11.5l9,1.1
				c0,0,2,10.3,4.8,10.3s5.4-0.8,6.4-3.3c0,0-3.3-15.3-7.6-15.3l-7.4-1l2.5-9.6L944-366l-2.9-6.4c0,0-25.3,6.9-30.3,14.8
				s-5,13.9-5,13.9s4.2,5,6.6,2.5C912.4-341.3,914.4-352.3,919.7-355.6L919.7-355.6z"/>
			<path class="st96" d="M918-356.4c0,0-7,6.4-4.6,24c0,0-7.9,9.3-4.8,12.4s6.4,1.6,8.6-0.6c0,0,4.9-7.5,4.9-10.3v-11.5l9,1.1
				c0,0,2,10.3,4.8,10.3s5.4,0.1,6.4-3.3c0,0-3.3-15.3-7.6-15.3l-7.4-1l2.5-9.6l12.5-6.6l-2.9-6.4c0,0-25.3,6.9-30.3,14.8
				s-5,13.9-5,13.9s4.2,5,6.6,2.5C910.7-342,912.7-353,918-356.4z"/>
		</g>
	</g>
	<path class="st97" d="M962.2-381.3l5.5,4.1c0,0-5,14.4-3.8,29.2c0,0,1,3.6,6.7,2.9c0,0,2.4-0.3,2.4-10.2c0,0,1-13.8,2.1-14.8
		c0,0,2.9,4.6,5,5.8l11.2,5.9c0,0,6.8,1,5.9-5.8l-12.3-7.7c-0.7-0.7-4.5-11.6-4.5-11.6s-5.7-4.8-8.5-6.7l4.7-1.9l7.2,4.4
		c0,0,3.7,1.3,4.9-3c0,0,0-1.6-2.3-3.9l-9.1-5.1c0,0-1.4-0.9-4.1,0l-9.7,4.9c0,0-5.2,2.4-8.6,10.4c0,0-4.4,6.3-12,10.4
		c0,0,2.4,6.5,4,6.5C946.9-367.5,959.2-375,962.2-381.3L962.2-381.3z"/>
	<path class="st98" d="M960-381.1l5.3,4c0,0-4.8,14.2-3.7,28.7c0,0,1,3.5,6.5,2.8c0,0,2.3-0.3,2.3-10c0,0,1-13.5,2-14.5
		c0,0,2.8,4.5,4.8,5.7l10.8,5.8c0,0,6.6,1,5.7-5.7c0,0-11.1-6.9-11.8-7.6c-0.6-0.8-4.2-11.5-4.2-11.5s-5.5-4.7-8.2-6.6l4.5-1.8
		l6.9,4.3c0,0,3.6,1.3,4.8-2.9c0,0,0-1.5-2.3-3.8l-8.8-5c0,0-1.3-0.9-3.9,0l-9.3,4.8c0,0-5,2.3-8.3,10.2c0,0-4.3,6.2-11.6,10.2
		c0,0,2.5,5.8,4,5.8C945.5-368.1,957.1-374.9,960-381.1z"/>
	<path class="st99" d="M261.6,26c-6.5,2.1-13.6,2.3-20.6-0.1c-13-4.4-21.5-16.1-22.3-29 M273.4,19.2c4-3.6,7.2-8.4,9.1-13.9
		c5.8-17.1-3.5-35.7-20.6-41.5c-15.6-5.2-32.3,1.9-39.5,16.1"/>
</g>
<path class="st100" d="M272.2,18.6c0.1-0.2,0.2-0.4,0.4-0.5l0.4-0.4l1.9,2l-0.5,0.5c-0.6,0.5-1.4,0.5-1.9-0.1
	C272.1,19.7,272,19.1,272.2,18.6z M220.1-3.9c0.1,0.2,0.1,0.4,0.1,0.6v0.6l-2.8-0.1v-0.7c0-0.8,0.7-1.4,1.4-1.3
	C219.4-4.7,219.9-4.4,220.1-3.9z M220.8-20c0-0.2,0.1-0.4,0.2-0.6l0.3-0.5l2.4,1.3l-0.3,0.6c-0.4,0.7-1.2,0.9-1.9,0.5
	C221-18.9,220.8-19.5,220.8-20z M262.5,27c-0.1,0.1-0.3,0.3-0.5,0.3l-0.5,0.2l-0.9-2.6l0.7-0.2c0.7-0.2,1.5,0.2,1.7,0.9
	C263.1,26.1,262.9,26.6,262.5,27L262.5,27z"/>
<g>
	<path class="st101" d="M16.3,51.2c0,0,3.9-13.6,10-18.2l24.3,25.2L16.3,51.2z"/>
	<path class="st101" d="M19.5,73.4l30.8-15.7l23,25.6c0,0-5.5,6.3-14.8,8.6c0,0-4.8,0.9-9.6,0.9c0,0-5.2-0.2-8.6-1.5
		s-9.6-3.8-12-6.2C26,82.6,21.6,78.4,19.5,73.4z"/>
</g>
<g>
	<path class="st102" d="M73.1,84.7L50.6,58.1l17.3-29c0,0,7.2,3.9,11.7,12.5c0,0,2.1,4.5,3.3,9.2c0,0,1.2,5.2,0.9,8.9
		c-0.2,3.7-0.9,10.4-2.5,13.3C79.8,76.1,77.1,81.4,73.1,84.7z"/>
	<path class="st102" d="M19.5,73.3l31.1-15.2l-34.3-7C16.3,51.1,13.3,62.8,19.5,73.3z"/>
	<path class="st102" d="M25.3,33.8l25.3,24.3l-4.1-34.8C46.6,23.3,33.4,24.6,25.3,33.8z"/>
</g>
<path class="st100" d="M18,39.6c0,0.2-0.1,0.5-0.2,0.7l-0.3,0.6l-2.9-1.5l0.4-0.7c0.4-0.8,1.3-1.1,2.1-0.7c0.1,0,0.1,0.1,0.1,0.1
	C17.7,38.4,18,39,18,39.6z M84.2,45.2c-0.2-0.2-0.3-0.4-0.3-0.6L83.7,44l3.1-1l0.2,0.8c0.2,0.9-0.3,1.8-1.1,2
	C85.2,45.9,84.6,45.7,84.2,45.2z M89.3,63.3c0.1,0.2,0.1,0.5,0,0.8l-0.1,0.6L86,64.1l0.2-0.8c0.2-0.9,1-1.5,1.9-1.3
	C88.7,62.2,89.2,62.7,89.3,63.3z M25.6,26.7c0.1-0.2,0.3-0.4,0.5-0.6l0.5-0.4l2,2.6L28,28.8c-0.7,0.5-1.7,0.4-2.2-0.3
	C25.3,27.9,25.3,27.3,25.6,26.7z"/>
<path class="st101" d="M46.1,23.8l4.5,34.3l20.1-27.7C70.8,30.4,58,21.2,46.1,23.8z"/>
<path class="st103" d="M15.6,58.2L15.6,58.2c-0.5,0-0.8-0.4-0.8-0.8v-0.3c0-0.4,0.4-0.8,0.8-0.8l0,0c0.4,0,0.8,0.4,0.8,0.8v0.3
	C16.4,57.8,16,58.2,15.6,58.2z"/>
<path class="st104" d="M15.6,57.3C15.9,38.6,31.2,23.5,50,23.5c19,0,34.5,15.4,34.5,34.5c0,15.6-10.3,28.7-24.5,33 M18.1,71
	c4.7,11.6,15.6,20,28.5,21.3"/>
<path class="st103" d="M18.3,71.7L18.3,71.7c-0.5,0.1-0.9-0.1-1-0.5L17.2,71c-0.1-0.4,0.1-0.9,0.5-1l0,0c0.4-0.1,0.9,0.1,1,0.5
	l0.1,0.3C19,71.1,18.8,71.6,18.3,71.7z M61,90.5L61,90.5c0.2,0.4,0,0.9-0.4,1.1l-0.3,0.1c-0.4,0.2-0.9,0-1-0.4l0,0
	c-0.2-0.4,0-0.9,0.4-1l0.3-0.1C60.4,89.9,60.8,90.1,61,90.5z M45.7,92.1L45.7,92.1c0.1-0.5,0.5-0.8,0.9-0.7h0.3
	c0.4,0.1,0.7,0.5,0.7,0.9l0,0c-0.1,0.4-0.5,0.7-0.9,0.7h-0.3C45.9,93,45.6,92.6,45.7,92.1z"/>
<path class="st105" d="M27,27.5c6.6-4.9,14.6-7.6,22.8-7.6c16.1,0,29.8,9.9,35.5,23.9 M16.5,39.4c-3.1,5.5-4.9,12-4.9,18.8
	c0,21.1,17.1,38.3,38.3,38.3c19.1,0,35-14.1,37.8-32.5"/>
<path class="st106" d="M80.3,56.6l-3.7,0.1c-0.3,0-0.5-0.2-0.5-0.4c0,0,0,0,0-0.1l0,0c0-0.3,0.2-0.5,0.4-0.5c0,0,0,0,0.1,0l3.7-0.1
	c0.3,0,0.5,0.2,0.5,0.4c0,0,0,0,0,0.1l0,0C80.8,56.4,80.6,56.6,80.3,56.6C80.3,56.6,80.3,56.6,80.3,56.6z M76.5,71.8l-3.2-1.7
	c-0.3-0.1-0.4-0.5-0.2-0.7l0,0c0.1-0.3,0.5-0.4,0.7-0.2l3.2,1.7c0.3,0.1,0.4,0.5,0.2,0.7l0,0C77,71.8,76.7,71.9,76.5,71.8z
	 M65.6,83.2l-2-3.2c-0.2-0.2-0.1-0.6,0.2-0.7l0,0c0.2-0.2,0.6-0.1,0.7,0.2l1.9,3.1c0.2,0.2,0.1,0.6-0.2,0.7l0,0
	C66.1,83.5,65.7,83.4,65.6,83.2z M50.6,87.5l-0.1-3.7c0-0.3,0.2-0.5,0.4-0.5c0,0,0,0,0.1,0l0,0c0.3,0,0.5,0.2,0.5,0.4c0,0,0,0,0,0.1
	l0.1,3.7c0,0.3-0.2,0.5-0.4,0.5c0,0,0,0-0.1,0l0,0C50.9,88,50.6,87.8,50.6,87.5z M35.2,83.6l1.7-3.2c0.1-0.3,0.5-0.4,0.7-0.2l0,0
	c0.3,0.1,0.4,0.5,0.2,0.7l-1.7,3.2c-0.1,0.3-0.5,0.4-0.7,0.2l0,0C35.2,84.2,35.1,83.8,35.2,83.6z M23.9,72.7l3-2.1
	c0.2-0.2,0.6-0.1,0.7,0.1l0,0c0.2,0.2,0.1,0.6-0.1,0.7l-3,2.1c-0.2,0.2-0.6,0.1-0.7-0.1l0,0C23.6,73.2,23.7,72.9,23.9,72.7z
	 M19.5,57.5l3.7-0.1c0.3,0,0.5,0.2,0.5,0.4c0,0,0,0,0,0.1l0,0c0,0.3-0.2,0.5-0.4,0.5c0,0,0,0-0.1,0l-3.7,0.1c-0.3,0-0.5-0.2-0.5-0.4
	c0,0,0,0,0-0.1l0,0C19,57.8,19.2,57.5,19.5,57.5z M23.8,42.3l3.1,1.9c0.2,0.1,0.3,0.5,0.2,0.7l0,0c-0.1,0.2-0.5,0.3-0.7,0.2
	l-3.1-1.9c-0.2-0.1-0.3-0.5-0.2-0.7l0,0C23.2,42.2,23.5,42.1,23.8,42.3z M35.4,34.8l-1.9-3.1c-0.2-0.2-0.1-0.6,0.2-0.7l0,0
	c0.2-0.2,0.6-0.1,0.7,0.2l1.9,3.1c0.2,0.2,0.1,0.6-0.2,0.7l0,0C35.9,35.2,35.5,35.1,35.4,34.8z M48.5,30.6l0.2-3.7
	c0-0.3,0.3-0.5,0.5-0.5l0,0c0.3,0,0.5,0.3,0.5,0.5l-0.2,3.7c0,0.3-0.3,0.5-0.5,0.5l0,0C48.7,31.2,48.4,30.9,48.5,30.6z M62.1,33.5
	l1.7-3.2c0.1-0.3,0.5-0.4,0.7-0.2l0,0c0.3,0.1,0.4,0.5,0.2,0.7L63,34c-0.1,0.3-0.5,0.4-0.7,0.2l0,0C62,34,61.9,33.7,62.1,33.5z
	 M72.2,42.6l3.1-1.9c0.2-0.2,0.6-0.1,0.7,0.2l0,0c0.2,0.2,0.1,0.6-0.2,0.7l-3.1,1.9c-0.2,0.2-0.6,0.1-0.7-0.2l0,0
	C71.9,43.1,71.9,42.8,72.2,42.6z"/>
<path class="st107" d="M51,57.6l22-16.3l0.2,0.3l-22,16.3L51,57.6z"/>
<path class="st108" d="M50.7,58.1l13.6,9.2l4.4,0.7c0,0-2.7-2.8-2.7-3.2C66,64.8,50.7,58.1,50.7,58.1z"/>
<circle class="st106" cx="50.6" cy="58.1" r="0.6"/>
<path class="st108" d="M50.5,57.9l-4.1-12.1l-2.8-9.3L41.7,28l3.1,8.4c0,0,2.1,5.6,2.7,9.3C47.5,45.8,50,57.5,50.5,57.9z"/>
<text transform="matrix(1 0 0 1 62.635 56.145)" class="st109 st110 st111">WORK</text>
<text transform="matrix(1 0 0 1 34.967 41.202)" class="st109 st110 st111">WORK</text>
<text transform="matrix(1 0 0 1 27.004 59.149)" class="st109 st110 st111">WORK</text>
<path class="st108" d="M44.7,79.3c0,0-0.2,0.6,1,0.1c0,0,0.8-0.5,1.1,0v0.1c0.4,0.6,1-0.2,1-0.2s0.8-0.5,1.3,0.4c0,0,0.7,0,0.7-0.2
	s-1.5-0.9-2-0.7l-1.3-0.1C46.3,78.7,45,79,44.7,79.3z"/>
<path class="st112" d="M44.4,79.6c0,0-0.4,0.2,0,0.7c0,0,0.5,0.5,1.2,0.1c0,0,0.9-1.1,1.3,0.2c0,0,0.8,0.1,1.1-0.2
	c0.2-0.4,0.8-0.5,1,0.1c0,0,0.7,0.3,1-0.1c0.4-0.4,0.6-0.3,0.6-0.3s0.1-0.5-0.2-0.5s-0.7,0.5-0.7,0.5s-0.5,0-0.5-0.1s-1-0.8-1.5,0
	c0,0-0.5,0.1-0.6,0s-0.4-0.7-1.6-0.1C45.4,79.9,45.2,80.5,44.4,79.6z"/>
<g>
	<path class="st108" d="M46.6,75.2c0,0,0.5-1.8,2.4-1.6c0,0,0.5-0.3,0.6,0.2c-0.5,1.1-0.1,2.3,0.9,2.9l-1.7-0.9l-1,3.2
		c0,0-0.5,0.4-0.7-0.2l1.3-3.2C48.3,75.6,47.4,75.5,46.6,75.2"/>
	<path class="st108" d="M46.7,77.2l-0.6-0.1l0.2,0.6l-0.5-0.5l-0.1,0.6l-0.1-0.5l-0.4,0.4l0.1-0.6l-0.6,0.2l0.4-0.4l-0.6-0.2
		l0.6-0.1l-0.4-0.4l0.6,0.1l-0.2-0.6l0.4,0.5l0.1-0.6l0.2,0.5l0.4-0.4l-0.1,0.6l0.5-0.2l-0.4,0.4l0.6,0.2l-0.6,0.1L46.7,77.2z"/>
</g>
<circle class="st113" cx="45.7" cy="76.7" r="0.6"/>
<path class="st108" d="M57.2,39c0,0-0.9,0.6-1.3,1.3c0,0-0.3,0.2-0.9-0.4c0,0,0.2,0.7-0.8,1.1c0,0-1.1,0.4-2-1.2s0.3-3.3,0.3-3.3
	s1.5-2.1,4-0.7l0.7,0.7c0,0,0.6-0.9,1.5-1.2c0,0,0.6,1.1-0.5,2.2c0,0-0.4,0.2-0.4,0.7C57.8,38.2,57.9,38.5,57.2,39z"/>
<g>
	<circle class="st109" cx="53.1" cy="38.8" r="0.3"/>
	<circle class="st109" cx="53.3" cy="37.3" r="0.3"/>
	<circle class="st109" cx="54.9" cy="36.5" r="0.3"/>
	<circle class="st109" cx="56.4" cy="37" r="0.3"/>
	<circle class="st114" cx="55.4" cy="39" r="0.3"/>
</g>
<path class="st115" d="M56,39.2c0,0-0.3-0.7,1.5-2.2c0,0,0.6-0.2,0.1,0.6C57.6,37.6,56.5,38.5,56,39.2z"/>
<path class="st116" d="M33.3,50.2h0.2c0.6,0.1,1-0.3,1.1-0.9c0.1-0.5-0.4-1-0.9-1.1h-0.2"/>
<g>
	<path class="st108" d="M29.9,47.7l4,0.1c0,0-0.3,2.5-0.7,2.9s-1.9,0.3-2.7,0C30.4,50.7,29.6,50.4,29.9,47.7z"/>
	<path class="st117" d="M30,50.9c0,0,0.1,0.6,0.7,0.6h3.2c0,0,0.2-0.4-0.4-0.6C32.8,50.7,31.1,50.6,30,50.9z"/>
</g>
<path class="st118" d="M31,48.3c0,0-0.7-0.5-0.6,1c0,0,0,0.6,0.5,1L31,48.3z"/>
<path class="st119" d="M62.7,23.7L64,25c0,0.1-0.1,0-0.1,0h-1.5c-0.3,0-0.5-0.1-0.6-0.3c-0.1-0.1-0.2-0.1-0.3-0.3
	c0,0.1,0.1,0.2,0.1,0.2c0.1,0.1,0.1,0.2,0.2,0.3h-1.7c-0.3,0-0.5,0-0.6-0.3l-0.3-0.3c0,0.1,0,0.2-0.1,0.3s0,0.2-0.1,0.3h-0.6v-0.3
	c0.1-0.2,0.1-0.5,0.2-0.7c0.1-0.3,0.3-0.5,0.7-0.6h0.2c0.3,0.1,0.6,0.1,0.9,0.2c0.1,0,0.2,0.1,0.3,0.2s0.2,0.1,0.3,0
	c0.1-0.2,0.3-0.3,0.5-0.3C61.9,23.6,62.3,23.7,62.7,23.7L62.7,23.7z"/>
<path class="st120" d="M62.5,24h0.2C62.7,24,62.6,23.9,62.5,24z"/>
<path class="st121" d="M53.8,13.6c-0.8-0.1-1.6-0.3-2.3-0.7c-1.3-0.7-1.4-1.9-0.9-3c0.4-0.7,1.4-1,2.1-0.5c0.3,0.2,0.4,0.4,0.4,0.7
	c0,0.2-0.2,0.4-0.4,0.4s-0.4,0-0.6-0.1c0.1,0,0.3-0.1,0.2-0.2S52.1,10,51.9,10c-0.3,0-0.5,0.3-0.5,0.7c0,0.1,0.1,0.2,0.2,0.3
	c0.3,0.3,0.7,0.5,1.1,0.6c0.3,0,0.5-0.1,0.7-0.3c0.2-0.3,0.3-0.7,0.4-1.1C54,9,54,8.1,54.1,7.2c0-1,0.1-1.9,0.4-2.9
	c0.1-0.4,0.3-0.7,0.5-1c0.7-1,1.6-1.4,2.8-1.2c0.2,0,0.5,0.1,0.7,0.2s0.5,0.1,0.7,0.1c0.4,0,0.9,0,1.3,0.1c1.3,0.3,1.8,1.3,1.8,2.4
	c0,0.5,0,0.5-0.6,0.5h-0.9C60,5.2,59.2,5,58.5,4.6c-0.2-0.1-0.4-0.3-0.6-0.5c-0.1-0.1-0.2-0.1-0.2,0c-0.3,0.5-0.5,1-0.8,1.5
	c0,0.1-0.1,0.1-0.1,0.2s-0.1,0.1-0.1,0.1c-0.1,0-0.1-0.1-0.1-0.1c0-0.1-0.1-0.2-0.1-0.3c-0.1-0.2-0.1-0.2-0.2-0.1l-0.1,0.1
	c0,0-0.1,0,0,0.1c0,0.2-0.2,0.4-0.1,0.6c0.1,0.3,0.3,0.5,0.6,0.6c0.1,0,0.2,0.1,0.2,0.2v0.3c0,0,0-0.1,0.1,0s0.1,0.2,0.1,0.3
	c0.1,0,0.1,0.1,0.2,0.2c0.2,0.3,0.5,0.5,0.8,0.7c-0.1-0.1,0-0.1-0.1,0.1c-0.1,0.4-0.3,0.7-0.8,0.7c-0.2,0.1-0.5,0-0.7,0h-0.3
	c-0.5,0-0.9,0.3-1.2,0.7c-0.3,0.5-0.5,1-0.7,1.5l-0.5,1.7C53.9,13.4,53.9,13.5,53.8,13.6z M60.7,12.4c0.1-0.4,0.4-0.4,0.7-0.4H68
	c0,0.1,0,0.1-0.1,0.2l-2.5,4c-0.1,0.2-0.1,0.3-0.1,0.5c0,0.1,0.1,0.3,0,0.4c0,0,0-0.1-0.1-0.1v-0.3c0-0.3,0-0.3-0.3-0.3h-6.4
	c-0.2-0.1-0.1-0.2,0-0.2c0.1-0.2,0.3-0.5,0.4-0.7c0.2-0.3,0.3-0.6,0.5-0.9c0.1-0.1,0.1-0.2,0.2-0.3c0.3-0.6,0.7-1.1,1-1.7
	C60.6,12.5,60.6,12.4,60.7,12.4z"/>
<path class="st122" d="M61.5,19.7C61.5,19.7,61.4,19.7,61.5,19.7c-0.3,0.3-0.6,0.2-0.9,0.1c-1.1-0.4-2.2-0.5-3.4-0.5l-2.1,0.1
	c-0.5,0-1-0.1-1.5-0.4c-0.6-0.3-0.9-0.9-0.7-1.6c0.1-0.2,0.2-0.5,0.3-0.7c0.1-0.1,0.2-0.2,0.2-0.4h0.2c0.8,0.3,1.7,0.5,2.6,0.6h0.3
	c0.1,0,0.2,0,0.2,0.1s-0.1,0-0.2,0.1c0.3,0,0.7-0.1,1,0h0.1c0.1,0,0.1-0.1,0.2-0.1h4.8c0.1,0,0.1,0,0.2,0.1c0,0.1,0.1,0.1,0.2,0.1
	c0.5,0.2,1.1,0.3,1.6,0.6c0.1,0,0.1,0.1,0.2,0.1c-0.1,0-0.1,0.1-0.2,0.1c-0.1,0.1-0.3,0.1-0.4,0.2c-0.3,0.1-0.6,0.3-1,0.5
	c-0.1,0-0.1,0.1-0.1,0.1l-1.3,0.8C61.7,19.6,61.6,19.7,61.5,19.7z"/>
<path class="st123" d="M57.3,9.3c0.5-0.1,0.6-0.4,0.7-0.8V8.3c-0.5-0.2-0.8-0.6-1.1-1l0,0c0-0.1-0.1-0.2-0.1-0.3
	c-0.1,0-0.1-0.1-0.1-0.2s0-0.2-0.1-0.2C56,6.6,55.7,6,56,5.5V5.4c0.3-0.3,0.3-0.3,0.5,0.1c0,0.1,0.1,0.2,0.1,0.4l1.1-2L58,4.2
	c0.7,0.6,1.6,0.9,2.5,1c0.2,0,0.3,0.1,0.5,0.1c0.1,0.4,0.1,0.8,0,1.2c0,0.7-0.4,1.2-0.9,1.6l-0.3,0.3c-0.3,0.2-0.6,0.2-0.9,0.2
	c-0.2,0-0.2,0.1-0.2,0.2v0.1c0,0.2,0.2,0.4,0.4,0.5c0.2,0.3,0.3,0.7,0.3,1.1s-0.2,0.6-0.6,0.6c-0.3,0-0.6-0.2-0.8-0.4
	c-0.3-0.3-0.6-0.7-0.7-1.1C57.2,9.5,57.2,9.4,57.3,9.3z"/>
<path class="st124" d="M53.8,13.6l0.3-1c0.2-0.8,0.5-1.6,0.9-2.3c0.2-0.3,0.3-0.5,0.6-0.7c0.2-0.2,0.4-0.3,0.7-0.3
	c0.5,0,0.7,0.2,0.7,0.7s-0.2,1-0.4,1.4c-0.2,0.6-0.5,1.1-0.8,1.6c-0.1,0.2-0.1,0.2,0.1,0.3l1.9,0.6c0.2,0,0.3,0,0.5,0.2v0.2
	c-0.1,0.2-0.2,0.3-0.3,0.5c-0.1,0.1-0.2,0.3-0.1,0.5c-0.2,0.1-0.4,0.1-0.6,0L55,15.1c-0.3,0-0.5-0.1-0.8-0.2
	c-0.6-0.3-0.5-0.2-0.4-0.8C53.7,14,53.8,13.8,53.8,13.6z"/>
<path class="st125" d="M63.2,18.6c0.5-0.3,0.9-0.5,1.4-0.6c0.5,0.4,0.7,0.9,0.5,1.5C65,19.6,65,19.8,64.9,20v0.2
	c-0.3,0.7-0.7,1.3-1.1,1.9c-0.1,0.1-0.1,0.2-0.2,0.3s-0.1,0.2-0.2,0.3c0,0.1-0.1,0.1-0.1,0.2c-0.1,0.2-0.3,0.5-0.4,0.7
	c0,0.1-0.1,0.1-0.1,0.1c-0.4,0-0.8-0.1-1.2-0.2c-0.1-0.1,0-0.2,0-0.3l1-1.8c0.2-0.5,0.5-1,0.7-1.5c0.1-0.2,0.2-0.5,0.2-0.8
	c0-0.2,0-0.4-0.2-0.5C63.2,18.7,63.2,18.7,63.2,18.6z"/>
<path class="st126" d="M54.1,15c0.3,0,0.6,0.1,1,0.2c0.3,0,0.6,0.1,1,0.1c0.5,0,1,0.1,1.6,0.1h0.2c0.1-0.1,0.3,0,0.4,0
	s0.2,0,0.2,0.1h0.2c0.1,0,0.2-0.1,0.3,0c-0.2,0.3-0.3,0.6-0.5,0.9c-0.1,0.1-0.2,0.1-0.3,0.1h-1.6c0,0-0.1,0-0.1,0.1V17
	c0,0.3,0,0.3-0.3,0.2c-0.8-0.1-1.7-0.3-2.5-0.5c-0.1,0-0.3-0.1-0.4-0.1C53.6,15.9,53.9,15.4,54.1,15z"/>
<path class="st124" d="M60.7,12.4c-0.4,0.6-0.7,1.3-1.1,1.9c-0.1,0-0.1-0.1-0.2-0.2c-0.1-0.3-0.2-0.5-0.2-0.8c0-0.2,0.1-0.2,0.2-0.3
	c0.2,0,0.3-0.1,0.5-0.2c0.5-0.2,0.6-0.6,0.4-1c-0.1-0.3-0.3-0.6-0.5-0.9c-0.3-0.5-0.6-0.9-0.7-1.5c0.1-0.1,0.2,0,0.2,0
	c0.3,0.2,0.6,0.4,0.8,0.8c0,0,0,0.1,0.1,0.2c0.3,0.5,0.3,1.1,0.4,1.7C60.6,12.2,60.6,12.3,60.7,12.4z"/>
<path class="st119" d="M60.1,10.3c-0.2-0.4-0.5-0.7-1-0.9H59c-0.3-0.1-0.4-0.3-0.4-0.5V8.8v0.1c-0.1-0.3-0.1-0.3,0.2-0.3
	c0.5,0,0.9-0.2,1.3-0.4C60.2,8.8,60.1,9.5,60.1,10.3C60.2,10.2,60.2,10.3,60.1,10.3z"/>
<path class="st127" d="M62.9,17.1h-5c-0.1,0-0.1,0-0.1-0.1s0.1-0.1,0.1-0.1h7.5V17C64.5,17.1,63.7,17.1,62.9,17.1z"/>
<path class="st128" d="M60.1,10.3C60.1,10.2,60.1,10.2,60.1,10.3c0.1,0,0.1,0,0.1,0.1L60.1,10.3z"/>
<path class="st129" d="M61.3,6.7L61.3,6.7C61.2,6.8,61.3,6.8,61.3,6.7C61.2,6.7,61.3,6.7,61.3,6.7z"/>
<path class="st123" d="M60.5,23.7c-0.4-0.1-0.8-0.1-1.2-0.2l1.5-2.3c0-0.1,0.1-0.1,0.1-0.2v-0.1c0.2-0.4,0.5-0.8,0.6-1.2l1.3-0.9
	c0.1-0.1,0.2-0.1,0.3-0.2c0.1,0,0.1,0.1,0.2,0.2c0.1,0.2,0.1,0.4,0,0.5c-0.1,0.2-0.1,0.5-0.3,0.7c-0.4,0.8-0.9,1.5-1.4,2.2
	c0,0,0,0.1-0.1,0.1c0,0,0,0.1-0.1,0.1v0.1l-0.2,0.2c0,0.1-0.1,0.1-0.1,0.2c-0.1,0.1-0.2,0.2-0.3,0.4C60.7,23.4,60.6,23.5,60.5,23.7
	C60.6,23.6,60.6,23.7,60.5,23.7z"/>
<path class="st130" d="M59.1,9.4c0.2,0.6,0.5,1.1,0.9,1.6c0.2,0.3,0.5,0.6,0.5,1c0.1,0.3-0.1,0.6-0.4,0.8c-0.2,0.1-0.4,0.2-0.6,0.2
	s-0.2,0.1-0.3,0.2v0.3c-0.1,0.2-0.1,0.5-0.1,0.7h-0.9C58,14.1,57.7,14,57.4,14l-1.7-0.5c-0.2-0.1-0.2-0.1-0.1-0.3
	c0.5-0.8,1-1.7,1.2-2.6c0-0.2,0.1-0.4,0.1-0.5c0-0.3-0.1-0.5-0.4-0.6c-0.1,0-0.1,0-0.2-0.1c0.3-0.1,0.7,0,1-0.1
	c0.1,0.5,0.4,0.9,0.8,1.3v0.1c0,0,0-0.1,0.1-0.1c0.2,0.2,0.5,0.3,0.8,0.4c0.4,0,0.6-0.2,0.5-0.5C59.3,10.1,59.2,9.8,59.1,9.4z"/>
<path class="st131" d="M56.7,6.9c0,0.1,0,0.1,0.1,0.2h-0.1C56.6,7.1,56.7,7,56.7,6.9z"/>
<path class="st120" d="M58.9,4.6C58.8,4.6,58.8,4.5,58.9,4.6L58.9,4.6L58.9,4.6z"/>
<path class="st132" d="M57.7,9C57.6,9,57.6,9,57.7,9V8.9C57.7,8.9,57.8,8.9,57.7,9C57.8,8.9,57.7,9,57.7,9z"/>
<path class="st133" d="M58.1,3.9C58,3.9,58,3.8,58.1,3.9C58,3.8,58.1,3.8,58.1,3.9z"/>
<path class="st134" d="M56.6,5.7c0-0.1,0.1-0.2,0.1-0.3C56.7,5.5,56.7,5.6,56.6,5.7z"/>
<path class="st131" d="M56.7,7.2c0,0.1,0,0.1,0.1,0.2C56.7,7.3,56.6,7.2,56.7,7.2z"/>
<path class="st135" d="M56.1,5.4C56,5.4,56,5.4,56.1,5.4L56.1,5.4C55.9,5.4,56,5.4,56.1,5.4C56,5.3,56,5.4,56.1,5.4z"/>
<path class="st136" d="M57.2,4.7C57.2,4.6,57.2,4.6,57.2,4.7C57.3,4.6,57.2,4.6,57.2,4.7z"/>
<path class="st131" d="M56.9,7.4C56.9,7.4,56.9,7.5,56.9,7.4L56.9,7.4C56.8,7.4,56.8,7.4,56.9,7.4z"/>
<path class="st137" d="M60.9,5.1L60.9,5.1C60.8,5,60.8,5,60.9,5.1z"/>
<path class="st138" d="M56.3,5.1C56.3,5.1,56.2,5.1,56.3,5.1z"/>
<path class="st139" d="M59.6,4.7h-0.2H59.6z"/>
<path class="st140" d="M65.3,17h-6.1c-0.5,0-1,0-1.5-0.1c0,0.1,0.1,0.1,0.1,0.1h-0.1c-0.4,0.1-0.8,0-1.3,0c0,0-0.1,0-0.1-0.1
	c0-0.2-0.1-0.4,0-0.7l0,0v-0.1h8.6c0.2,0,0.3,0.1,0.2,0.2C65.3,16.7,65.3,16.9,65.3,17z"/>
<path class="st123" d="M58.2,14.2c0.3-0.1,0.6-0.1,0.9,0c0.2,0,0.3,0.1,0.4,0.3c-0.1,0.3-0.3,0.6-0.5,0.8h-0.5
	c-0.2-0.1-0.4-0.1-0.6-0.2c-0.2,0-0.2-0.1-0.1-0.2S58,14.5,58.2,14.2z"/>
<path class="st141" d="M59.4,14.6c-0.1-0.1-0.2-0.3-0.4-0.3c0-0.3,0.1-0.7,0.2-1l0.1,0.1c0,0.3,0.2,0.6,0.3,0.9
	C59.6,14.4,59.5,14.5,59.4,14.6z"/>
<path class="st142" d="M56.5,16.4c0,0.2-0.1,0.5,0,0.6c0.1,0.2,0.4,0,0.6,0.1h0.5c-0.2,0.1-0.4,0-0.6,0h-0.3c-0.1-0.1-0.2,0-0.3,0
	h-0.2c0.3,0,0.2-0.1,0.2-0.3C56.4,16.7,56.4,16.5,56.5,16.4C56.5,16.4,56.5,16.3,56.5,16.4C56.5,16.3,56.5,16.3,56.5,16.4z"/>
<path class="st143" d="M56.8,17.2h0.9l-0.1,0.1c-0.2-0.1-0.4,0-0.6,0c-0.1,0-0.3,0.1-0.5,0C56.6,17.2,56.7,17.2,56.8,17.2z"/>
<path class="st144" d="M54.7,17c0.1-0.1,0.1-0.1,0.2-0.1C54.8,17,54.8,17,54.7,17z"/>
<path class="st145" d="M57.9,17.1h0.2C58,17.2,57.9,17.1,57.9,17.1z"/>
<path class="st146" d="M62.5,18.9L62.5,18.9z"/>
<path class="st147" d="M56.5,16.4v0.4C56.4,16.7,56.4,16.5,56.5,16.4z"/>
<path class="st148" d="M58.6,15.9v-0.1V15.9z"/>
<path class="st149" d="M58.4,15.4h0.2C58.6,15.5,58.5,15.5,58.4,15.4z"/>
<path class="st150" d="M58.7,8.9V8.7C58.8,8.8,58.8,8.8,58.7,8.9z"/>
<path class="st151" d="M58,10.6c0,0.1,0,0.1-0.1,0.2C57.9,10.7,57.9,10.7,58,10.6z"/>
<path class="st152" d="M56.5,16.4L56.5,16.4z"/>
</svg>
