<?xml version="1.0" encoding="utf-8"?>
<!-- Generator: Adobe Illustrator 22.0.0, SVG Export Plug-In . SVG Version: 6.00 Build 0)  -->
<svg version="1.1" id="Layer_1" xmlns:v="https://vecta.io/nano"
	 xmlns="http://www.w3.org/2000/svg" xmlns:xlink="http://www.w3.org/1999/xlink" x="0px" y="0px" viewBox="0 0 100 100"
	 style="enable-background:new 0 0 100 100;" xml:space="preserve">
<style type="text/css">
	.st0{fill:#FACCC1;}
	.st1{fill:#4C3229;stroke:#E5A82C;stroke-width:1.974;}
	.st2{fill:#FCC23A;}
	.st3{fill:#FDC73C;}
	.st4{fill:#F8AB1C;}
	.st5{fill:#E04F30;}
	.st6{fill:#8AC164;}
	.st7{fill:#30B5AE;}
	.st8{opacity:0.24;}
	.st9{fill:#141212;}
	.st10{fill:none;stroke:#000000;stroke-width:1.641;stroke-miterlimit:10;}
	.st11{fill:none;stroke:#000000;stroke-width:2;stroke-miterlimit:10;}
	.st12{fill:#020203;}
	.st13{fill:none;stroke:#000000;stroke-width:1.864;stroke-miterlimit:10;}
	.st14{fill:none;stroke:#000000;stroke-width:1.757;stroke-miterlimit:10;}
	.st15{fill:none;stroke:#000000;stroke-width:1.733;stroke-miterlimit:10;}
	.st16{fill:none;stroke:#000000;stroke-width:1.529;stroke-miterlimit:10;}
	.st17{fill:none;stroke:#000000;stroke-width:1.832;stroke-miterlimit:10;}
	.st18{fill:none;stroke:#000000;stroke-width:2.04;stroke-miterlimit:10;}
	.st19{fill:none;stroke:#000000;stroke-width:1.535;stroke-miterlimit:10;}
	.st20{fill:none;stroke:#000000;stroke-miterlimit:10;}
	.st21{fill:none;stroke:#000000;stroke-width:0.812;stroke-miterlimit:10;}
	.st22{fill:#020304;}
	.st23{fill:#333743;}
	.st24{fill:#737174;}
	.st25{fill:#F6A530;}
	.st26{fill:#4FBFD2;}
	.st27{fill:#D99514;}
	.st28{fill:#11A7BE;}
	.st29{fill:#4FBED1;}
	.st30{fill:#343743;}
	.st31{fill:#262835;}
	.st32{fill:#667882;}
	.st33{fill:#3A3946;}
	.st34{fill:#343649;}
	.st35{fill:#323548;}
	.st36{fill:#35364B;}
	.st37{fill:#3F3B48;}
	.st38{fill:#353548;}
	.st39{fill:#38354D;}
	.st40{fill:#32374D;}
	.st41{fill:#37344A;}
	.st42{fill:#262938;}
	.st43{fill:#F5A530;}
	.st44{fill:#F5F5F6;}
	.st45{fill:#3F91A0;}
	.st46{fill:#786E73;}
	.st47{fill:#786E7B;}
	.st48{fill:#3D6B7C;}
	.st49{fill:#72746E;}
	.st50{fill:#10AEC3;}
	.st51{fill:#10A1C1;}
	.st52{fill:#26A5B8;}
	.st53{fill:#343549;}
	.st54{fill:#2B3349;}
	.st55{fill:#0CA4C5;}
	.st56{fill:#2A2232;}
	.st57{fill:#F5ECF4;}
	.st58{fill:#36B6B1;}
	.st59{fill:#0E443C;}
	.st60{fill:#0C443C;}
	.st61{fill:none;stroke:#0E443C;stroke-width:1.615;stroke-miterlimit:10;}
	.st62{fill:none;stroke:#0E443C;stroke-width:3.214;stroke-miterlimit:10;}
	.st63{fill:#13466D;}
	.st64{fill:#C07385;}
	.st65{fill:#143B64;}
	.st66{fill:#1B3156;}
	.st67{fill:#F5ECF4;stroke:#0E443C;stroke-width:0.464;}
	.st68{fill:#FFFFFF;}
	.st69{opacity:0.76;fill:#FFFFFF;enable-background:new    ;}
	.st70{opacity:0.9;fill:#E0DEE5;enable-background:new    ;}
	.st71{fill:#FBFCFD;stroke:#133B64;stroke-width:0.421;stroke-miterlimit:10;}
	.st72{opacity:0.96;fill:#143B64;enable-background:new    ;}
	.st73{opacity:0.76;fill:#FBFCFD;enable-background:new    ;}
	.st74{fill:#747274;}
	.st75{fill:#F6A531;}
	.st76{fill:#50BED2;}
	.st77{fill:#D79514;}
	.st78{fill:#0EA5BD;}
	.st79{fill:#667981;}
	.st80{fill:#EDF6EE;}
	.st81{fill:#08A6BE;}
	.st82{fill:#3A3A47;}
	.st83{fill:#3E3B48;}
	.st84{fill:#33374D;}
	.st85{fill:#262A39;}
	.st86{fill:#F4F3F4;}
	.st87{fill:#40909F;}
	.st88{fill:#796F75;}
	.st89{fill:#796F7C;}
	.st90{fill:#406B7C;}
	.st91{fill:#73756D;}
	.st92{fill:#0DAEC3;}
	.st93{fill:#07A1C1;}
	.st94{fill:#25A4B9;}
	.st95{fill:#2B334A;}
	.st96{fill:#04A3C6;}
	.st97{fill:#292232;}
	.st98{fill:#D2B0A5;}
	.st99{fill:#262C32;}
	.st100{fill:#EDB9A7;}
	.st101{opacity:0.32;fill:#FFFFFF;enable-background:new    ;}
	.st102{fill:#010202;}
	.st103{fill:#121327;}
	.st104{fill:#0F4C75;}
	.st105{fill:#0D3B5B;}
	.st106{fill:#797A84;}
	.st107{fill:#B9D6E4;}
	.st108{fill:#89B9CD;}
	.st109{fill:#224360;}
	.st110{fill:#245176;}
	.st111{fill:#10578A;}
	.st112{fill:#12598C;}
	.st113{opacity:0.86;fill:#FFFFFF;enable-background:new    ;}
	.st114{fill:url(#SVGID_1_);}
	.st115{fill:url(#SVGID_2_);}
	.st116{fill:url(#SVGID_3_);}
	.st117{fill:#6E6E6E;}
	.st118{fill:#F4F0EF;}
	.st119{fill:#757576;}
	.st120{fill:#777777;}
	.st121{fill:#727272;}
	.st122{fill:#727172;}
	.st123{fill:#E1E1E1;}
	.st124{fill:#797979;}
	.st125{fill:#A0314A;}
	.st126{fill:#FACCC1;stroke:#000000;stroke-width:2.837;stroke-miterlimit:10;}
	.st127{fill:#D78A53;stroke:#000000;stroke-width:2.837;stroke-miterlimit:10;}
	.st128{fill:#DBC49A;stroke:#000000;stroke-width:2.837;stroke-miterlimit:10;}
	.st129{fill:#C77B46;}
	.st130{fill:#E09049;}
	.st131{fill:#6897CE;}
	.st132{fill:#5EB888;}
	.st133{fill:#FCC457;}
	.st134{fill:#F7B4A3;}
	.st135{fill:#F2B883;}
	.st136{fill:#D45B9D;}
</style>
<path class="st0" d="M37.3,20.1c0,0,2.9-1.2,4.1-0.8c0,0,0.8,0.1,1.2,2.4c0,0,0.4,3.9-1,9.8L37.3,20.1z"/>
<path d="M1324.6-237.7c-0.1,0.5,0,1.1,0,1.5c0,7.5,6.1,13.5,13.5,13.5s12.5-5.7,13.5-13.5c0.1-0.5,0.1-0.9,0.1-1.5H1324.6z
	 M1393.9-237.6v1.5c0,7.5,6.1,13.5,13.5,13.5c7.5,0,12.5-6.1,13.5-13.5c0.1-0.5,0.1-0.9,0.1-1.5H1393.9z M1368-260.6h8.3v72.3h-8.3
	V-260.6z M1339.7-260.5l-11.5,20.1c-0.4,0.7-1.3,0.8-2.1,0.3l0,0c-0.8-0.5-1.1-1.5-0.7-2.2L1336-261L1339.7-260.5L1339.7-260.5z"/>
<path d="M1340.5-260.9l10.6,18.6c0.4,0.7,0.1,1.7-0.7,2.2l0,0c-0.8,0.5-1.8,0.4-2.1-0.3l-11.5-20.2L1340.5-260.9z M1408.9-260.5
	l-11.5,20c-0.4,0.7-1.4,0.8-2.2,0.2l0,0c-0.8-0.5-1.2-1.5-0.8-2.2l10.5-18.6L1408.9-260.5z"/>
<path d="M1409.6-260.8l10.6,18.5c0.4,0.7,0.1,1.7-0.7,2.2l0,0c-0.8,0.5-1.7,0.4-2.1-0.3l-11.5-20.2L1409.6-260.8L1409.6-260.8z"/>
<path d="M1409.8-260.6h-74c-1.7,0-3-1.3-3-3v-0.4c0-1.7,1.3-3,3-3h74c1.7,0,3,1.3,3,3v0.4C1412.8-261.9,1411.5-260.6,1409.8-260.6z
	 M1351.2-180.7h41.9c0,0-1-7.2-7.3-8.1h-27.6C1358.2-188.8,1351.2-187.3,1351.2-180.7z M1357.7-267.1h29.8c0,0-4.1-4.3-6.5-4.3
	c0,0-0.5-7.7-8.4-7.9s-8.4,7.9-8.4,7.9S1360.7-271,1357.7-267.1z"/>
<circle class="st1" cx="1537.1" cy="-248.3" r="48.9"/>
<g>
	<ellipse class="st2" cx="1509.1" cy="-274.8" rx="5.1" ry="5.3"/>
	<circle class="st2" cx="1561" cy="-274.8" r="4.8"/>
	<path class="st2" d="M1499.4-238.7h74.1v3.3h-74.1V-238.7z M1499.4-233.3h74.1v3.3h-74.1V-233.3z"/>
	<path class="st2" d="M1541.1-223.1h-4l-3.9-0.1l4-6.8l2,3.5L1541.1-223.1z"/>
</g>
<g>
	<path class="st3" d="M1504.2-265.8l-4.5,4.5l-2-2l6.7-6.1h9.5l6.8,5.6l-2,2l-4.6-4.6c0,0-0.3,0.2-0.3,1.1v18.6c0,0-0.1,0.4-0.1,1.5
		v5.3h-2.5v-6.5h-3.8v6.4h-2.5v-6.4c0,0-0.2-0.3-0.2-0.4s0.3-18.3,0.3-18.3S1505.2-266.9,1504.2-265.8z M1556.9-247.7h3v7.4h-3
		V-247.7z M1562.6-247.9h3v7.4h-3V-247.9z"/>
	<path class="st3" d="M1555.1-247.5c0,0,11.2-0.8,13,0l-5.6-18.6c0,0,0-0.6,0.5,0s5.1,5,5.1,5l2-2l-6.5-6.3c0,0-1-1.3-1.1,1h-0.9
		l-0.3-2.1l-0.3,2.2h-0.9c0,0-0.3-2-1.3-1s-6.5,5.7-6.5,5.7l1.9,1.9l5.3-4.3c0,0,0.5-0.2,0.2,1.5
		C1559.4-262.9,1555.1-247.5,1555.1-247.5L1555.1-247.5z"/>
</g>
<path class="st4" d="M1526-43.4l1.3-2.2c0,0-6.4-4.1-6.8-4.9l-1.8,2.2C1518.7-48.4,1522.9-44.5,1526-43.4z M1580.4-48.2l-1.8-1.8
	c0,0-5.6,5.1-6.5,5.3l1.6,2.3C1573.7-42.4,1578.6-45.4,1580.4-48.2L1580.4-48.2z"/>
<path class="st5" d="M1550.5-126.2c0,0-6.5-6.2-10.3,1c-3.8,7.3,7.8,14.1,7.8,14.1s0.8,0.8,2.1,1.5c0,0,2.7-1.9,3.5-2.7
	s5.8-3.5,6.6-7.4s0.6-6.5-2.5-8.3C1554.7-129.8,1551.9-128.2,1550.5-126.2z"/>
<path class="st4" d="M1570.7-118.1c0,0-1.5-0.3-0.1-1c0,0,1.7-0.4,2.3-1.4c0,0,0.9-1.4,1.1-2c0.1-0.5,0.7-1.5,1.2,0
	c0.4,1.4,0.2,1.9,3.6,3.5c0,0,0.8,0.3-0.4,1s-3.1,1.2-3.3,3.3c0,0-0.5,1.4-1,0.1C1574.1-114.6,1573.3-117.4,1570.7-118.1
	L1570.7-118.1z M1521.8-117.1c0,0-1.5-0.3-0.1-1c0,0,1.7-0.4,2.3-1.4c0,0,0.9-1.4,1.1-2c0.1-0.5,0.7-1.5,1.2,0
	c0.4,1.4,0.2,1.9,3.6,3.5c0,0,0.8,0.3-0.4,1s-3.1,1.2-3.3,3.3c0,0-0.5,1.4-1,0.1C1525.2-113.6,1524.5-116.5,1521.8-117.1
	L1521.8-117.1z"/>
<g>
	<path class="st6" d="M1528.1-96.1h44v2.8h-44V-96.1z"/>
	<path class="st6" d="M1525.6-99.8h2.6v9.9h-2.6V-99.8z M1572-99.7h2.5v9.9h-2.5V-99.7z"/>
</g>
<path class="st7" d="M1531.5-93.2V-76c0,0-0.3,2.5,2.5,2.5h7.6c0,0,1.3-0.9,1.3,2.9s-1.3,35.9-1.3,35.9s-0.5,0.7,2.3,0.5
	c0,0,2.4,0.1,2.6-0.1s1-18.7,1-18.7s2-4.4,4.6-0.3l0.9,18.5c0,0-0.2,0.3,0.6,0.6h4.3c0,0,0.4,0.1,0-1.3l-1.4-36.7
	c0,0,0.3-1.8,2.3-1.4h7.9c0,0,1.4-0.3,1.9-1.9v-17.7h-5.2v12.1c0,0,0.6,1.9-1.6,0.9s-4.7-0.9-9.3,0.4c0,0-0.1-0.5,0-0.6
	s3.3-1.8,3-5.3s-2.3-4.7-4.3-5.2s-4.7,0.1-6.3,3c-1.6,3,0.5,6.5,2.4,7.3c0,0,0.3,0.5,0,0.8c0,0-5.8-1.9-8.3-0.7c0,0-2.2,1.2-2.2,0.3
	v-13L1531.5-93.2L1531.5-93.2z"/>
<g class="st8">
	<path class="st9" d="M1498.3-107l22.9-24.4"/>
	<path class="st9" d="M1498.3-95.5l33.7-35.9 M1498.3-83.5l44.8-47.7"/>
	<path class="st9" d="M1498.3-73.3l54.6-58.1"/>
	<path class="st9" d="M1498.3-61.9l65.3-69.5"/>
	<path class="st9" d="M1498.3-51.1l77.3-80.3"/>
	<path class="st9" d="M1498.3-40.5l88.6-90.9 M1498.6-31.2l99.5-100.3 M1509.8-30.9l88.5-88.3 M1523.4-31.4l74.9-78 M1534.8-31.7
		l63.7-66.7 M1545.7-31.4l52.6-56.5 M1554.9-31.4l43.4-46.2 M1565.7-31.4l32.6-34.7"/>
	<path class="st9" d="M1577.1-31.4l21.2-22.5 M1522.7-31.5l-24.4-22.9 M1534.2-31.5l-35.9-33.7 M1546.2-31.5l-47.6-44.8"/>
	<path class="st9" d="M1556.4-31.5l-58.1-54.6 M1567.8-31.5l-69.4-65.3 M1578.6-31.4l-80.2-77.4 M1589.2-31.4l-90.8-88.7
		 M1598.5-31.7l-100.3-99.5 M1598.8-42.9l-88.3-88.6 M1598.3-56.6l-77.9-74.9 M1598-67.9l-66.6-63.7 M1598.3-78.9l-56.5-52.6
		 M1598.3-88l-46.1-43.5 M1598.4-98.8l-34.7-32.7"/>
	<path class="st9" d="M1598.4-110.2l-22.6-21.2"/>
</g>
<g>
	<path class="st4" d="M1588.2-58.6L1586-60c0,0-4.3,6.2-5.1,6.6l2.1,1.9C1583-51.5,1587-55.5,1588.2-58.6z M1592.8-70.4l-2.5-0.7
		c0,0-2.5,7.1-3.2,7.7l2.5,1.2C1589.6-62.2,1592.4-67.1,1592.8-70.4z M1593.9-83.7l-2.6,0.1c0,0,0,7.6-0.5,8.4l2.8,0.3
		C1593.7-74.9,1594.7-80.5,1593.9-83.7L1593.9-83.7z M1590.8-97l-2.4,1c0,0,2.4,7.2,2.2,8.1l2.7-0.6
		C1593.4-88.5,1592.6-94.2,1590.8-97L1590.8-97z M1583-109.1l-2,1.6c0,0,4.5,6.1,4.6,7l2.4-1.4C1588-101.8,1585.6-106.9,1583-109.1z
		 M1515.6-51.4l1.9-1.7c0,0-4.8-5.8-5-6.8l-2.4,1.5C1510.1-58.4,1512.9-53.5,1515.6-51.4z M1507.9-62.5l2.4-0.9c0,0-2.4-7.2-2.2-8.1
		l-2.7,0.5C1505.4-70.9,1506.2-65.3,1507.9-62.5L1507.9-62.5z M1504.4-75.3l2.6-0.3c0,0-0.5-7.5-0.1-8.4l-2.8-0.1
		C1504.1-84.2,1503.4-78.5,1504.4-75.3z M1504.9-88.6l2.5,0.6c0,0,2.1-7.3,2.8-7.9l-2.6-1.1C1507.6-97,1505-91.9,1504.9-88.6
		L1504.9-88.6z M1509.3-100.8l2.2,1.3c0,0,4.1-6.4,4.9-6.8l-2.2-1.8C1514.4-108.1,1510.5-104,1509.3-100.8z"/>
	<path class="st4" d="M1517.3-105.1l-4.7-4.1c0,0-1.2-0.9,0.2-1.9l5.2-0.5c0,0,1.1,0,1.1,1.1l0.2,4.8
		C1519.3-105.7,1518.5-104,1517.3-105.1L1517.3-105.1z M1584.8-109.8l-5.2,3.4c0,0-1.2,0.9-1.8-0.7l1-5.1c0,0,0.3-1.1,1.3-0.7
		l4.7,1.2C1584.8-111.7,1586.2-110.7,1584.8-109.8z"/>
</g>
<g>
	<path class="st10" d="M1338.7-73.8c0,0,2.9-23.3,24.8-32.3 M1420.4-85.5c0,0-8.5-17.1-21.8-20.5 M1381.1-112.3
		c0,0-6.5-8.9-11.8-1.7c-5.3,7.3,3.8,11.7,11.4,21c0,0,9.9-8.3,11.4-10.9c1.5-2.7,4.1-6.3-0.3-11.9
		C1387.7-121.1,1381.1-112.3,1381.1-112.3z"/>
	<path class="st11" d="M1421.8-65.5c0,0-2.4-3.3-4.4-0.6s1.5,4.2,4.2,7.8c0,0,3.7-3.1,4.2-4.1c0.6-1,1.8-2.4-0.1-4.4
		S1421.8-65.5,1421.8-65.5L1421.8-65.5z"/>
</g>
<g>
	<path class="st12" d="M1378.5-106.9l2.2,9v0.2l1.1-2.2v-0.1l-2-8c-0.1-0.2-0.2-0.4-0.4-0.5L1378.5-106.9L1378.5-106.9z"/>
	<path class="st12" d="M1381.8-99.9L1381.8-99.9L1381.8-99.9l3.1-5h1.9l-0.9,1.4l-3.8,6.2c-0.2,0.3-0.6,0.3-1,0.1
		c-0.2-0.1-0.4-0.3-0.5-0.4v-0.2L1381.8-99.9L1381.8-99.9z M1374.6-103.9l2.9-4.6c0.2-0.2,1.6-0.3,2-0.1l0,0l-1,1.7l-2.7,4.2
		c-0.1,0.1-0.2,0.2-0.3,0.2h-0.1C1375.4-102.5,1374.6-103.9,1374.6-103.9z"/>
	<path class="st12" d="M1374.6-103.9h-9.7v1.4h10.6L1374.6-103.9z M1395.5-103.3l-10.6-0.2v-1.4l10.6,0.2V-103.3z"/>
</g>
<g>
	<path class="st11" d="M1428.6-52.8h-13.5c-1,0-1.8-0.8-1.8-1.8c0,0,0,0,0,0v-16.7c0-1,0.8-1.8,1.8-1.8c0,0,0,0,0,0h13.5
		c1,0,1.8,0.8,1.8,1.8c0,0,0,0,0,0v16.7C1430.3-53.5,1429.6-52.8,1428.6-52.8z M1425.4-73.2h-7.1c-0.5,0-1-0.4-1-1v-5.3
		c0-0.5,0.4-1,1-1h7.1c0.5,0,1,0.4,1,1v5.3C1426.3-73.6,1425.9-73.2,1425.4-73.2z M1425.8-45.3h-7.8c-0.3,0-0.6-0.3-0.6-0.6V-52
		c0-0.3,0.3-0.6,0.6-0.6h7.8c0.3,0,0.6,0.3,0.6,0.6v6.1C1426.3-45.6,1426.1-45.3,1425.8-45.3z M1412.5-59.8h-1.5
		c0,0-0.5,0.1-0.5-1.2v-4.6h1.2c0.9,0,1.1-0.1,1.1-0.1"/>
	<path class="st13" d="M1365.5-73.1c0.3-7.2,6.2-13,13.5-13s13.2,5.8,13.5,13"/>
</g>
<path d="M1393.5-71h-28.9v-2.2h28.9V-71z"/>
<path d="M1370.3-76.4h2.2v3.3h-2.2V-76.4z M1377.5-76.4h2.2v3.3h-2.2V-76.4z M1384.2-76.4h2.2v3.3h-2.2V-76.4z"/>
<g>
	<path class="st13" d="M1380.3-48.8h-1.8c-6.2-0.6-10.8-5.1-11.3-11.3l0,0c-0.7-6.2-0.6-7.9-0.6-11.3h25v11.3
		C1391-53.3,1386.5-49.1,1380.3-48.8L1380.3-48.8z"/>
	<g>
		<path class="st14" d="M1392.1-42.7h5.8v19h-5.8V-42.7z"/>
		<path class="st14" d="M1397.9-39h3.6v11.7h-3.6V-39z M1401.6-35.3h4v4.1h-4V-35.3z"/>
	</g>
	<g>
		<path class="st15" d="M1367-22.8h-5.6v-19.1h5.6V-22.8z M1361.3-26.5h-3.5v-11.7h3.5V-26.5z"/>
		<path class="st15" d="M1357.8-30.1h-3.9v-4.1h3.9V-30.1z"/>
	</g>
	<path class="st16" d="M1367-34h24.9v4.4H1367V-34z"/>
	<path class="st17" d="M1374.4-59.4c0.1,2.9,2.4,5.2,5.2,5.2c2.9,0,5.2-2.3,5.2-5.2"/>
	<path class="st11" d="M1377-64.8c0-1.1-1-1.9-2-1.9c-1.1,0-1.9,0.9-1.9,2 M1387.3-64.8c0-1.1-1-1.9-2-1.9c-1.1,0-1.9,0.9-1.9,2
		 M1410.1-35.3c0,0,3.7-3.5,5.2-5.9"/>
	<path class="st18" d="M1349.8-34.5c0,0-8.7-10.2-8.7-14.7"/>
	<path class="st11" d="M1391.6-61.5c0,0-2,9.3,6.3,12v-23c0,0-0.8-4.3-5.8-5"/>
	<path class="st19" d="M1344.2-69.4c0,0-6.1-3.4-9,3.5c-2.9,7,7.2,11.4,7.2,11.4 M1345-69.4c0,0,6.1-3.4,9,3.5
		c2.9,7-7.2,11.4-7.2,11.4"/>
	<path class="st20" d="M1341.7-54.8c0,0,2.3-2.3,5.4-0.7l1,0.5"/>
	<path class="st21" d="M1342.5-54.4c0,0,1.8-1.9,4.1-0.4l0.7,0.5"/>
</g>
<path class="st22" d="M1345-75.6c0,0-2.6,5.6-0.9,7.3c0,0,0.9,0.5,1.4-0.7c0,0-0.4-4.1,1.6-5.6C1347.2-74.6,1346-75.6,1345-75.6z
	 M1341.9-53.8l-1-0.5c-0.3-0.2-0.4-0.6-0.3-0.9l0,0c0.2-0.3,0.6-0.4,0.9-0.3l1,0.5c0.3,0.2,0.4,0.6,0.3,0.9l0,0
	C1342.7-53.8,1342.3-53.7,1341.9-53.8z M1348.4-54.4l-1,0.6c-0.3,0.2-0.7,0.1-0.9-0.2l0,0c-0.2-0.3-0.1-0.7,0.2-0.9l1-0.6
	c0.3-0.2,0.7-0.1,0.9,0.2l0,0C1348.8-55,1348.7-54.6,1348.4-54.4z"/>
<path class="st23" d="M504.9-8.6c-0.8-0.1-1.6-0.4-2.3-0.8c-1.3-0.7-1.4-2-0.9-3.1c0.4-0.7,1.4-1,2.1-0.6c0.3,0.2,0.4,0.4,0.4,0.7
	s-0.2,0.4-0.4,0.5c-0.2,0-0.4,0-0.6-0.1c0.1,0,0.3-0.1,0.2-0.2c-0.1-0.2-0.2-0.3-0.4-0.2c-0.3,0-0.5,0.4-0.5,0.7
	c0,0.1,0.1,0.3,0.2,0.3c0.3,0.3,0.7,0.5,1.1,0.6c0.3,0,0.5-0.1,0.7-0.3c0.2-0.3,0.3-0.7,0.4-1.1c0.2-1,0.2-1.9,0.2-2.9s0.1-2,0.4-3
	c0.1-0.4,0.3-0.7,0.5-1.1c0.7-1,1.6-1.4,2.8-1.3c0.2,0,0.5,0.1,0.7,0.2s0.5,0.1,0.7,0.1c0.4,0,0.9,0,1.3,0.1
	c1.3,0.3,1.8,1.3,1.8,2.5c0,0.5,0,0.5-0.6,0.5h-0.9c-0.8-0.1-1.6-0.3-2.3-0.8c-0.2-0.1-0.4-0.3-0.6-0.5c-0.1-0.1-0.2-0.1-0.2,0
	c-0.3,0.5-0.5,1-0.8,1.5c0,0.1-0.1,0.1-0.1,0.2s-0.1,0.1-0.1,0.1c-0.1,0-0.1-0.1-0.1-0.1c0-0.1-0.1-0.2-0.1-0.3
	c-0.1-0.2-0.1-0.2-0.2-0.1l-0.1,0.1c0,0-0.1,0,0,0.1c0,0.2-0.2,0.4-0.1,0.6c0.1,0.3,0.3,0.5,0.6,0.6c0.1,0,0.2,0.1,0.2,0.2v0.3
	c0,0,0-0.1,0.1,0s0.1,0.2,0.1,0.3c0.1,0,0.1,0.1,0.2,0.2c0.2,0.3,0.5,0.6,0.8,0.7c0.2,0.1,0.2,0.2,0.1,0.4c-0.1,0.4-0.3,0.7-0.8,0.8
	c-0.2,0.1-0.5,0-0.7,0h-0.3c-0.5,0-0.9,0.3-1.2,0.7c-0.3,0.5-0.5,1-0.7,1.5c-0.2,0.6-0.4,1.2-0.5,1.8C505-8.7,505-8.6,504.9-8.6
	L504.9-8.6z M511.8-9.8c0.1-0.4,0.4-0.4,0.7-0.4h6.6c0,0.1,0,0.1-0.1,0.2l-2.5,4.1c-0.1,0.2-0.1,0.3-0.1,0.5c0,0.1,0.1,0.3,0,0.4
	c0,0,0-0.1-0.1-0.1v-0.3c0-0.3,0-0.3-0.3-0.3h-6.4c-0.2-0.1-0.1-0.2,0-0.2c0.1-0.2,0.3-0.5,0.4-0.7c0.2-0.3,0.3-0.6,0.5-0.9
	c0.1-0.1,0.1-0.2,0.2-0.3l1-1.8C511.7-9.7,511.7-9.7,511.8-9.8L511.8-9.8z"/>
<path class="st24" d="M512.6-2.2C512.5-2.2,512.5-2.2,512.6-2.2c-0.3,0.3-0.6,0.2-0.9,0.1c-1.1-0.4-2.2-0.5-3.4-0.5l-2.1,0.1
	c-0.5,0-1-0.1-1.5-0.4c-0.6-0.3-0.9-0.9-0.7-1.7c0.1-0.2,0.2-0.5,0.3-0.7c0.1-0.1,0.2-0.2,0.2-0.4h0.2c0.8,0.3,1.7,0.5,2.6,0.6h0.3
	c0.1,0,0.2,0,0.2,0.1s-0.1,0-0.2,0.1c0.3,0,0.7-0.1,1,0h0.1c0.1,0,0.1-0.1,0.2-0.1h4.8c0.1,0,0.1,0,0.2,0.1c0,0.1,0.1,0.1,0.2,0.1
	c0.5,0.2,1.1,0.3,1.6,0.6c0.1,0,0.1,0.1,0.2,0.1c-0.1,0-0.1,0.1-0.2,0.1c-0.1,0.1-0.2,0.2-0.4,0.2c-0.3,0.1-0.6,0.3-1,0.5
	c-0.1,0-0.1,0.1-0.1,0.1l-1.3,0.8C512.8-2.3,512.7-2.2,512.6-2.2L512.6-2.2z"/>
<path class="st25" d="M508.3-12.9c0.5-0.1,0.6-0.4,0.7-0.8v-0.2c-0.5-0.2-0.8-0.6-1.1-1l0,0c0-0.1-0.1-0.2-0.1-0.3
	c-0.1-0.1-0.1-0.1-0.1-0.2s0-0.2-0.1-0.2c-0.6-0.1-0.9-0.7-0.6-1.2v-0.1c0.3-0.3,0.3-0.3,0.5,0.1c0,0.1,0.1,0.2,0.1,0.4l1.1-2.1
	l0.3,0.3c0.7,0.6,1.6,0.9,2.5,1c0.2,0,0.3,0.1,0.5,0.1c0.1,0.4,0.1,0.8,0,1.3c0,0.7-0.4,1.2-0.9,1.7l-0.3,0.3
	c-0.3,0.2-0.6,0.3-0.9,0.2c-0.2,0-0.2,0.1-0.2,0.2v0.1c0,0.2,0.2,0.4,0.4,0.5c0.2,0.4,0.3,0.7,0.3,1.1s-0.2,0.6-0.6,0.6
	c-0.3,0-0.6-0.2-0.8-0.4c-0.3-0.3-0.6-0.7-0.7-1.1L508.3-12.9L508.3-12.9z"/>
<path class="st26" d="M504.9-8.6l0.3-1c0.2-0.8,0.5-1.6,0.9-2.4c0.2-0.3,0.3-0.5,0.6-0.7c0.2-0.2,0.4-0.3,0.7-0.3
	c0.5,0,0.7,0.2,0.7,0.7s-0.2,1-0.4,1.5c-0.2,0.6-0.5,1.1-0.8,1.7c-0.1,0.2-0.1,0.2,0.1,0.3c0.6,0.3,1.3,0.4,1.9,0.6
	c0.2,0,0.3,0,0.5,0.2v0.2c-0.1,0.2-0.2,0.3-0.3,0.5C509-7.2,508.9-7,509-6.8c-0.2,0.1-0.4,0.1-0.6,0L506.1-7c-0.3,0-0.5-0.1-0.8-0.2
	c-0.6-0.3-0.5-0.2-0.4-0.8C504.8-8.2,504.9-8.4,504.9-8.6L504.9-8.6z"/>
<path class="st27" d="M514.3-3.3c0.5-0.3,0.9-0.5,1.4-0.7c0.5,0.4,0.7,0.9,0.5,1.5c-0.1,0.2-0.1,0.4-0.2,0.6v0.2
	c-0.3,0.7-0.7,1.3-1.1,2c-0.1,0.1-0.1,0.2-0.2,0.3s-0.1,0.2-0.2,0.3c0,0.1-0.1,0.1-0.1,0.2c-0.1,0.2-0.3,0.5-0.4,0.7
	c0,0.1-0.1,0.1-0.1,0.1c-0.4,0-0.8-0.1-1.2-0.2c-0.1-0.1,0-0.2,0-0.3l1-1.9c0.2-0.5,0.5-1,0.7-1.5c0.1-0.3,0.2-0.5,0.2-0.8
	c0-0.2,0-0.4-0.2-0.5H514.3L514.3-3.3z"/>
<path class="st28" d="M505.2-7.1c0.3,0,0.6,0.1,1,0.2c0.3,0,0.6,0.1,1,0.1c0.5,0,1,0.1,1.6,0.1h0.2c0.1-0.1,0.3,0,0.4,0
	s0.2,0,0.2,0.1h0.2c0.1,0,0.2-0.1,0.3,0c-0.2,0.3-0.3,0.6-0.5,0.9c-0.1,0.1-0.2,0.1-0.3,0.1h-1.6c0,0-0.1,0-0.1,0.1v0.4
	c0,0.3,0,0.3-0.3,0.2c-0.8-0.1-1.7-0.3-2.5-0.6c-0.1,0-0.3-0.1-0.4-0.1C504.7-6.1,504.9-6.6,505.2-7.1L505.2-7.1z"/>
<path class="st23" d="M513.8,1.9l1.3,1.3c0,0.1-0.1,0-0.1,0h-1.5c-0.3,0-0.5-0.1-0.6-0.3c-0.1-0.1-0.2-0.1-0.3-0.3
	c0,0.1,0.1,0.2,0.1,0.3c0.1,0.1,0.1,0.2,0.2,0.3h-1.7c-0.3,0-0.5-0.1-0.6-0.3l-0.3-0.3c0,0.1,0,0.2-0.1,0.3s0,0.2-0.1,0.3h-0.6V2.9
	c0.1-0.2,0.1-0.5,0.2-0.7c0.1-0.3,0.3-0.5,0.7-0.6h0.2c0.3,0.1,0.6,0.1,0.9,0.2c0.1,0,0.2,0.1,0.3,0.2s0.2,0.1,0.3,0
	c0.1-0.2,0.3-0.4,0.5-0.3C513,1.8,513.4,1.9,513.8,1.9L513.8,1.9z"/>
<path class="st29" d="M511.8-9.8l-1.1,2c-0.1,0-0.1-0.1-0.2-0.2c-0.1-0.3-0.2-0.6-0.2-0.8s0.1-0.2,0.2-0.3c0.2,0,0.3-0.1,0.5-0.2
	c0.5-0.2,0.6-0.6,0.4-1.1c-0.1-0.3-0.3-0.6-0.5-0.9c-0.3-0.5-0.6-1-0.7-1.6c0.1-0.1,0.2,0,0.2,0c0.3,0.2,0.6,0.5,0.8,0.8
	c0,0.1,0,0.1,0.1,0.2c0.3,0.6,0.3,1.2,0.4,1.7C511.7-10,511.7-9.9,511.8-9.8L511.8-9.8z"/>
<path class="st30" d="M511.2-12c-0.2-0.4-0.5-0.7-1-0.9h-0.1c-0.3-0.1-0.4-0.3-0.4-0.5v-0.1v0.1c-0.1-0.3-0.1-0.3,0.2-0.3
	c0.5,0,0.9-0.2,1.3-0.5V-12z"/>
<path class="st31" d="M513.9-4.9h-5c-0.1,0-0.1,0-0.1-0.1s0.1-0.1,0.1-0.1h7.5V-5C515.6-4.9,514.8-4.9,513.9-4.9z"/>
<path class="st32" d="M511.2-12c0.1,0,0.1,0,0.1,0.1C511.2-11.9,511.2-11.9,511.2-12z"/>
<path class="st25" d="M511.6,1.9c-0.4-0.1-0.8-0.1-1.2-0.2l1.5-2.4c0-0.1,0.1-0.1,0.1-0.2V-1c0.2-0.4,0.5-0.8,0.6-1.2l1.3-0.9
	c0.1-0.1,0.2-0.1,0.3-0.2c0.1,0,0.1,0.1,0.2,0.2c0.1,0.2,0.1,0.4,0,0.5c-0.1,0.2-0.1,0.5-0.3,0.7c-0.4,0.8-0.9,1.5-1.4,2.2
	c0,0,0,0.1-0.1,0.1c0,0,0,0.1-0.1,0.1v0.1l-0.2,0.2c0,0.1-0.1,0.1-0.1,0.2c-0.1,0.1-0.2,0.2-0.3,0.4c-0.1,0.1-0.2,0.2-0.2,0.3
	S511.6,1.9,511.6,1.9z"/>
<path class="st28" d="M510.2-12.9C510.2-12.9,510.2-12.8,510.2-12.9c0.2,0.6,0.5,1.1,0.9,1.6c0.2,0.3,0.5,0.6,0.5,1.1
	c0.1,0.3-0.1,0.7-0.4,0.8c-0.2,0.1-0.4,0.2-0.6,0.2s-0.2,0.1-0.3,0.2v0.3c-0.1,0.2-0.1,0.5-0.1,0.7h-0.9c-0.2-0.1-0.5-0.2-0.8-0.2
	c-0.6-0.2-1.1-0.3-1.7-0.6c-0.2-0.1-0.2-0.1-0.1-0.3c0.5-0.8,1-1.7,1.2-2.7c0-0.2,0.1-0.4,0.1-0.6c0-0.3-0.1-0.5-0.4-0.6
	c-0.1,0-0.1,0-0.2-0.1c0.3-0.1,0.7,0,1-0.1c0.1,0.5,0.4,1,0.8,1.3v0.1c0,0,0-0.1,0.1-0.1c0.2,0.2,0.5,0.4,0.8,0.4
	c0.4,0,0.6-0.2,0.5-0.6C510.4-12.1,510.3-12.5,510.2-12.9z"/>
<path class="st33" d="M507.8-15.4c0,0.1,0,0.1,0.1,0.2h-0.1C507.7-15.3,507.7-15.3,507.8-15.4z"/>
<path class="st34" d="M510-17.8c-0.1,0-0.1-0.1-0.1-0.1h0.1V-17.8z"/>
<path class="st35" d="M508.8-13.3C508.7-13.3,508.7-13.3,508.8-13.3v-0.1V-13.3z"/>
<path class="st34" d="M509.2-18.5c-0.1,0-0.1-0.1-0.1-0.1C509.1-18.7,509.1-18.6,509.2-18.5z"/>
<path class="st36" d="M507.7-16.7c0-0.1,0.1-0.2,0.1-0.3C507.8-16.9,507.8-16.8,507.7-16.7z"/>
<path class="st33" d="M507.8-15.2c0,0.1,0,0.1,0.1,0.2C507.8-15,507.7-15.1,507.8-15.2L507.8-15.2z"/>
<path class="st37" d="M507.1-17H507H507.1z"/>
<path class="st38" d="M508.3-17.7c0-0.1,0-0.1,0.1-0.2C508.4-17.8,508.3-17.8,508.3-17.7z"/>
<path class="st33" d="M507.9-14.9c0,0,0,0.1-0.1,0.1C507.9-14.8,507.9-14.8,507.9-14.9z"/>
<path class="st39" d="M511.9-17.3h-0.1C511.8-17.4,511.9-17.3,511.9-17.3z"/>
<path class="st40" d="M507.4-17.3C507.3-17.3,507.3-17.3,507.4-17.3C507.3-17.3,507.4-17.3,507.4-17.3z"/>
<path class="st41" d="M510.7-17.7h-0.2H510.7z"/>
<path class="st42" d="M516.4-5h-6.1c-0.5,0-1,0-1.5-0.1c0,0.1,0.1,0.1,0.1,0.1h-0.1c-0.4,0.1-0.8,0-1.3,0c0,0-0.1,0-0.1-0.1
	c0-0.2-0.1-0.4,0-0.7l0,0v-0.1h8.6c0.2,0,0.3,0.1,0.2,0.2C516.4-5.3,516.4-5.2,516.4-5z"/>
<path class="st43" d="M509.3-7.9c0.3-0.1,0.6-0.1,0.9,0c0.2,0,0.3,0.2,0.4,0.4c-0.1,0.3-0.3,0.6-0.5,0.9h-0.5
	c-0.2-0.1-0.4-0.1-0.6-0.2c-0.2,0-0.2-0.1-0.1-0.2C509-7.3,509.1-7.6,509.3-7.9L509.3-7.9z"/>
<path class="st44" d="M510.5-7.5c-0.1-0.1-0.2-0.3-0.4-0.4c0-0.3,0.1-0.7,0.2-1l0.1,0.1c0,0.3,0.2,0.7,0.3,1
	C510.6-7.7,510.6-7.6,510.5-7.5z"/>
<path class="st45" d="M507.6-5.6c0,0.2-0.1,0.5,0,0.7s0.4,0,0.6,0.1h0.5c-0.2,0.1-0.4,0-0.6,0h-0.3c-0.1-0.1-0.2,0-0.3,0h-0.2
	c0.3,0,0.2-0.1,0.2-0.3S507.5-5.5,507.6-5.6C507.5-5.7,507.5-5.7,507.6-5.6C507.6-5.7,507.6-5.7,507.6-5.6
	C507.6-5.7,507.6-5.7,507.6-5.6L507.6-5.6z"/>
<path class="st46" d="M507.9-4.8h0.9l-0.1,0.1c-0.2-0.1-0.4,0-0.6,0c-0.1,0-0.3,0.1-0.5,0C507.7-4.8,507.8-4.8,507.9-4.8L507.9-4.8z
	"/>
<path class="st47" d="M505.8-5c0.1-0.1,0.1-0.1,0.2-0.1C505.9-5,505.8-5,505.8-5z"/>
<path class="st48" d="M508.9-4.9h0.2C509.1-4.9,509-4.9,508.9-4.9z"/>
<path class="st49" d="M513.5-3.1L513.5-3.1C513.6-3,513.6-3,513.5-3.1C513.6-3,513.6-3.1,513.5-3.1z"/>
<path class="st50" d="M507.5-5.6v0.4V-5.6z"/>
<path class="st51" d="M509.7-6.2L509.7-6.2L509.7-6.2z"/>
<path class="st52" d="M509.5-6.6L509.5-6.6z"/>
<path class="st53" d="M513.6,2.1h0.2C513.8,2.2,513.7,2.1,513.6,2.1z"/>
<path class="st54" d="M509.8-13.4v-0.2C509.9-13.5,509.8-13.4,509.8-13.4z"/>
<path class="st55" d="M509.1-11.6c0,0.1,0,0.1-0.1,0.2C509-11.5,509-11.6,509.1-11.6z"/>
<path class="st56" d="M507.6-5.6C507.6-5.7,507.6-5.7,507.6-5.6L507.6-5.6z"/>
<g>
	<path class="st57" d="M1356,62.8c0,0,3.9-13.6,10-18.2l24.3,25.2C1390.3,69.8,1356,62.8,1356,62.8z"/>
	<path class="st57" d="M1359.2,85l30.8-15.7l23,25.6c0,0-5.5,6.3-14.8,8.6c0,0-4.8,0.9-9.6,0.9c0,0-5.2-0.2-8.6-1.5s-9.6-3.8-12-6.2
		C1365.7,94.3,1361.3,90.1,1359.2,85z"/>
</g>
<g>
	<path class="st58" d="M1412.8,96.3l-22.4-26.6l17.3-29c0,0,7.2,3.9,11.7,12.5c0,0,2.1,4.5,3.3,9.2c0,0,1.2,5.2,0.9,8.9
		c-0.2,3.7-0.9,10.4-2.5,13.3C1419.5,87.7,1416.8,93.1,1412.8,96.3z M1359.2,84.9l31.1-15.2l-34.3-7
		C1356,62.8,1353,74.4,1359.2,84.9L1359.2,84.9z"/>
	<path class="st58" d="M1365.1,45.4l25.3,24.3l-4.1-34.8C1386.3,34.9,1373.1,36.3,1365.1,45.4L1365.1,45.4z"/>
</g>
<path class="st59" d="M1357.7,51.2c0,0.2-0.1,0.5-0.2,0.7l-0.3,0.6l-2.9-1.5l0.4-0.7c0.4-0.8,1.3-1.1,2.1-0.7c0.1,0,0.1,0.1,0.1,0.1
	C1357.5,50,1357.8,50.6,1357.7,51.2z M1423.9,56.8c-0.2-0.2-0.3-0.4-0.3-0.6l-0.2-0.6l3.1-1l0.2,0.8c0.2,0.9-0.3,1.8-1.1,2
	C1425,57.5,1424.3,57.3,1423.9,56.8z M1429.1,75c0.1,0.2,0.1,0.5,0,0.8l-0.1,0.6l-3.2-0.6l0.2-0.8c0.2-0.9,1-1.5,1.9-1.3
	C1428.5,73.9,1428.9,74.4,1429.1,75z M1365.3,38.4c0.1-0.2,0.3-0.4,0.5-0.6l0.5-0.4l2,2.6l-0.6,0.5c-0.7,0.5-1.7,0.4-2.2-0.3
	C1365.1,39.7,1365.1,39,1365.3,38.4L1365.3,38.4z"/>
<path class="st57" d="M1385.8,35.4l4.5,34.3l20.1-27.7C1410.5,42.1,1397.8,32.9,1385.8,35.4z"/>
<path class="st60" d="M1355.3,69.8L1355.3,69.8c-0.5,0-0.8-0.4-0.8-0.8v-0.3c0-0.4,0.4-0.8,0.8-0.8l0,0c0.4,0,0.8,0.4,0.8,0.8V69
	C1356.1,69.4,1355.8,69.8,1355.3,69.8z"/>
<path class="st61" d="M1355.3,68.9c0.3-18.7,15.6-33.8,34.4-33.8c19,0,34.5,15.4,34.5,34.5c0,15.6-10.3,28.7-24.5,33 M1357.8,82.7
	c4.7,11.5,15.5,19.9,28.5,21.2"/>
<path class="st60" d="M1358.1,83.4L1358.1,83.4c-0.5,0.1-0.9-0.1-1-0.5l-0.1-0.3c-0.1-0.4,0.1-0.9,0.5-1l0,0c0.4-0.1,0.9,0.1,1,0.5
	l0.1,0.3C1358.7,82.8,1358.5,83.2,1358.1,83.4z M1400.7,102.2L1400.7,102.2c0.2,0.4,0,0.9-0.4,1.1l-0.3,0.1c-0.4,0.2-0.9,0-1-0.4
	l0,0c-0.2-0.4,0-0.9,0.4-1l0.3-0.1C1400.1,101.6,1400.6,101.8,1400.7,102.2z M1385.4,103.8L1385.4,103.8c0.1-0.5,0.5-0.8,0.9-0.7
	h0.3c0.4,0.1,0.7,0.5,0.7,0.9l0,0c-0.1,0.4-0.5,0.7-0.9,0.7h-0.3C1385.6,104.6,1385.3,104.2,1385.4,103.8z"/>
<path class="st62" d="M1366.7,39.1c6.6-4.9,14.6-7.6,22.8-7.6c16.1,0,29.8,9.9,35.5,23.9 M1356.2,51.1c-3.1,5.5-4.9,12-4.9,18.8
	c0,21.1,17.1,38.3,38.3,38.3c19.2,0,35.1-14.1,37.9-32.5"/>
<path class="st63" d="M1420,68.3l-3.7,0.1c-0.3,0-0.5-0.2-0.5-0.4c0,0,0,0,0-0.1l0,0c0-0.3,0.2-0.5,0.4-0.5c0,0,0,0,0.1,0l3.7-0.1
	c0.3,0,0.5,0.2,0.5,0.4c0,0,0,0,0,0.1l0,0C1420.5,68,1420.3,68.3,1420,68.3z M1416.2,83.4l-3.2-1.7c-0.3-0.1-0.4-0.5-0.2-0.7l0,0
	c0.1-0.3,0.5-0.4,0.7-0.2l3.2,1.7c0.3,0.1,0.4,0.5,0.2,0.7l0,0C1416.8,83.5,1416.4,83.6,1416.2,83.4z M1405.3,94.8l-1.9-3.1
	c-0.2-0.2-0.1-0.6,0.2-0.7l0,0c0.2-0.2,0.6-0.1,0.7,0.2l1.9,3.1c0.2,0.2,0.1,0.6-0.2,0.7l0,0C1405.8,95.1,1405.5,95,1405.3,94.8z
	 M1390.3,99.1l-0.1-3.7c0-0.3,0.2-0.5,0.4-0.5c0,0,0,0,0.1,0l0,0c0.3,0,0.5,0.2,0.5,0.4c0,0,0,0,0,0.1l0.1,3.7
	c0,0.3-0.2,0.5-0.4,0.5c0,0,0,0-0.1,0l0,0C1390.6,99.6,1390.3,99.4,1390.3,99.1z M1375,95.2l1.7-3.2c0.1-0.3,0.5-0.4,0.7-0.2l0,0
	c0.3,0.1,0.4,0.5,0.2,0.7l-1.7,3.2c-0.1,0.3-0.5,0.4-0.7,0.2l0,0C1374.9,95.8,1374.8,95.5,1375,95.2z M1363.6,84.3l3-2.1
	c0.2-0.2,0.6-0.1,0.7,0.1l0,0c0.2,0.2,0.1,0.6-0.1,0.7l-3,2.1c-0.2,0.2-0.6,0.1-0.7-0.1l0,0C1363.3,84.8,1363.4,84.5,1363.6,84.3z
	 M1359.2,69.2l3.7-0.1c0.3,0,0.5,0.2,0.5,0.4c0,0,0,0,0,0.1l0,0c0,0.3-0.2,0.5-0.4,0.5c0,0,0,0-0.1,0l-3.7,0.1
	c-0.3,0-0.5-0.2-0.5-0.4c0,0,0,0,0-0.1l0,0C1358.7,69.4,1358.9,69.2,1359.2,69.2C1359.2,69.2,1359.2,69.2,1359.2,69.2z M1363.5,53.9
	l3.1,1.9c0.2,0.1,0.3,0.5,0.2,0.7l0,0c-0.1,0.2-0.5,0.3-0.7,0.2l-3.1-1.9c-0.2-0.1-0.3-0.5-0.2-0.7l0,0
	C1362.9,53.9,1363.3,53.8,1363.5,53.9z M1375.1,46.5l-1.9-3.1c-0.2-0.2-0.1-0.6,0.2-0.7l0,0c0.2-0.2,0.6-0.1,0.7,0.2l1.9,3.1
	c0.2,0.2,0.1,0.6-0.2,0.7l0,0C1375.6,46.8,1375.3,46.7,1375.1,46.5z M1388.2,42.3l0.2-3.7c0-0.3,0.3-0.5,0.5-0.5l0,0
	c0.3,0,0.5,0.3,0.5,0.5l-0.2,3.7c0,0.3-0.3,0.5-0.5,0.5l0,0C1388.4,42.8,1388.2,42.5,1388.2,42.3z M1401.8,45.1l1.7-3.2
	c0.1-0.3,0.5-0.4,0.7-0.2l0,0c0.3,0.1,0.4,0.5,0.2,0.7l-1.7,3.2c-0.1,0.3-0.5,0.4-0.7,0.2l0,0C1401.8,45.7,1401.7,45.4,1401.8,45.1z
	 M1411.9,54.3l3.1-1.9c0.2-0.2,0.6-0.1,0.7,0.2l0,0c0.2,0.2,0.1,0.6-0.2,0.7l-3.1,1.9c-0.2,0.2-0.6,0.1-0.7-0.2l0,0
	C1411.6,54.7,1411.7,54.4,1411.9,54.3z"/>
<path class="st64" d="M1390.7,69.3l22-16.3l0.2,0.3l-22,16.3L1390.7,69.3z"/>
<path class="st65" d="M1390.4,69.7l13.6,9.2l4.4,0.7c0,0-2.7-2.8-2.7-3.2L1390.4,69.7z"/>
<circle class="st63" cx="1390.4" cy="69.7" r="0.6"/>
<path class="st65" d="M1390.2,69.5l-4.1-12.1l-2.8-9.3l-1.9-8.6l3.1,8.4c0,0,2.1,5.6,2.7,9.3C1387.2,57.4,1389.8,69.1,1390.2,69.5
	L1390.2,69.5z"/>
<text transform="matrix(1 0 0 1 1402.3669 67.781)" class="st68" style="font-family:'MVBoli'; font-size:3.04px;">WORK</text>
<text transform="matrix(1 0 0 1 1374.699 52.838)" class="st68" style="font-family:'MVBoli'; font-size:3.04px;">WORK</text>
<text transform="matrix(1 0 0 1 1366.736 70.786)" class="st68" style="font-family:'MVBoli'; font-size:3.04px;">WORK</text>
<path class="st65" d="M1384.5,90.9c0,0-0.2,0.6,1,0.1c0,0,0.8-0.5,1.1,0v0.1c0.4,0.6,1-0.2,1-0.2s0.8-0.5,1.3,0.4c0,0,0.7,0,0.7-0.2
	s-1.5-0.9-2-0.7l-1.3-0.1C1386.2,90.3,1384.7,90.7,1384.5,90.9L1384.5,90.9z"/>
<path class="st66" d="M1384.1,91.2c0,0-0.4,0.2,0,0.7c0,0,0.5,0.5,1.2,0.1c0,0,0.9-1.1,1.3,0.2c0,0,0.8,0.1,1.1-0.2
	c0.2-0.4,0.8-0.5,1,0.1c0,0,0.7,0.3,1-0.1c0.4-0.4,0.6-0.3,0.6-0.3s0.1-0.5-0.2-0.5s-0.7,0.5-0.7,0.5s-0.5,0-0.5-0.1s-1-0.8-1.5,0
	c0,0-0.5,0.1-0.6,0s-0.4-0.7-1.6-0.1C1385.1,91.5,1385,92.1,1384.1,91.2L1384.1,91.2z"/>
<path class="st65" d="M1386.3,86.8c0,0,0.5-1.8,2.4-1.6c0,0,0.5-0.3,0.6,0.2c-0.5,1.1-0.1,2.3,0.9,2.9l-1.7-0.9l-1,3.2
	c0,0-0.5,0.4-0.7-0.2l1.3-3.2C1388.1,87.3,1387.1,87.1,1386.3,86.8 M1386.4,88.9l-0.6-0.2l0.2,0.6l-0.4-0.4l-0.1,0.6l-0.2-0.6
	l-0.4,0.4l0.1-0.5l-0.5,0.1l0.4-0.4l-0.6-0.1l0.6-0.2l-0.5-0.4l0.6,0.2l-0.2-0.6l0.4,0.4l0.2-0.6l0.1,0.6l0.4-0.5l-0.1,0.6l0.6-0.2
	l-0.4,0.5l0.5,0.1l-0.5,0.2L1386.4,88.9z"/>
<circle class="st67" cx="1385.5" cy="88.3" r="0.6"/>
<path class="st65" d="M1397,50.6c0,0-0.9,0.6-1.3,1.3c0,0-0.3,0.2-0.9-0.4c0,0,0.2,0.7-0.8,1.1c0,0-1.1,0.4-2-1.2s0.3-3.3,0.3-3.3
	s1.5-2.1,4-0.7l0.7,0.7c0,0,0.6-0.9,1.5-1.2c0,0,0.6,1.1-0.5,2.2c0,0-0.4,0.2-0.4,0.7C1397.5,49.8,1397.6,50.2,1397,50.6L1397,50.6z
	"/>
<g>
	<circle class="st68" cx="1392.8" cy="50.4" r="0.3"/>
	<circle class="st68" cx="1393.1" cy="48.9" r="0.3"/>
	<circle class="st68" cx="1394.6" cy="48.2" r="0.3"/>
	<circle class="st68" cx="1396.1" cy="48.6" r="0.3"/>
	<circle class="st69" cx="1395.1" cy="50.6" r="0.3"/>
</g>
<path class="st70" d="M1395.7,50.9c0,0-0.3-0.7,1.5-2.2c0,0,0.6-0.2,0.1,0.6C1397.4,49.2,1396.2,50.2,1395.7,50.9z"/>
<path class="st71" d="M1373.1,61.8h0.2c0.6,0.1,1.1-0.3,1.1-0.9c0.1-0.5-0.4-1-0.9-1.1h-0.2"/>
<g>
	<path class="st65" d="M1369.6,59.4l4,0.1c0,0-0.3,2.5-0.7,2.9s-1.9,0.3-2.7,0C1370.2,62.3,1369.3,62,1369.6,59.4L1369.6,59.4z"/>
	<path class="st72" d="M1369.7,62.5c0,0,0.1,0.6,0.7,0.6h3.2c0,0,0.2-0.4-0.4-0.6S1370.8,62.2,1369.7,62.5L1369.7,62.5z"/>
</g>
<path class="st73" d="M1370.7,59.9c0,0-0.7-0.5-0.6,1c0,0,0,0.6,0.5,1L1370.7,59.9z"/>
<path class="st30" d="M1402.5,35.4l1.3,1.3c0,0.1-0.1,0-0.1,0h-1.5c-0.3,0-0.5-0.1-0.6-0.3c-0.1-0.1-0.2-0.1-0.3-0.3
	c0,0.1,0.1,0.2,0.1,0.2c0.1,0.1,0.1,0.2,0.2,0.3h-1.7c-0.3,0-0.5,0-0.6-0.3L1399,36c0,0.1,0,0.2-0.1,0.3s0,0.2-0.1,0.3h-0.6v-0.3
	c0.1-0.2,0.1-0.5,0.2-0.7c0.1-0.3,0.3-0.5,0.7-0.6h0.2c0.3,0.1,0.6,0.1,0.9,0.2c0.1,0,0.2,0.1,0.3,0.2s0.2,0.1,0.3,0
	c0.1-0.2,0.3-0.3,0.5-0.3C1401.6,35.2,1402,35.3,1402.5,35.4z"/>
<path class="st53" d="M1402.3,35.6L1402.3,35.6z"/>
<path class="st23" d="M1393.5,25.2c-0.8-0.1-1.6-0.3-2.3-0.7c-1.3-0.7-1.4-1.9-0.9-3c0.4-0.7,1.4-1,2.1-0.5c0.3,0.2,0.4,0.4,0.4,0.7
	c0,0.2-0.2,0.4-0.4,0.4s-0.4,0-0.6-0.1c0.1,0,0.3-0.1,0.2-0.2s-0.2-0.2-0.4-0.2c-0.3,0-0.5,0.3-0.5,0.7c0,0.1,0.1,0.2,0.2,0.3
	c0.3,0.3,0.7,0.5,1.1,0.6c0.3,0,0.5-0.1,0.7-0.3c0.2-0.3,0.3-0.7,0.4-1.1c0.2-0.9,0.2-1.9,0.2-2.8c0-1,0.1-1.9,0.4-2.9
	c0.1-0.4,0.3-0.7,0.5-1c0.7-1,1.6-1.4,2.8-1.2c0.2,0,0.5,0.1,0.7,0.2s0.5,0.1,0.7,0.1c0.4,0,0.9,0,1.3,0.1c1.3,0.3,1.8,1.3,1.8,2.4
	c0,0.5,0,0.5-0.6,0.5h-0.9c-0.8-0.1-1.6-0.3-2.3-0.7c-0.2-0.1-0.4-0.3-0.6-0.5c-0.1-0.1-0.2-0.1-0.2,0c-0.3,0.5-0.5,1-0.8,1.5
	c0,0.1-0.1,0.1-0.1,0.2s-0.1,0.1-0.1,0.1c-0.1,0-0.1-0.1-0.1-0.1c0-0.1-0.1-0.2-0.1-0.3c-0.1-0.2-0.1-0.2-0.2-0.1l-0.1,0.1
	c0,0-0.1,0,0,0.1c0,0.2-0.2,0.4-0.1,0.6c0.1,0.3,0.3,0.5,0.6,0.6c0.1,0,0.2,0.1,0.2,0.2v0.3c0,0,0-0.1,0.1,0s0.1,0.2,0.1,0.3
	c0.1,0,0.1,0.1,0.2,0.2c0.2,0.3,0.5,0.5,0.8,0.7c0.2,0.1,0.2,0.2,0.1,0.4c-0.1,0.4-0.3,0.7-0.8,0.7c-0.2,0.1-0.5,0-0.7,0h-0.3
	c-0.5,0-0.9,0.3-1.2,0.7c-0.3,0.5-0.5,1-0.7,1.5l-0.5,1.7C1393.6,25.1,1393.6,25.2,1393.5,25.2L1393.5,25.2z M1400.4,24
	c0.1-0.4,0.4-0.4,0.7-0.4h6.6c0,0.1,0,0.1-0.1,0.2l-2.5,4c-0.1,0.2-0.1,0.3-0.1,0.5c0,0.1,0.1,0.3,0,0.4c0,0,0-0.1-0.1-0.1v-0.3
	c0-0.3,0-0.3-0.3-0.3h-6.4c-0.2-0.1-0.1-0.2,0-0.2c0.1-0.2,0.3-0.5,0.4-0.7c0.2-0.3,0.3-0.6,0.5-0.9c0.1-0.1,0.1-0.2,0.2-0.3
	c0.3-0.6,0.7-1.1,1-1.7C1400.3,24.1,1400.3,24.1,1400.4,24L1400.4,24z"/>
<path class="st74" d="M1401.2,31.3C1401.2,31.4,1401.2,31.4,1401.2,31.3c-0.3,0.3-0.6,0.2-0.9,0.1c-1.1-0.4-2.2-0.5-3.4-0.5
	l-2.1,0.1c-0.5,0-1-0.1-1.5-0.4c-0.6-0.3-0.9-0.9-0.7-1.6c0.1-0.2,0.2-0.5,0.3-0.7c0.1-0.1,0.2-0.2,0.2-0.4h0.2
	c0.8,0.3,1.7,0.5,2.6,0.6h0.3c0.1,0,0.2,0,0.2,0.1s-0.1,0-0.2,0.1c0.3,0,0.7-0.1,1,0h0.1c0.1,0,0.1-0.1,0.2-0.1h4.8
	c0.1,0,0.1,0,0.2,0.1c0,0.1,0.1,0.1,0.2,0.1c0.5,0.2,1.1,0.3,1.6,0.6c0.1,0,0.1,0.1,0.2,0.1c-0.1,0-0.1,0.1-0.2,0.1
	c-0.1,0.1-0.3,0.1-0.4,0.2c-0.3,0.1-0.6,0.3-1,0.5c-0.1,0-0.1,0.1-0.1,0.1l-1.3,0.8C1401.4,31.3,1401.3,31.3,1401.2,31.3
	L1401.2,31.3z"/>
<path class="st75" d="M1397,21c0.5-0.1,0.6-0.4,0.7-0.8V20c-0.5-0.2-0.8-0.6-1.1-1l0,0c0-0.1-0.1-0.2-0.1-0.3
	c-0.1,0-0.1-0.1-0.1-0.2s0-0.2-0.1-0.2c-0.6-0.1-0.9-0.7-0.6-1.2V17c0.3-0.3,0.3-0.3,0.5,0.1c0,0.1,0.1,0.2,0.1,0.4l1.1-2l0.3,0.3
	c0.7,0.6,1.6,0.9,2.5,1c0.2,0,0.3,0.1,0.5,0.1c0.1,0.4,0.1,0.8,0,1.2c0,0.7-0.4,1.2-0.9,1.6l-0.3,0.3c-0.3,0.2-0.6,0.2-0.9,0.2
	c-0.2,0-0.2,0.1-0.2,0.2v0.1c0,0.2,0.2,0.4,0.4,0.5c0.2,0.3,0.3,0.7,0.3,1.1s-0.2,0.6-0.6,0.6c-0.3,0-0.6-0.2-0.8-0.4
	c-0.3-0.3-0.6-0.7-0.7-1.1C1397,21.1,1396.9,21,1397,21L1397,21z"/>
<path class="st76" d="M1393.5,25.2l0.3-1c0.2-0.8,0.5-1.6,0.9-2.3c0.2-0.3,0.3-0.5,0.6-0.7c0.2-0.2,0.4-0.3,0.7-0.3
	c0.5,0,0.7,0.2,0.7,0.7s-0.2,1-0.4,1.4c-0.2,0.6-0.5,1.1-0.8,1.6c-0.1,0.2-0.1,0.2,0.1,0.3l1.9,0.6c0.2,0,0.3,0,0.5,0.2v0.2
	c-0.1,0.2-0.2,0.3-0.3,0.5c-0.1,0.1-0.2,0.3-0.1,0.5c-0.2,0.1-0.4,0.1-0.6,0l-2.3-0.2c-0.3,0-0.5-0.1-0.8-0.2
	c-0.6-0.3-0.5-0.2-0.4-0.8C1393.4,25.6,1393.5,25.4,1393.5,25.2L1393.5,25.2z"/>
<path class="st77" d="M1402.9,30.3c0.5-0.3,0.9-0.5,1.4-0.6c0.5,0.4,0.7,0.9,0.5,1.5c-0.1,0.2-0.1,0.4-0.2,0.5v0.2
	c-0.3,0.7-0.7,1.3-1.1,1.9c-0.1,0.1-0.1,0.2-0.2,0.3s-0.1,0.2-0.2,0.3c0,0.1-0.1,0.1-0.1,0.2c-0.1,0.2-0.3,0.5-0.4,0.7
	c0,0.1-0.1,0.1-0.1,0.1c-0.4,0-0.8-0.1-1.2-0.2c-0.1-0.1,0-0.2,0-0.3l1-1.8c0.2-0.5,0.5-1,0.7-1.5c0.1-0.2,0.2-0.5,0.2-0.8
	c0-0.2,0-0.4-0.2-0.5H1402.9L1402.9,30.3z"/>
<path class="st78" d="M1393.8,26.6c0.3,0,0.6,0.1,1,0.2c0.3,0,0.6,0.1,1,0.1c0.5,0,1,0.1,1.6,0.1h0.2c0.1-0.1,0.3,0,0.4,0
	s0.2,0,0.2,0.1h0.2c0.1,0,0.2-0.1,0.3,0c-0.2,0.3-0.3,0.6-0.5,0.9c-0.1,0.1-0.2,0.1-0.3,0.1h-1.6c0,0-0.1,0-0.1,0.1v0.4
	c0,0.3,0,0.3-0.3,0.2c-0.8-0.1-1.7-0.3-2.5-0.5c-0.1,0-0.3-0.1-0.4-0.1C1393.4,27.6,1393.6,27.1,1393.8,26.6L1393.8,26.6z"/>
<path class="st76" d="M1400.4,24c-0.4,0.6-0.7,1.3-1.1,1.9c-0.1,0-0.1-0.1-0.2-0.2c-0.1-0.3-0.2-0.5-0.2-0.8c0-0.2,0.1-0.2,0.2-0.3
	c0.2,0,0.3-0.1,0.5-0.2c0.5-0.2,0.6-0.6,0.4-1c-0.1-0.3-0.3-0.6-0.5-0.9c-0.3-0.5-0.6-0.9-0.7-1.5c0.1-0.1,0.2,0,0.2,0
	c0.3,0.2,0.6,0.4,0.8,0.8c0,0,0,0.1,0.1,0.2c0.3,0.5,0.3,1.1,0.4,1.7C1400.4,23.8,1400.4,23.9,1400.4,24L1400.4,24z"/>
<path class="st30" d="M1399.9,21.9c-0.2-0.4-0.5-0.7-1-0.9h-0.1c-0.3-0.1-0.4-0.3-0.4-0.5v-0.1v0.1c-0.1-0.3-0.1-0.3,0.2-0.3
	c0.5,0,0.9-0.2,1.3-0.4C1399.9,20.4,1399.8,21.1,1399.9,21.9z"/>
<path class="st31" d="M1402.6,28.7h-5c-0.1,0-0.1,0-0.1-0.1s0.1-0.1,0.1-0.1h7.5v0.1C1404.2,28.7,1403.4,28.7,1402.6,28.7z"/>
<path class="st79" d="M1399.9,21.9c0.1,0,0.1,0,0.1,0.1C1399.9,22,1399.9,22,1399.9,21.9z"/>
<path class="st80" d="M1401,18.3v0.1V18.3C1401,18.4,1401,18.3,1401,18.3z"/>
<path class="st75" d="M1400.2,35.3c-0.4-0.1-0.8-0.1-1.2-0.2l1.5-2.3c0-0.1,0.1-0.1,0.1-0.2v-0.1c0.2-0.4,0.5-0.8,0.6-1.2l1.3-0.9
	c0.1-0.1,0.2-0.1,0.3-0.2c0.1,0,0.1,0.1,0.2,0.2c0.1,0.2,0.1,0.4,0,0.5c-0.1,0.2-0.1,0.5-0.3,0.7c-0.4,0.8-0.9,1.5-1.4,2.2
	c0,0,0,0.1-0.1,0.1c0,0,0,0.1-0.1,0.1v0.1l-0.2,0.2c0,0.1-0.1,0.1-0.1,0.2c-0.1,0.1-0.2,0.2-0.3,0.4c-0.1,0.1-0.2,0.2-0.2,0.3
	S1400.3,35.3,1400.2,35.3L1400.2,35.3z"/>
<path class="st81" d="M1398.8,21L1398.8,21c0.2,0.6,0.5,1.1,0.9,1.6c0.2,0.3,0.5,0.6,0.5,1c0.1,0.3-0.1,0.6-0.4,0.8
	c-0.2,0.1-0.4,0.2-0.6,0.2s-0.2,0.1-0.3,0.2v0.3c-0.1,0.2-0.1,0.5-0.1,0.7h-0.9c-0.2-0.1-0.5-0.2-0.8-0.2l-1.7-0.5
	c-0.2-0.1-0.2-0.1-0.1-0.3c0.5-0.8,1-1.7,1.2-2.6c0-0.2,0.1-0.4,0.1-0.5c0-0.3-0.1-0.5-0.4-0.6c-0.1,0-0.1,0-0.2-0.1
	c0.3-0.1,0.7,0,1-0.1c0.1,0.5,0.4,0.9,0.8,1.3v0.1c0,0,0-0.1,0.1-0.1c0.2,0.2,0.5,0.3,0.8,0.4c0.4,0,0.6-0.2,0.5-0.5
	C1399.1,21.7,1398.9,21.4,1398.8,21z"/>
<path class="st82" d="M1396.4,18.5c0,0.1,0,0.1,0.1,0.2h-0.1V18.5z"/>
<path class="st53" d="M1398.6,16.3c-0.1,0-0.1-0.1-0.1-0.1h0.1C1398.7,16.2,1398.6,16.2,1398.6,16.3z"/>
<path class="st35" d="M1397.4,20.6v-0.1C1397.4,20.5,1397.5,20.5,1397.4,20.6L1397.4,20.6z"/>
<path class="st34" d="M1397.8,15.5c-0.1,0-0.1-0.1-0.1-0.1C1397.8,15.4,1397.8,15.4,1397.8,15.5z"/>
<path class="st36" d="M1396.3,17.3c0-0.1,0.1-0.2,0.1-0.3C1396.4,17.1,1396.4,17.2,1396.3,17.3z"/>
<path class="st82" d="M1396.4,18.8c0,0.1,0,0.1,0.1,0.2C1396.4,18.9,1396.3,18.9,1396.4,18.8L1396.4,18.8z"/>
<path class="st83" d="M1395.8,17C1395.8,17,1395.8,17.1,1395.8,17L1395.8,17L1395.8,17C1395.7,17,1395.8,17,1395.8,17z"/>
<path class="st38" d="M1396.9,16.3c0-0.1,0-0.1,0.1-0.1C1397,16.2,1397,16.3,1396.9,16.3z"/>
<path class="st82" d="M1396.6,19c0,0,0,0.1-0.1,0.1L1396.6,19C1396.5,19,1396.6,19,1396.6,19z"/>
<path class="st39" d="M1400.6,16.7L1400.6,16.7L1400.6,16.7z"/>
<path class="st84" d="M1396,16.7C1396,16.8,1396,16.7,1396,16.7L1396,16.7z"/>
<path class="st41" d="M1399.3,16.4h-0.2C1399.2,16.3,1399.2,16.3,1399.3,16.4z"/>
<path class="st85" d="M1405.1,28.7h-6.1c-0.5,0-1,0-1.5-0.1c0,0.1,0.1,0.1,0.1,0.1h-0.1c-0.4,0.1-0.8,0-1.3,0c0,0-0.1,0-0.1-0.1
	c0-0.2-0.1-0.4,0-0.7h1.9h-1.9v-0.1h8.6c0.2,0,0.3,0.1,0.2,0.2C1405.1,28.3,1405.1,28.5,1405.1,28.7L1405.1,28.7z"/>
<path class="st75" d="M1397.9,25.9c0.3-0.1,0.6-0.1,0.9,0c0.2,0,0.3,0.1,0.4,0.3c-0.1,0.3-0.3,0.6-0.5,0.8h-0.5
	c-0.2-0.1-0.4-0.1-0.6-0.2c-0.2,0-0.2-0.1-0.1-0.2C1397.6,26.4,1397.8,26.1,1397.9,25.9L1397.9,25.9z"/>
<path class="st86" d="M1399.2,26.2c-0.1-0.1-0.2-0.3-0.4-0.3c0-0.3,0.1-0.7,0.2-1l0.1,0.1c0,0.3,0.2,0.6,0.3,0.9
	C1399.3,26,1399.2,26.1,1399.2,26.2z"/>
<path class="st87" d="M1396.2,28c0,0.2-0.1,0.5,0,0.6c0.1,0.2,0.4,0,0.6,0.1h0.5c-0.2,0.1-0.4,0-0.6,0h-0.3c-0.1-0.1-0.2,0-0.3,0
	h-0.2c0.3,0,0.2-0.1,0.2-0.3C1396.2,28.3,1396.2,28.2,1396.2,28L1396.2,28L1396.2,28z"/>
<path class="st88" d="M1396.5,28.8h0.9l-0.1,0.1c-0.2-0.1-0.4,0-0.6,0c-0.1,0-0.3,0.1-0.5,0C1396.4,28.8,1396.4,28.8,1396.5,28.8
	L1396.5,28.8z"/>
<path class="st89" d="M1394.4,28.6c0.1-0.1,0.1-0.1,0.2-0.1C1394.5,28.7,1394.5,28.7,1394.4,28.6z"/>
<path class="st90" d="M1397.6,28.8C1397.6,28.7,1397.6,28.7,1397.6,28.8L1397.6,28.8z"/>
<path class="st91" d="M1402.2,30.5L1402.2,30.5C1402.3,30.5,1402.2,30.6,1402.2,30.5C1402.2,30.6,1402.2,30.5,1402.2,30.5z"/>
<path class="st92" d="M1396.2,28v0.4C1396.1,28.3,1396.1,28.2,1396.2,28z"/>
<path class="st93" d="M1398.3,27.5v-0.1C1398.4,27.4,1398.4,27.5,1398.3,27.5z"/>
<path class="st94" d="M1398.2,27.1L1398.2,27.1z"/>
<path class="st95" d="M1398.4,20.5v-0.2C1398.5,20.4,1398.5,20.5,1398.4,20.5z"/>
<path class="st96" d="M1397.8,22.3c0,0.1,0,0.1-0.1,0.2C1397.6,22.4,1397.7,22.3,1397.8,22.3L1397.8,22.3z"/>
<path class="st97" d="M1396.2,28L1396.2,28z"/>
<path class="st98" d="M267.8,111.3c0,0-0.2-0.4-0.5-0.4s0.2,0.4,0.2,0.4S267.8,111.6,267.8,111.3z M272.8,113.4c0,0,0.2,0.3,0.4,0.4
	c0.2,0-0.2-0.3-0.2-0.3S272.8,113.2,272.8,113.4L272.8,113.4z"/>
<g>
	<path id="E" class="st99" d="M270.1,110c0,0,0.2-0.2-0.2-0.3c0,0-0.2,0-0.2,0.2c0,0-0.2,0,0-0.5c0.2-0.6,0.5-0.5,0.5-0.5
		s0,0.2,0.2,0.3s0.6,0.3,0.7,0.6c0,0,0.1,0.2,0.1,0.3s-0.1,0.5-0.1,0.7c0,0-0.3,0.3-1,0.3v-0.4c0,0,0.3,0,0.3-0.1s-0.2-0.1-0.2-0.1
		S270.4,110.3,270.1,110L270.1,110z"/>
</g>
<g>
	<path id="F" class="st100" d="M269.7,111.5V111c0,0,0.1-0.1-0.6-0.1c0,0-0.1,0,0-0.3c0,0,0.1,0,0-0.1v-0.1c0,0,0.1,0,0-0.1
		c0,0,0-0.2,0.4-0.4v-0.2c0,0,0.1,0,0.2-0.1c0,0,0.3-0.1,0.3,0.3c0,0,0.4,0.3,0.1,0.5c-0.2,0.2,0,0,0,0s0.5,0.2,0,0.3
		c0,0-0.1,0-0.1,0.4l0.1,0.4L269.7,111.5L269.7,111.5z"/>
</g>
<circle class="st101" cx="269.8" cy="110.1" r="0.1"/>
<circle class="st102" cx="269.8" cy="110" r="0.1"/>
<path class="st103" d="M266.1,116.4c0,0,0.4,0.3,0.4,0.4s0.1,0.2,0.3,0s1.4-1.9,1.4-1.9h1.3l-0.4,1.3c0,0-0.1,0.3,0.1,0.6l1,1.8
	c0,0-0.5,0.2-0.4,0.3c0,0-0.1,0.2,0.4,0c0,0,0.1-0.1,0.3-0.1s0.2,0,0.2-0.2c0,0-0.8-1.9-1-2c0,0-0.1-0.2,0.1-0.4l0.7-1.3
	c0,0-0.8-0.8-1.1-0.9c0,0-0.5,0.3-0.9,0.3l-0.4,0.1c0,0-0.2,0.1-0.3,0.2c0,0-0.1,0.5-0.4,0.8l-0.7,1.1c0,0-0.3-0.3-0.4-0.3
	S266,116.3,266.1,116.4z"/>
<path class="st104" d="M269.4,114.1c0,0,0.2,0.3,0.2,0.5c0,0.1,0.7,0.4,0.9,0.4c0,0,0.1-1.4,0-2.6l1.4,0.2l0.9,1.1
	c0,0,0.1,0,0.2-0.1l-0.7-1.1c0,0-0.1-0.2-0.4-0.3s-1.3-0.3-1.5-0.3c0,0,0-0.4-0.4-0.4c0,0-0.3,0.1-0.4,0.1
	C269.8,111.5,269.3,112.4,269.4,114.1z"/>
<path class="st105" d="M267.5,111.4c0,0-0.1-0.1,0-0.2c0,0,0.1-0.1,0.2,0s0.6,0.7,0.7,0.8c0,0,0.2,0.2,0.3,0.4l0.6-0.3
	c0,0,0.1,0,0.2-0.2c0,0,0-0.2,0.2-0.3c0,0,0,0.3-0.2,0.5l-0.1,2.3c0,0-0.3-0.3,0-1.7c0,0,0-0.3-0.7,0.2
	C268.8,112.8,267.6,111.6,267.5,111.4z"/>
<path class="st106" d="M269.7,113.4c0,0-0.1,0.8,0.1,0.4c0,0,0.1-1.9,0-2.2c0,0-0.1-0.3-0.1,0.3
	C269.7,111.9,269.7,113.4,269.7,113.4z"/>
<path class="st98" d="M264.6,130c0,0,0.2,0.3,0.4,0.4c0.2,0-0.2-0.3-0.2-0.3S264.6,129.7,264.6,130L264.6,130z"/>
<g>
	<path id="E_1_" class="st99" d="M261.8,126.6c0,0,0.2-0.2-0.2-0.3c0,0-0.2,0-0.2,0.2c0,0-0.2,0,0-0.5c0.2-0.6,0.5-0.5,0.5-0.5
		s0,0.2,0.2,0.3s0.6,0.3,0.7,0.6c0,0,0.1,0.2,0.1,0.3s-0.1,0.5-0.1,0.7c0,0-0.3,0.3-1,0.3v-0.4c0,0,0.3,0,0.3-0.1s-0.2-0.1-0.2-0.1
		S262.1,126.9,261.8,126.6L261.8,126.6z"/>
</g>
<g>
	<path id="F_1_" class="st100" d="M261.5,128.1v-0.5c0,0,0.1-0.1-0.6-0.1c0,0-0.1,0,0-0.3c0,0,0.1,0,0-0.1V127c0,0,0.1,0,0-0.1
		c0,0,0-0.2,0.4-0.4v-0.2c0,0,0.1,0,0.2-0.1c0,0,0.3-0.1,0.3,0.3c0,0,0.4,0.3,0.1,0.5c-0.2,0.2,0,0,0,0s0.5,0.2,0,0.3
		c0,0-0.1,0-0.1,0.4l0.1,0.4L261.5,128.1L261.5,128.1z"/>
</g>
<circle class="st101" cx="261.5" cy="126.6" r="0.1"/>
<circle class="st102" cx="261.5" cy="126.6" r="0.1"/>
<path class="st103" d="M257.9,133c0,0,0.4,0.3,0.4,0.4s0.1,0.2,0.3,0s1.4-1.9,1.4-1.9h1.3l-0.4,1.3c0,0-0.1,0.3,0.1,0.6l1,1.8
	c0,0-0.5,0.2-0.4,0.3c0,0-0.1,0.2,0.4,0c0,0,0.1-0.1,0.3-0.1s0.2,0,0.2-0.2c0,0-0.8-1.9-1-2c0,0-0.1-0.2,0.1-0.4l0.7-1.3
	c0,0-0.8-0.8-1.1-0.9c0,0-0.5,0.3-0.9,0.3l-0.4,0.1c0,0-0.2,0.1-0.3,0.2c0,0-0.1,0.5-0.4,0.8l-0.7,1.1c0,0-0.3-0.3-0.4-0.3
	C257.9,132.8,257.7,132.9,257.9,133L257.9,133z"/>
<path class="st104" d="M261.2,130.7c0,0,0.2,0.3,0.2,0.5c0,0.1,0.7,0.4,0.9,0.4c0,0,0.1-1.4,0-2.6l1.4,0.2l0.9,1.1
	c0,0,0.1,0,0.2-0.1l-0.7-1.1c0,0-0.1-0.2-0.4-0.3s-1.3-0.3-1.5-0.3c0,0,0-0.4-0.4-0.4c0,0-0.3,0.1-0.4,0.1
	C261.5,128,261,129,261.2,130.7L261.2,130.7z"/>
<path class="st105" d="M259.3,127.9c0,0-0.1-0.1,0-0.2c0,0,0.1-0.1,0.2,0s0.6,0.7,0.7,0.8c0,0,0.2,0.2,0.3,0.4l0.6-0.3
	c0,0,0.1,0,0.2-0.2c0,0,0-0.2,0.2-0.3c0,0,0,0.3-0.2,0.5l-0.1,2.3c0,0-0.3-0.3,0-1.7c0,0,0-0.3-0.7,0.2
	C260.5,129.4,259.4,128.2,259.3,127.9z"/>
<path class="st106" d="M261.4,129.9c0,0-0.1,0.8,0.1,0.4c0,0,0.1-1.9,0-2.2c0,0-0.1-0.3-0.1,0.3V129.9z"/>
<path class="st98" d="M1565.6,61.3c0,0,0.2,0.4,0.5,0.4s-0.2-0.4-0.2-0.4S1565.6,61,1565.6,61.3z"/>
<path class="st107" d="M1507.3,49.9v56.6h91.2l-23.6-13l-14.2-3.6l-12.2-18.3l-17.4-1.2l-14.4-6.1l11.2-11.1l-1.7-3.3L1507.3,49.9z"
	/>
<path class="st108" d="M1525.5,49.9l1.7,2.6l-10.6,12.2l14.7,5.9l16.9,1.4l12.2,18l12.2,3.2l25.6,13.2l-54.7-56.5L1525.5,49.9z"/>
<path class="st103" d="M1541.1,52.8c0,0-2.3-0.3-2.6,0s-1.1,0.4-1.2-1.1s1-11.1,1-11.1l-4.8-4.2l-2.9,6c0,0-0.4,1.5-2.4,1.7
	l-9.1,3.3c0,0,1.1,2.4,0.6,2.5c0,0-0.6,1-1.4-1.2c0,0-0.2-0.8-0.7-1.2c-0.4-0.4-0.8-0.7,0-1.2c0,0,9-4.3,10-4.4c0,0,0.8-0.5,0.7-1.8
	c0,0,1.1-5.9,1.5-6.9c0,0,5.2-0.3,7,0.3c0,0,0.7,2.5,2.4,4l1.4,1.6c0,0,0.5,1,0.5,1.8c0,0-1.1,2.1-1,4.2c0,0-0.9,6.1-1.1,6.4
	c0,0,2-0.2,2.3,0.1S1541.9,52.8,1541.1,52.8L1541.1,52.8z"/>
<path class="st109" d="M1540.6,22.5c0,0,2,0.2,1.5,2.6c0,0-2.5,5.1-4.7,8c0,0-0.4,0.7-2.5,1.6c0,0,5.4-6.2,5.2-7.7
	C1540.2,27,1542.8,24.1,1540.6,22.5z"/>
<path class="st99" d="M1544.4,16.8c0,0-0.5-1.2,1.5-0.8c0,0,0.6,0.5,0.2,1c0,0,0.8,0.7,1.4-2s-1.8-2.8-1.8-2.8l0,0
	c-1.1,0-3.5,0.3-4.9,1.3c0,0-0.9,0.7-1.2,1.1s-1.3,1.5-1.4,3c0,0,0.3,2,3.1,3.7c0,0,1-1.3,0.9-1.8c0,0-1-0.6-0.7-1.2
	c0.4-0.6,1.3,0.1,1.3,0.1S1542.5,17.2,1544.4,16.8z"/>
<path class="st98" d="M1546.4,41.6c0,0-1.2-2-2.5-2s1.3,2,1.3,2S1546.3,43.2,1546.4,41.6z"/>
<g>
	<path id="G" class="st110" d="M1535.2,26.7c0,0,0.7-0.3,1.2-1.1c0,0,1-0.7,1.6-0.3c0,0,1.9,9.1,2.6,10.1c0,0,3.5,4.2,4.5,4.8
		c0,0,0.5,1.2-0.8,1.2c0,0-4.7-5-5.2-4.9c0,0-3.3-8.6-3.9-9.5"/>
</g>
<path class="st98" d="M1575.7,56.6c0,0-1-1.9-2.2-2s1.1,1.9,1.1,1.9S1575.6,58.1,1575.7,56.6z"/>
<path class="st99" d="M1586.3,50.7c0,0,1-0.8-0.8-1.5c0,0-0.8,0.1-0.8,0.8c0,0-1.1,0.2-0.2-2.4s2.3-2.3,2.3-2.3s-0.1,1,0.9,1.6
	s2.6,1.5,3.2,3.1c0,0,0.4,1.1,0.4,1.6s-0.4,2.2-0.4,3.3c0,0-1.3,1.5-4.6,1.5c0,0-0.2-1.7,0.2-2c0,0,1.2,0,1.2-0.7s-1.1-0.6-1.1-0.6
	S1587.7,52.1,1586.3,50.7L1586.3,50.7z"/>
<g>
	<path id="H" class="st100" d="M1584.8,57.8c0,0-0.2-1.1-0.2-2.3c0,0,0.4-0.4-2.7-0.6c0,0-0.5-0.1,0-1.3c0,0,0.5-0.1,0.2-0.6
		c0,0-0.2-0.5,0-0.7c0,0,0.3,0,0-0.7c0,0-0.2-0.9,1.9-1.7c0,0,0-0.5,0.2-1c0,0,0.6-0.1,0.8-0.4c0,0,1.3-0.6,1.5,1.5
		c0,0,1.8,1.4,0.7,2.5s0,0.2,0,0.2s2.4,1.1-0.2,1.6c0,0-0.6-0.1-0.6,1.7l0.4,1.8H1584.8L1584.8,57.8z"/>
</g>
<circle class="st101" cx="1585" cy="50.8" r="0.6"/>
<circle class="st102" cx="1585" cy="50.8" r="0.3"/>
<path class="st103" d="M1567.7,81c0,0,1.9,1.3,1.9,1.7s0.6,1,1.6,0s6.5-8.8,6.5-8.8h6.3l-1.8,6.3c0,0-0.7,1.4,0.7,2.7l4.6,8.3
	c0,0-2.4,1.1-2.1,1.4c0,0-0.2,1.1,1.8,0c0,0,0.7-0.4,1.3-0.4s1.1-0.1,0.8-0.9c0,0-3.9-9-4.5-9.7c0,0-0.2-0.9,0.6-1.7c0,0,3-5,3.4-6
	c0,0-3.6-3.6-5.3-4.3c0,0-2.2,1.3-4.4,1.3l-2,0.3c0,0-1,0.5-1.6,1c0,0-0.5,2.3-2,3.7c0,0-3.3,5.1-3.3,5.4c0,0-1.3-1.4-1.8-1.4
	S1567.1,80.4,1567.7,81z"/>
<path class="st104" d="M1583.3,70c0,0,1,1.5,1.2,2.2c0.2,0.6,3.1,1.7,4.3,1.7c0,0,0.5-6.5,0-12.3l6.8,1l4.3,5.1c0,0,0.6-0.1,0.9-0.5
	l-3.5-5.3c0,0-0.6-1-1.9-1.5c-1.3-0.4-6-1.6-7-1.6c0,0,0-1.8-1.8-1.8c0,0-1.3,0.5-1.7,0.5C1584.9,57.5,1582.7,61.9,1583.3,70
	L1583.3,70z"/>
<path class="st105" d="M1574.4,57c0,0-0.3-0.7,0-1c0,0,0.5-0.2,0.9-0.1c0.1,0,0.1,0.1,0.2,0.1c0.3,0.3,2.8,3.3,3.4,3.6
	c0,0,1.1,1,1.4,1.7l3-1.5c0,0,0.5-0.1,0.9-0.9c0,0,0-1,0.9-1.4c0,0,0,1.6-0.9,2.2l-0.5,10.8c0,0-1.5-1.5,0-7.9c0,0,0.2-1.5-3.5,1
	C1580.2,63.7,1574.8,58,1574.4,57z"/>
<path class="st106" d="M1584.4,66.5c0,0-0.2,3.8,0.4,1.9c0,0,0.5-8.8,0.2-10.5c0,0-0.3-1.5-0.5,1.2
	C1584.4,61.8,1584.4,66.5,1584.4,66.5z"/>
<path class="st98" d="M1547.8,43.1c0,0-1-1.9-2.2-2s1.1,1.9,1.1,1.9S1547.7,44.5,1547.8,43.1z M1571.4,53.2c0,0,0.8,1.6,1.8,1.7
	s-0.9-1.6-0.9-1.6S1571.5,52,1571.4,53.2z"/>
<path class="st99" d="M1558.4,37.1c0,0,1-0.8-0.8-1.5c0,0-0.8,0.1-0.8,0.8c0,0-1.1,0.2-0.2-2.4s2.9-1.4,2.9-1.4l0,0
	c0.9,0.6,2.8,2.1,3.4,3.8c0,0,0.4,1.1,0.4,1.6s0,2.2-0.4,3.3c0,0-1.3,1.5-4.6,1.5c0,0-0.2-1.7,0.2-2c0,0,1.2,0,1.2-0.7
	s-1.1-0.6-1.1-0.6S1559.8,38.6,1558.4,37.1z"/>
<g>
	<path id="H_1_" class="st100" d="M1556.8,44.3c0,0-0.2-1.1-0.2-2.3c0,0,0.4-0.4-2.7-0.6c0,0-0.5-0.1,0-1.3c0,0,0.5-0.1,0.2-0.6
		c0,0-0.2-0.5,0-0.7c0,0,0.3,0,0-0.7c0,0-0.2-0.9,1.9-1.7c0,0,0-0.5,0.2-1c0,0,0.6-0.1,0.8-0.4c0,0,1.3-0.6,1.5,1.5
		c0,0,1.8,1.4,0.7,2.5s0,0.2,0,0.2s2.4,1.1-0.2,1.6c0,0-0.6-0.1-0.6,1.7l0.4,1.8H1556.8L1556.8,44.3z"/>
</g>
<circle class="st101" cx="1557.1" cy="37.3" r="0.6"/>
<circle class="st102" cx="1557" cy="37.2" r="0.3"/>
<path class="st103" d="M1539.8,67.4c0,0,1.9,1.3,1.9,1.7s0.6,1,1.6,0s6.5-8.8,6.5-8.8h6.3l-1.8,6.3c0,0-0.7,1.4,0.7,2.7l4.6,8.3
	c0,0-2.4,1.1-2.1,1.4c0,0-0.2,1.1,1.8,0c0,0,0.7-0.4,1.3-0.4s1.1-0.1,0.8-0.9c0,0-3.9-9-4.5-9.7c0,0-0.2-0.9,0.6-1.7c0,0,3-5,3.4-6
	c0,0-3.6-3.6-5.3-4.3c0,0-2.2,1.3-4.4,1.3l-2,0.3c0,0-1,0.5-1.6,1c0,0-0.5,2.3-2,3.7c0,0-3.3,5.1-3.3,5.4c0,0-1.3-1.4-1.8-1.4
	S1539.2,66.9,1539.8,67.4z"/>
<path class="st104" d="M1555.4,56.4c0,0,1,1.5,1.2,2.2c0.2,0.6,3.1,1.7,4.3,1.7c0,0,0.5-6.5,0-12.3l6.8,1l4.3,5.1
	c0,0,0.6-0.1,0.9-0.5l-3.5-5.3c0,0-0.6-1-1.9-1.5c-1.3-0.4-6-1.6-7-1.6c0,0,0-1.8-1.8-1.8c0,0-1.3,0.5-1.7,0.5
	C1557,44,1554.7,48.3,1555.4,56.4L1555.4,56.4z"/>
<path class="st105" d="M1546.5,43.4c0,0-0.3-0.7,0-1c0,0,0.5-0.2,0.9-0.1c0.1,0,0.1,0.1,0.2,0.1c0.3,0.3,2.8,3.3,3.4,3.6
	c0,0,1.1,1,1.4,1.7l3-1.5c0,0,0.5-0.1,0.9-0.9c0,0,0-1,0.9-1.4c0,0,0,1.6-0.9,2.2l-0.5,10.8c0,0-1.5-1.5,0-7.9c0,0,0.2-1.5-3.5,1
	C1552.3,50.2,1546.9,44.5,1546.5,43.4z"/>
<path class="st106" d="M1556.5,53c0,0-0.2,3.8,0.4,1.9c0,0,0.5-8.8,0.2-10.5c0,0-0.3-1.5-0.5,1.2C1556.5,48.3,1556.5,53,1556.5,53z"
	/>
<path class="st98" d="M1548.3,39.6c0,0-1.4-1.9-2.7-1.8s1.5,1.9,1.5,1.9S1548.4,41.1,1548.3,39.6z"/>
<path class="st100" d="M1539.4,23.5c0,0,1-0.7,1.9-1.6c0,0,0-0.5,2.4,1.5c0,0,0.4,0.3,1-1c0,0-0.3-0.4,0.3-0.6c0,0,0.5-0.2,0.6-0.5
	c0,0-0.2-0.2,0.5-0.5c0,0,0.8-0.6,0-2.7c0,0,0.4-0.4,0.6-1c0,0-0.3-0.5-0.3-0.9c0,0-0.4-1.4-2.2,0.1c0,0-2.7-0.2-2.5,1.4
	c0.1,0.6-0.2,0.2-0.2,0.2s-2.6-0.9-1.1,1.3c0,0,0.5,0.4-0.9,1.8l-1.5,1L1539.4,23.5L1539.4,23.5z"/>
<circle class="st101" cx="1544.3" cy="18.2" r="0.4"/>
<circle class="st102" cx="1544.3" cy="18.2" r="0.2"/>
<path class="st111" d="M1529.9,33.3l6.4-9.8c1.2-1.8,2.8-2.3,4.3-1.3c0,0,0.9,3.1,0,3.8c0,0-0.6,4.2-6,9.3
	C1534.6,35.3,1531.9,36.5,1529.9,33.3L1529.9,33.3z"/>
<g>
	<path id="G_1_" class="st112" d="M1537,24.7c0,0,0.7-0.3,1.2-1.1c0,0,1-0.7,1.6-0.3c0,0,1.9,9.1,2.6,10.1c0,0,3.5,4.2,4.5,4.8
		c0,0,0.5,1.2-0.8,1.2c0,0-4.7-5-5.2-4.9c0,0-3.3-8.6-3.9-9.5"/>
</g>
<path class="st113" d="M1387.7-432.6c0,0,0.4-0.1,0.2-0.3c-0.1-0.2-2.9-0.1-2.9,0.2S1387.2-432.3,1387.7-432.6L1387.7-432.6z"/>
<linearGradient id="SVGID_1_" gradientUnits="userSpaceOnUse" x1="1359.4" y1="495.35" x2="1421.9" y2="495.35" gradientTransform="matrix(1 0 0 -1 0 102)">
	<stop  offset="0" style="stop-color:#FFFFFF"/>
	<stop  offset="3.300000e-02" style="stop-color:#F9F9F9"/>
	<stop  offset="0.532" style="stop-color:#009FE3"/>
</linearGradient>
<path class="st114" d="M1359.4-370.2h28.7l25.6-24.8l7.3,8.6l0.9-28.8l-25.9-1.3l6,7.1L1359.4-370.2z"/>
<linearGradient id="SVGID_2_" gradientUnits="userSpaceOnUse" x1="1340.0522" y1="488.8829" x2="1416.0753" y2="498.8489" gradientTransform="matrix(1 0 0 -1 0 102)">
	<stop  offset="0" style="stop-color:#FFFFFF"/>
	<stop  offset="3.300000e-02" style="stop-color:#F9F9F9"/>
	<stop  offset="0.532" style="stop-color:#E6007E"/>
</linearGradient>
<path class="st115" d="M1346-371.5L1346-371.5l18.1-17.6l0.4-0.4l12.3-11.9l-6.7-7.8l26.8,0.8v4l-11.4,11.1l-22.6,21.8H1346z"/>
<linearGradient id="SVGID_3_" gradientUnits="userSpaceOnUse" x1="1322.472" y1="486.2429" x2="1386.646" y2="494.6549" gradientTransform="matrix(1 0 0 -1 0 102)">
	<stop  offset="0" style="stop-color:#FFFFFF"/>
	<stop  offset="3.300000e-02" style="stop-color:#F9F9F9"/>
	<stop  offset="0.532" style="stop-color:#3AAA35"/>
</linearGradient>
<path class="st116" d="M1327.5-371.5l22.5-23l-7-8.3l27.6,1.1v6.2l-24.3,24L1327.5-371.5z"/>
<path class="st117" d="M1379.9-412.2c0,0,0.4,0.5-0.2,1.2c0,0-0.4,0.1,0.7,1.1c0,0,0.4,1.8,2.4,1c0,0,0.3-0.5-0.9-1
	c0,0-0.1-1.4-0.4-1.4c0,0,0.5,0.3,0.7,0.1L1379.9-412.2"/>
<path class="st118" d="M1379.9-422.9c0,0-0.4,0.3,0.2,0.7c0,0,0.9,0,1.2-0.2C1381.4-422.4,1381.4-422.7,1379.9-422.9L1379.9-422.9z
	 M1394.9-432.7c0,0-0.5-0.5-1,0.4c0,0,0.1,1.3,0.4,1.8C1394.3-430.4,1394.8-430.3,1394.9-432.7L1394.9-432.7z M1398.4-434.3
	c0,0-0.6-0.2-0.8,0.7c0,0,0.5,1.1,0.9,1.4C1398.5-432.2,1399-432.3,1398.4-434.3z"/>
<g>
	<path class="st119" d="M1379.7-412.1l2.4,0.8l2.7-5.6c0.3-1,0.9-4.4,1.1-4.6s-0.2,0.2-0.2,0.2s4.5,0.2,4.5,0.5c0,0,1.4,3.7,1.9,4.2
		c0,0,0.4-0.2,0.7,1.1c0.3,1.4,2.6-1.5,1.8-0.7c0,0,1.8-0.3,2.4-0.8c0.6-0.6-1.5-0.7-2.5-0.6c0,0-1.5-5.3-2.8-6c0,0-2.4-0.9-3.9-1.1
		c0,0-0.6-2.1,0-3.4c0,0,0.7-1.1,0.7-1.3s0,0.2,0,0.2s2.8,0,3.9-0.4s1.7-0.9,2-0.6l-0.2-2.3c0,0-2.2,0.9-2.7,0.9c0,0-1.9,0-2.4-0.4
		c0,0-1.6-0.8-2.9-0.2c0,0-2.3-0.4-3.3,0.6h-0.1c0,0-0.7,0.1-0.9,1.2c0,0-1.5,2.9-1.7,3.9l-0.3,3.8c0,0,0.2,0.4,1.8,0.4
		c0,0-0.3-2.2,0.2-3.1c0,0,0.2-0.9,0.7-1.3c0,0,0.7-0.9-0.2,4.7c0,0-0.5,0.4,0,1.5l-0.3,3.6C1381.8-417.1,1379.2-413.2,1379.7-412.1
		L1379.7-412.1z"/>
	<path class="st119" d="M1379.8-422.2c0,0-0.4,1,0,1.6c0,0,0.9,1,1.1,0.1c0,0,0.5,0.1-0.1-1.1c0,0,0.2-0.2,0.6,0.3
		c0,0,0.7,0.6-0.2-0.9C1381.1-422.1,1380.1-422.5,1379.8-422.2z"/>
</g>
<path class="st120" d="M1385.2-432.5c0,0-1,0.1-1.8-2.5c0,0,0.6-3.1,3.8-1.4c0,0,0.5,0.6,0.5,1.9c0,0,0,0.5,0.4,0.7c0,0-0.1,0.9,0,1
	S1385.2-432.5,1385.2-432.5z"/>
<path class="st121" d="M1394.5-432.1l0.2,0.8c0,0,0.4-0.2,1,0.1s1.6-0.3,2.2-1.2c0,0,0-0.1,0.4-0.6c0,0-0.2-0.5-0.6-0.7
	c0,0,0,0.2-0.3,0.3c0,0-0.5,0.3-0.6-0.1l-1,0.3c0,0,0.1-0.1-0.3,0.5C1395.3-432.7,1394.8-431.8,1394.5-432.1L1394.5-432.1z"/>
<path class="st122" d="M1398.1-434.3c0,0,0.5,1.1,0.5,1.7s1.4-0.3,1.4-0.3l4.3-3.4c0,0,1.6,3.9,1.3,6.1s0,0,0,0s0.2,0.4-1.7,5.3
	c0,0-0.6,1,0,4.4c0,0,0.7,1.8,0,2.5s-1.2,0.8-2,0.8s-0.7,1.3-0.1,1.3s1.7,0,2.4-0.4c0,0,0.3-0.1,0.8,0.4s1.4,0.1,1.1-0.6
	c0,0,0.5,0,0.7-0.2v-7.5c0,0,1.7-1.8,2-2.6c0,0,3.8,9.4,4.7,9.7c0,0-0.3,0.6-1.6,0.9c0,0-0.7,1,0.7,0.9c1.3-0.1,2.5-0.9,3.1-0.9
	c0,0,1.7-0.5,0.8-1.1c0,0-0.3-0.5-0.3-0.9c0,0-5-10.7-4.8-11.3c0,0,0.2-0.7,0.9-0.5c0,0,0.4,0,0-0.7c0,0-1.6-4.9-2-5.3
	c0,0-0.6-1.5-0.1-1.9c0,0,1.9,0.1,3.4,3.3c0,0,1.2-1,1.8-1.1c0,0-2.5-3.7-2.9-3.7c0,0-2.7-2.4-3.7-2.4c0,0-1.9,0-2-0.1
	c0,0-0.5,1.2-0.9,1.5c0,0-1.8,0.5-2.1,0.2c0,0-1.3,2.6-2.4,3.5C1400.2-435.9,1399-434.7,1398.1-434.3L1398.1-434.3z"/>
<path class="st123" d="M1404-441c0,0,0.2,0.7,1.1,0c0,0,0.6-0.5,0.7-1.2h0.9c0,0-0.5,1-0.8,1.3c0,0,0.2,6.1-0.3,7c0,0,0,0.2-0.3,0.5
	c0,0-0.3-2.5-0.7-2.8c-0.3-0.3-1-3-0.7-3.4c0,0,1.5-0.2,1-0.6C1405.1-440.1,1403.3-440.3,1404-441L1404-441z"/>
<path class="st124" d="M1401.1-443.9c0,0,0-1.5,2.4-1.9c0,0,2.3-0.5,2.7,2.1c0,0,0.2,1.5-0.3,1.5c0,0,0.2,0.9-0.9,1.3
	c0,0-0.9,0.9-0.9-0.2c0,0-0.9,1.1-1.1,0.5c-0.2-0.5-0.2-0.9-0.2-0.9s-0.4-0.3-0.8-0.1c0,0-0.3,0.1,0-1
	C1402-442.4,1401.5-443.9,1401.1-443.9L1401.1-443.9z"/>
<path class="st125" d="M1405.6-439.8c0,0,0.2-0.3-0.4-0.5s-0.9,1.2,0,0.9c-0.1,0.9-0.1,1.9,0,2.8c0,0-0.2,1.5,0.3,3.3
	c0,0,1.2-0.5,0.6-3.3c0,0-0.4-2.1-0.2-2.3C1405.8-438.8,1405.7-439.6,1405.6-439.8z"/>
<g>
	<path class="st126" d="M42.8,34L42.8,34l-0.7,4.3c0,0-0.6,2.7-1.6,3.7c0,0-7.7,3.2-7.7,7.5v26.8H13V49.7c0,0,0.4-5.3-4.3-7.1
		c-4.6-1.8-4.9-9-4.9-9V18.3c0,0,0.6-4.7,5.7-3.3c0,0,1.7,0.3,1.7,5.4v-6.8c0,0,0.9-3.5,3.7-3.7c0,0,3.1,0.1,4,2.1l0.3,8.2V9.9
		c0,0,1.1-3.7,3.7-3.9s4.5,1.7,4.5,1.7v13.6l0.1-13.7c0,0,0.6-2.7,2.5-3.2c0,0,2.2-1,5.2,1.1V14"/>
	<path class="st127" d="M75.7,88.8H49.2c0,0-5.3-0.4-7.1,4.3s-9,4.9-9,4.9H17.8c0,0-4.7-0.6-3.3-5.7c0,0,0.3-1.7,5.4-1.7h-6.8
		c0,0-3.5-0.9-3.7-3.7c0,0,0.1-3.1,2.1-4l8.2-0.3H9.4c0,0-3.7-1.1-3.9-3.7s1.7-4.5,1.7-4.5h13.6L7.2,74.3c0,0-2.7-0.6-3.2-2.5
		c0,0-1-2.2,1.1-5.2h18.1c0,0-3.2-0.6-4.2-1.5s-2-2.4-1.5-5.3c0,0,1-2.4,5-2.1c4.1,0.2,15.3,2,15.3,2s2.7,0.7,3.7,1.7
		c0,0,3.2,7.7,7.4,7.7h26.8V88.8z"/>
	<path class="st128" d="M89.2,26.4L89,52.8c0,0-0.4,5.3,4.2,7.1s4.8,9,4.8,9l-0.1,15.3c0,0-0.7,4.7-5.7,3.3c0,0-1.7-0.3-1.7-5.4v6.8
		c0,0-1,3.5-3.7,3.7c0,0-3.1-0.2-3.9-2.2l-0.2-8.2l-0.1,10.3c0,0-1.1,3.7-3.7,3.9s-4.5-1.7-4.5-1.7l0.1-13.6l-0.2,13.7
		c0,0-0.6,2.7-2.5,3.2c0,0-2.2,1-5.2-1.1l0.1-18.1c0,0-0.6,3.2-1.5,4.2s-2.5,2-5.3,1.5c0,0-2.4-1-2.1-5.1s2.1-15.3,2.1-15.3
		s0.7-2.7,1.7-3.7c0,0,7.8-3.1,7.8-7.4l0.2-26.8L89.2,26.4L89.2,26.4z"/>
	<path class="st127" d="M96.7,36.4h-18c0,0,3.2,0.6,4.2,1.5c1,1,2,2.4,1.5,5.3c0,0-1,2.4-5,2.1c-4.2-0.2-15.4-2-15.4-2
		s-2.7-0.6-3.7-1.7c0,0-3.2-7.7-7.4-7.7H42.7c0.6-3.6,1.3-8.6,1.4-11c0.2-4.1-2.1-5.1-2.1-5.1c-2.5-0.5-5.9,1.1-6.8,1.9v-6.1
		l17.4,0.6c0,0,5.3,0.4,7.1-4.3s9-4.9,9-4.9H84c0,0,4.7,0.6,3.3,5.7c0,0-0.3,1.7-5.4,1.7h6.8c0,0,3.5,0.9,3.7,3.7c0,0-0.1,3.1-2.1,4
		L82,20.4h10.3c0,0,3.7,1.1,3.9,3.7s-1.7,4.5-1.7,4.5H80.9l13.7,0.1c0,0,2.7,0.6,3.2,2.5C97.8,31.2,98.8,33.3,96.7,36.4z"/>
</g>
<path class="st129" d="M45.3,29.9c0,0-1.3,2.1,0,2.1l9.1,0.1c0,0,4.3,1.3,6.3,6.3c0,0,2,2.9,5.3,3.7c4.1,0.9,10.6,1.9,15.9,1.1
	c0,0,2-2.7-0.6-2.4c0,0-13.1,0.3-15.9-1.7l-5.2-7.4c0,0-1.4-1.6-5.1-1.6S45.3,29.9,45.3,29.9z"/>
<path class="st130" d="M56.5,73.7c0,0,1.3-2.1,0.1-2.1l-9.1-0.2c0,0-4.3-1.3-6.2-6.3c0,0-2-2.9-5.3-3.7c-4.1-1-10.5-2-15.9-1.2
	c0,0-2.1,2.7,0.5,2.4c0,0,13.1-0.2,15.9,1.8l5.2,7.5c0,0,1.4,1.6,5.1,1.6C50.5,73.4,56.5,73.7,56.5,73.7z"/>
<path class="st129" d="M275.6,120.3c0,0-1.3,2.1,0,2.1l9.1,0.1c0,0,4.3,1.3,6.3,6.3c0,0,2,2.9,5.3,3.7c4.1,0.9,10.6,1.9,15.9,1.1
	c0,0,2-2.7-0.6-2.4c0,0-13.1,0.3-15.9-1.7l-5.2-7.4c0,0-1.4-1.6-5.1-1.6C281.6,120.5,275.6,120.3,275.6,120.3L275.6,120.3z"/>
<path class="st12" d="M9.8,20.4c0,0,0.4,1.1,1.6,0.9c0,0,0.9,0,1.2-0.9H9.8z M81.9,11c0,0-1.1,0.4-0.9,1.6c0,0,0,0.9,0.9,1.2
	 M82.1,19c0,0-1.1,0.4-0.9,1.6c0,0,0,0.9,0.9,1.2 M80.9,27.1c0,0-1.1,0.4-0.9,1.6c0,0,0,0.9,0.9,1.2 M78.6,35c0,0-1.1,0.4-1,1.6
	c0,0-0.1,0.9,0.8,1.3C78.4,37.8,78.8,35.5,78.6,35z M17.7,20.2c0,0,0.4,1.1,1.6,0.9c0,0,0.9,0,1.2-0.9 M25.9,21.3
	c0.3,0.6,0.9,1,1.6,0.9c0,0,0.9,0.1,1.2-0.9 M20.8,75.8c0,0,1.1-0.3,0.9-1.6c0,0,0.1-0.9-0.9-1.2 M19.7,84c0,0,1-0.4,0.8-1.6
	c0,0,0-0.9-0.9-1.2 M67.9,78.8c0,0-0.3-1-1.5-0.9c0,0-0.9-0.2-1.3,0.7 M75.8,81.1c0,0-0.1-0.8-1.6-0.8c0,0-0.9-0.1-1.3,0.7 M84,82.3
	c0,0-0.1-0.7-1.6-0.7c0,0-0.9-0.1-1.2,0.7 M91.9,82.2c0,0-0.1-0.8-1.6-0.8c0,0-0.9-0.1-1.3,0.7 M19.9,92c0,0,1.1-0.4,0.9-1.6
	c0,0,0.1-0.9-0.9-1.2 M33.7,22.9c0,0,0.1,1.8,1.4,1.7c0,0,1.1,0,1.4-1.1v-3.3 M30.8,68c0,0,1.8,0,1.8-1.4c0,0,0.1-1.1-1.1-1.4
	l-3.3-0.1h-5.1 M48.5,15.4h3v17.2h-3V15.4z M48.9,70.3h3v17.2h-3V70.3z"/>
<path class="st131" d="M44.4,32.5h4.2V15.4L36.2,15v2.3l2.6-0.3c1.1-0.1,2.7,0.1,3.3,0.3c0,0,1.5,0.5,2.4,2.1s1,4,0.9,4
	C45.4,23.5,44.7,31.2,44.4,32.5z"/>
<path class="st132" d="M57.5,70.3h-5.6v17.2H65v-2.7c0,0-1.4,0.7-2.4,0.9s-3-0.2-3.6-0.4c0,0-1.4-0.4-2.3-2.2
	c-0.8-1.7-0.6-3.9-0.6-3.9S57.5,70.3,57.5,70.3z"/>
<path class="st133" d="M31.4,57.6L31.3,52l-17.2,0.3l0.3,13.1l3.2-0.1c0,0-1.3-1.4-1.5-2.4c-0.1-1.1,0.1-3,0.3-3.6
	c0,0,0.4-1.5,2.2-2.3c1.7-0.8,3.9-0.6,3.9-0.6S31.4,57.6,31.4,57.6z"/>
<path class="st134" d="M28.3,56.4c0,0,2.6,1.3,2.6,0.1l0.1-8.9c0,0,0.9-4.3,5.9-6.3c0,0,2.9-2,3.7-5.3c1-4,2-10.4,1.1-15.7
	c0,0-2.7-2-2.4,0.6c0,0-0.7,13.9-2,14.8c0,0-5.9,5.2-7.2,6.1c0,0-1.6,1.4-1.6,5.1C28.5,50.4,28.3,56.4,28.3,56.4z"/>
<path class="st12" d="M14.2,53v-3h17.2v3H14.2z"/>
<path class="st135" d="M85.2,48.6c0,0-1.8,9.8,4.2,13.4c0,0,4.7,3.3,4.7,6.1c0,0-0.3,14.6,0.6,15.5c0,0,0.4,0.4,1.1-0.3
	c0,0,0.5-16,0-16.4c0,0,0.5-2.8-5.6-6.3c0,0-4.7-3.1-3-12C87.2,48.6,85.2,48.6,85.2,48.6z"/>
<path class="st12" d="M70.6,52.9v-3h17.2v3H70.6z"/>
<path class="st136" d="M70.6,45.8v4.1h17l0.1-12h-3.1c0,0,1.1,1.6,1.2,2.6s0.1,2.7-0.1,3.2c0,0-0.5,1.5-2.1,2.3s-4,0.9-3.9,0.9
	C79.6,46.8,71.9,46.1,70.6,45.8z"/>
</svg>
