<?xml version="1.0" encoding="utf-8"?>
<!-- Generator: Adobe Illustrator 22.0.0, SVG Export Plug-In . SVG Version: 6.00 Build 0)  -->
<svg version="1.1" id="Layer_1" xmlns:v="https://vecta.io/nano"
	 xmlns="http://www.w3.org/2000/svg" xmlns:xlink="http://www.w3.org/1999/xlink" x="0px" y="0px" viewBox="0 0 100 100"
	 style="enable-background:new 0 0 100 100;" xml:space="preserve">
<style type="text/css">
	.st0{fill:#4C3229;stroke:#E5A82C;stroke-width:1.974;}
	.st1{fill:#FCC23A;}
	.st2{fill:#FDC73C;}
	.st3{fill:#F8AB1C;}
	.st4{fill:#E04F30;}
	.st5{fill:#8AC164;}
	.st6{fill:#30B5AE;}
	.st7{opacity:0.24;}
	.st8{fill:#141212;}
	.st9{fill:#F8AC1F;}
	.st10{fill:url(#SVGID_1_);}
	.st11{fill:#CB8D0B;}
	.st12{fill:url(#SVGID_2_);}
	.st13{fill:#C48E23;stroke:#C17F1E;stroke-width:0.492;}
	.st14{fill:url(#SVGID_3_);}
	.st15{fill:#BC7C13;}
	.st16{fill:url(#SVGID_4_);stroke:#CC8628;stroke-width:0.235;}
	.st17{fill:#C48E23;stroke:#C17F1E;stroke-width:0.773;stroke-miterlimit:10;}
	.st18{fill:#C48E23;stroke:#C17F1E;stroke-width:0.609;stroke-miterlimit:10;}
	.st19{fill:#C48E23;stroke:#C17F1E;stroke-width:0.485;}
	.st20{fill:none;stroke:#C17F1E;stroke-width:0.403;stroke-miterlimit:10;}
	.st21{fill:#BF8210;}
	.st22{fill:none;stroke:#C17F1E;stroke-width:0.393;stroke-miterlimit:10;}
	.st23{fill:#DA9104;stroke:#C48D12;stroke-width:0.728;stroke-miterlimit:10;}
	.st24{fill:#DA9104;stroke:#C48D12;stroke-width:0.738;stroke-miterlimit:10;}
	.st25{opacity:0.68;fill:#FAB642;stroke:#895A13;stroke-width:0.492;stroke-miterlimit:10;enable-background:new    ;}
	.st26{opacity:0.68;fill:#FAB642;stroke:#895A13;stroke-width:0.454;stroke-miterlimit:10;enable-background:new    ;}
	.st27{fill:#BC8110;}
	.st28{fill:#D4AC30;stroke:#BC8110;stroke-width:0.941;stroke-miterlimit:10;}
	.st29{fill:url(#SVGID_5_);}
	.st30{fill:#9E6415;}
	.st31{fill:url(#SVGID_6_);stroke:#BC8110;stroke-width:0.941;}
	.st32{fill:none;stroke:#BC8110;stroke-width:0.941;}
	.st33{fill:url(#SVGID_7_);}
	.st34{fill:#A77213;}
	.st35{fill:#B08111;}
	.st36{opacity:0.3;fill:#C98F1A;enable-background:new    ;}
	.st37{opacity:0.1;fill:#C98F1A;enable-background:new    ;}
	.st38{fill:#E83E45;}
	.st39{fill:#F4B119;}
	.st40{fill:#277F34;}
	.st41{fill:#7ACDF4;}
	.st42{fill:none;stroke:#FFFFFF;stroke-width:1.641;stroke-miterlimit:10;}
	.st43{fill:none;stroke:#FCFCFC;stroke-width:1.641;stroke-miterlimit:10;}
	.st44{fill:#E83D44;}
	.st45{fill:#FCFCFC;}
	.st46{fill:#F4B219;}
	.st47{fill:#D79F18;}
	.st48{fill:#F0D69D;}
	.st49{fill:#DB1920;}
	.st50{fill:#E83F45;}
	.st51{fill:#79CDF2;}
	.st52{fill:none;stroke:#4A4948;stroke-width:2;stroke-miterlimit:10;}
	.st53{fill:none;stroke:#FFFFFF;stroke-width:2;stroke-miterlimit:10;}
	.st54{fill:none;stroke:#F9F9F9;stroke-width:2.04;stroke-miterlimit:10;}
	.st55{fill:#5FB130;}
	.st56{fill:url(#SVGID_8_);}
	.st57{fill:url(#SVGID_9_);}
	.st58{fill:url(#SVGID_10_);}
	.st59{fill:#1072B9;}
	.st60{fill:#EB5D1D;}
	.st61{fill:#FFD700;}
	.st62{fill:#E51334;}
	.st63{opacity:0.15;fill:url(#SVGID_11_);enable-background:new    ;}
	.st64{opacity:0.5;fill:url(#SVGID_12_);enable-background:new    ;}
	.st65{fill:url(#SVGID_13_);}
	.st66{opacity:3.000000e-02;fill:none;stroke:#FFFFFF;stroke-width:2;stroke-miterlimit:10;enable-background:new    ;}
	.st67{fill:url(#SVGID_14_);}
	.st68{fill:url(#SVGID_15_);}
	.st69{fill:#C48E23;stroke:#C17F1E;stroke-width:1.588;}
	.st70{fill:url(#SVGID_16_);}
	.st71{fill:url(#SVGID_17_);stroke:#CC8628;stroke-width:0.759;}
	.st72{fill:#C48E23;stroke:#C17F1E;stroke-width:2.495;stroke-miterlimit:10;}
	.st73{fill:#C48E23;stroke:#C17F1E;stroke-width:1.965;stroke-miterlimit:10;}
	.st74{fill:#C48E23;stroke:#C17F1E;stroke-width:1.566;}
	.st75{fill:none;stroke:#C17F1E;stroke-width:1.301;stroke-miterlimit:10;}
	.st76{fill:none;stroke:#C17F1E;stroke-width:1.268;stroke-miterlimit:10;}
	.st77{fill:#DA9104;stroke:#C48D12;stroke-width:2.349;stroke-miterlimit:10;}
	.st78{fill:#DA9104;stroke:#C48D12;stroke-width:2.382;stroke-miterlimit:10;}
	.st79{opacity:0.68;fill:#FAB642;stroke:#895A13;stroke-width:1.588;stroke-miterlimit:10;enable-background:new    ;}
	.st80{opacity:0.68;fill:#FAB642;stroke:#895A13;stroke-width:1.465;stroke-miterlimit:10;enable-background:new    ;}
	.st81{fill:#D4AC30;stroke:#BC8110;stroke-width:3.037;stroke-miterlimit:10;}
	.st82{fill:url(#SVGID_18_);}
	.st83{fill:url(#SVGID_19_);stroke:#BC8110;stroke-width:3.037;}
	.st84{fill:none;stroke:#BC8110;stroke-width:3.037;}
	.st85{fill:url(#SVGID_20_);}
	.st86{fill:none;stroke:#FFFFFF;stroke-width:4.166;stroke-miterlimit:10;}
	.st87{fill:none;stroke:#FCFCFC;stroke-width:4.166;stroke-miterlimit:10;}
	.st88{fill:none;stroke:#4A4948;stroke-width:5.077;stroke-miterlimit:10;}
	.st89{fill:none;stroke:#FFFFFF;stroke-width:5.077;stroke-miterlimit:10;}
	.st90{fill:none;stroke:#F9F9F9;stroke-width:5.18;stroke-miterlimit:10;}
</style>
<path d="M940.6,71c-0.1,0.5,0,1.1,0,1.5c0,7.5,6.1,13.5,13.5,13.5c7.5,0,12.5-5.7,13.5-13.5c0.1-0.5,0.1-0.9,0.1-1.5H940.6z
	 M1009.9,71v1.5c0,7.5,6.1,13.5,13.5,13.5c7.4,0,12.5-6.1,13.5-13.5c0.1-0.5,0.1-0.9,0.1-1.5H1009.9L1009.9,71z M983.9,48h8.3v72.3
	h-8.3V48z M955.7,48.1l-11.5,20.1c-0.4,0.7-1.3,0.8-2.1,0.3l0,0c-0.8-0.5-1.1-1.5-0.7-2.2L952,47.7L955.7,48.1L955.7,48.1z"/>
<path d="M956.4,47.7L967,66.3c0.4,0.7,0.1,1.7-0.7,2.2l0,0c-0.8,0.5-1.8,0.4-2.1-0.3L952.6,48L956.4,47.7L956.4,47.7z M1024.9,48.1
	l-11.5,20c-0.4,0.7-1.4,0.8-2.2,0.2l0,0c-0.8-0.5-1.2-1.5-0.8-2.2l10.5-18.6C1020.9,47.5,1024.9,48.1,1024.9,48.1z"/>
<path d="M1025.5,47.8l10.6,18.5c0.4,0.7,0.1,1.7-0.7,2.2l0,0c-0.8,0.5-1.7,0.4-2.1-0.3L1021.8,48L1025.5,47.8z"/>
<path d="M1025.8,48h-74c-1.7,0-3-1.3-3-3v-0.4c0-1.7,1.3-3,3-3h74c1.7,0,3,1.3,3,3V45C1028.8,46.7,1027.5,48,1025.8,48z
	 M967.1,127.9h41.9c0,0-1-7.2-7.3-8.1h-27.6C974.1,119.8,967.1,121.3,967.1,127.9L967.1,127.9z M973.7,41.5h29.8
	c0,0-4.1-4.3-6.5-4.3c0,0-0.5-7.7-8.4-7.9s-8.4,7.9-8.4,7.9S976.7,37.7,973.7,41.5L973.7,41.5z"/>
<circle class="st0" cx="953.9" cy="-224" r="48.9"/>
<g>
	<ellipse class="st1" cx="925.9" cy="-250.4" rx="5.1" ry="5.3"/>
	<circle class="st1" cx="977.7" cy="-250.5" r="4.8"/>
	<path class="st1" d="M916.1-214.4h74.1v3.3h-74.1V-214.4z M916.1-209h74.1v3.3h-74.1V-209z"/>
	<path class="st1" d="M957.9-198.7l-4-0.1h-4l2.1-3.5l2-3.4l2,3.5L957.9-198.7z"/>
</g>
<g>
	<path class="st2" d="M921-241.5l-4.5,4.5l-2-2l6.7-6.1h9.5l6.8,5.6l-2,2l-4.6-4.6c0,0-0.3,0.2-0.3,1.1v18.6c0,0-0.1,0.4-0.1,1.5
		v5.3H928v-6.5h-3.8v6.4h-2.5v-6.4c0,0-0.2-0.3-0.2-0.4s0.3-18.3,0.3-18.3S922-242.5,921-241.5L921-241.5z M973.7-223.4h3v7.4h-3
		V-223.4z M979.4-223.5h3v7.4h-3V-223.5z"/>
	<path class="st2" d="M971.9-223.2c0,0,11.2-0.8,13,0l-5.6-18.6c0,0,0-0.6,0.5,0s5.1,5,5.1,5l2-2l-6.5-6.3c0,0-1-1.3-1.1,1h-0.9
		l-0.3-2.1l-0.3,2.2H977c0,0-0.3-2-1.3-1s-6.5,5.7-6.5,5.7l1.9,1.9l5.3-4.3c0,0,0.5-0.2,0.2,1.5
		C976.2-238.6,971.9-223.2,971.9-223.2L971.9-223.2z"/>
</g>
<path class="st3" d="M942.8-19.1l1.3-2.2c0,0-6.4-4.1-6.8-4.9l-1.8,2.2C935.5-24.1,939.6-20.2,942.8-19.1z M997.2-23.8l-1.8-1.8
	c0,0-5.6,5.1-6.5,5.3l1.6,2.3C990.5-18.1,995.3-21.1,997.2-23.8z"/>
<path class="st4" d="M967.3-101.9c0,0-6.5-6.3-10.3,1s7.8,14.1,7.8,14.1s0.8,0.8,2.1,1.5l3.5-2.7c0,0,5.8-3.5,6.6-7.4
	s0.6-6.5-2.5-8.3S968.7-103.9,967.3-101.9L967.3-101.9z"/>
<path class="st3" d="M987.5-93.7c0,0-1.5-0.3-0.1-1c0,0,1.7-0.4,2.3-1.4c0,0,0.9-1.4,1.1-2c0.1-0.5,0.7-1.5,1.2,0
	c0.4,1.4,0.2,1.9,3.6,3.5c0,0,0.8,0.3-0.4,1s-3.1,1.2-3.3,3.3c0,0-0.5,1.4-1,0.1C990.8-90.3,990.1-93.1,987.5-93.7L987.5-93.7z
	 M938.6-92.8c0,0-1.5-0.3-0.1-1c0,0,1.7-0.4,2.3-1.4c0,0,0.9-1.4,1.1-2c0.1-0.5,0.7-1.5,1.2,0c0.4,1.4,0.2,1.9,3.6,3.5
	c0,0,0.8,0.3-0.4,1s-3.1,1.2-3.3,3.3c0,0-0.5,1.4-1,0.1C942-89.3,941.3-92.1,938.6-92.8L938.6-92.8z"/>
<g>
	<path class="st5" d="M944.8-71.8h44v2.8h-44V-71.8z"/>
	<path class="st5" d="M942.4-75.4h2.6v9.9h-2.6V-75.4z M988.8-75.4h2.5v9.9h-2.5V-75.4z"/>
</g>
<path class="st6" d="M948.2-68.9v17.2c0,0-0.3,2.5,2.5,2.5h7.6c0,0,1.3-0.9,1.3,2.9s-1.3,35.9-1.3,35.9s-0.5,0.7,2.3,0.5
	c0,0,2.4,0.1,2.6-0.1s1-18.7,1-18.7s2-4.4,4.6-0.3l0.9,18.5c0,0-0.2,0.3,0.6,0.6h4.3c0,0,0.4,0.1,0-1.3l-1.4-36.7
	c0,0,0.3-1.8,2.3-1.4h7.9c0,0,1.4-0.3,1.9-1.9v-17.7h-5.2v12.1c0,0,0.6,1.9-1.6,0.9s-4.7-0.9-9.3,0.4c0,0-0.1-0.5,0-0.6
	s3.3-1.8,3-5.3c-0.3-3.5-2.3-4.7-4.3-5.2s-4.7,0.1-6.3,3c-1.6,3,0.5,6.5,2.4,7.3c0,0,0.3,0.5,0,0.8c0,0-5.8-1.9-8.3-0.7
	c0,0-2.2,1.2-2.2,0.3v-13H948.2z"/>
<g class="st7">
	<path class="st8" d="M915.1-82.7L938-107"/>
	<path class="st8" d="M915.1-71.2l33.7-35.8 M915.1-59.2l44.8-47.6"/>
	<path class="st8" d="M915.1-49l54.6-58"/>
	<path class="st8" d="M915.1-37.6l65.3-69.4"/>
	<path class="st8" d="M915.1-26.7l77.3-80.3"/>
	<path class="st8" d="M915.1-16.1l88.6-90.9 M915.4-6.9l99.5-100.3 M926.5-6.6l88.6-88.3 M940.2-7l74.9-78 M951.5-7.4l63.8-66.6
		 M962.5-7l52.6-56.6 M971.7-7l43.4-46.2 M982.5-7l32.6-34.8"/>
	<path class="st8" d="M993.9-7l21.2-22.6 M939.4-7.2L915.1-30 M950.9-7.1l-35.8-33.8 M963-7.1L915.3-52"/>
	<path class="st8" d="M973.2-7.1l-58.1-54.7 M984.6-7.1l-69.5-65.4 M995.4-7.1l-80.3-77.4 M1006-7.1l-90.8-88.6 M1015.3-7.4
		L915-106.9 M1015.5-18.5l-88.2-88.7 M1015.1-32.2l-77.9-75 M1014.8-43.6l-66.6-63.7 M1015.1-54.5l-56.5-52.6 M1015.1-63.7
		L969-107.1 M1015.1-74.5l-34.7-32.6 M1015.1-85.9l-22.5-21.2"/>
</g>
<g>
	<path class="st3" d="M1005-34.3l-2.2-1.4c0,0-4.3,6.2-5.1,6.6l2.1,1.9C999.7-27.1,1003.8-31.1,1005-34.3z M1009.6-46.1l-2.5-0.7
		c0,0-2.5,7.1-3.2,7.7l2.5,1.2C1006.4-37.9,1009.2-42.8,1009.6-46.1z M1010.7-59.4l-2.6,0.1c0,0,0,7.6-0.5,8.4l2.8,0.3
		C1010.4-50.5,1011.5-56.1,1010.7-59.4z M1007.6-72.7l-2.4,1c0,0,2.4,7.2,2.2,8.1l2.7-0.6C1010.1-64.2,1009.4-69.8,1007.6-72.7z
		 M999.8-84.7l-2,1.6c0,0,4.5,6.1,4.6,7l2.4-1.4C1004.8-77.5,1002.4-82.6,999.8-84.7z M932.3-27.1l1.9-1.7c0,0-4.8-5.8-5-6.8
		l-2.4,1.5C926.9-34.1,929.7-29.1,932.3-27.1z M924.7-38.1l2.4-0.9c0,0-2.4-7.2-2.2-8.1l-2.7,0.5C922.2-46.6,923-41,924.7-38.1z
		 M921.2-51l2.6-0.3c0,0-0.5-7.5-0.1-8.4l-2.8-0.1C920.9-59.8,920.2-54.2,921.2-51z M921.7-64.2l2.5,0.6c0,0,2.1-7.3,2.8-7.9
		l-2.6-1.1C924.4-72.6,921.8-67.6,921.7-64.2z M926.1-76.5l2.2,1.3c0,0,4.1-6.4,4.9-6.8l-2.2-1.8C931.1-83.8,927.2-79.7,926.1-76.5z
		"/>
	<path class="st3" d="M934.1-80.7l-4.7-4.1c0,0-1.2-0.9,0.2-1.9l5.2-0.5c0,0,1.1,0,1.1,1.1l0.2,4.8
		C936.1-81.3,935.3-79.7,934.1-80.7z M1001.6-85.5l-5.2,3.4c0,0-1.2,0.9-1.8-0.7l1-5.1c0,0,0.3-1.1,1.3-0.7s4.7,1.2,4.7,1.2
		S1003-86.4,1001.6-85.5z"/>
</g>
<path class="st9" d="M880.3-540.2h100v100h-100V-540.2z"/>
<linearGradient id="SVGID_1_" gradientUnits="userSpaceOnUse" x1="900.837" y1="617.2169" x2="927.288" y2="617.2169" gradientTransform="matrix(1 0 0 -1 0 102)">
	<stop  offset="0" style="stop-color:#F4C123"/>
	<stop  offset="1" style="stop-color:#C79407"/>
</linearGradient>
<path class="st10" d="M901.4-514.4c0.5,0.1,3.2-0.1,6.6-0.5c0,0,4.1-0.6,8.3-2.3c0,0,6.8-1.9,10.9,1.4v2.9c0,0-5.1-2.4-7.4-2.1
	c0,0-4.4,0.3-7,1.1c-2.6,0.7-6.3,1.9-12,0.7L901.4-514.4L901.4-514.4z"/>
<path class="st11" d="M927.2-515.8c0,0-6.3-3.2-10.9-1.3c-4.5,1.9-7.7,2.5-9.7,2.8c-1.6,0.3-5.3-0.1-5.3-0.1s3.9,0.1,5.3-0.3
	c1-0.3,7.3-2.4,7.9-2.7c0,0,4.5-2.2,8.8-0.9c0,0,3,0.7,3.7,1.4S927.2-515.8,927.2-515.8z M927.3-512.9c0,0-6.3-2.5-11-1.1
	c-5.4,1.6-8.6,1.7-10.2,1.7c-1.5,0-5.4-0.9-5.4-0.9s3.7,0.6,5.6,0.5c4.8-0.5,7.7-1.4,8.1-1.6c0,0,4.6-2.1,8.9-0.8c0,0,3,0.7,3.7,1.3
	C927.6-513.2,927.3-512.9,927.3-512.9L927.3-512.9z"/>
<linearGradient id="SVGID_2_" gradientUnits="userSpaceOnUse" x1="957.6" y1="616.9067" x2="930.4" y2="616.9067" gradientTransform="matrix(1 0 0 -1 0 102)">
	<stop  offset="0" style="stop-color:#F4C123"/>
	<stop  offset="1" style="stop-color:#C79407"/>
</linearGradient>
<path class="st12" d="M957-514.1c-0.5,0.1-3.3-0.1-6.8-0.5c0,0-4.2-0.6-8.6-2.3c0,0-7-1.9-11.2,1.4v2.9c0,0,5.2-2.4,7.6-2.1
	c0,0,4.5,0.3,7.2,1.1s6.4,1.9,12.4,0.7L957-514.1L957-514.1z"/>
<path class="st11" d="M930.5-515.6c0,0,6.5-3.2,11.2-1.3c4.6,1.9,7.9,2.5,10,2.8c1.6,0.3,5.4-0.1,5.4-0.1s-4,0.1-5.5-0.3
	c-1-0.3-7.5-2.4-8.1-2.7c0,0-4.6-2.2-9-0.9c0,0-3.1,0.7-3.8,1.4S930.5-515.6,930.5-515.6L930.5-515.6z M930.4-512.7
	c0,0,6.5-2.5,11.3-1.1c5.6,1.6,8.9,1.7,10.5,1.7s5.6-0.9,5.6-0.9s-3.9,0.6-5.7,0.5c-5-0.5-7.9-1.4-8.4-1.6c0,0-4.7-2.1-9.1-0.8
	c0,0-3.1,0.7-3.8,1.3C930-513,930.4-512.7,930.4-512.7L930.4-512.7z"/>
<ellipse class="st13" cx="959.4" cy="-513.9" rx="1.8" ry="1.7"/>
<linearGradient id="SVGID_3_" gradientUnits="userSpaceOnUse" x1="927.21" y1="600.5" x2="930.46" y2="600.5" gradientTransform="matrix(1 0 0 -1 0 102)">
	<stop  offset="0.556" style="stop-color:#D38D03"/>
	<stop  offset="1" style="stop-color:#DBD032"/>
</linearGradient>
<path class="st14" d="M928.8-477.3L928.8-477.3c-0.9,0-1.6-0.7-1.6-1.6c0,0,0,0,0,0v-39.2c0-0.9,0.7-1.6,1.6-1.6c0,0,0,0,0,0l0,0
	c0.9,0,1.6,0.7,1.6,1.6c0,0,0,0,0,0v39.2C930.5-478,929.7-477.3,928.8-477.3L928.8-477.3z"/>
<path class="st15" d="M927.3-510.5c0,0,0.4,0.5,2.7,0.5c0,0,0.9-0.5,1.1-1.1c0,0-0.6-0.5-1.5,0.4c0,0-1.7-0.8-2.6-0.5
	C926.2-510.9,927.3-510.5,927.3-510.5z M927.2-517.9c0,0,0.4,0.5,2.7,0.5c0,0,0.9-0.5,1.1-1.1c0,0-0.7-0.6-1.6,0.3
	c0,0-1.5-0.7-2.4-0.5C926.1-518.3,927.2-517.9,927.2-517.9z"/>
<linearGradient id="SVGID_4_" gradientUnits="userSpaceOnUse" x1="925.974" y1="628.2" x2="931.622" y2="628.2" gradientTransform="matrix(1 0 0 -1 0 102)">
	<stop  offset="0.246" style="stop-color:#DBD032"/>
	<stop  offset="0.556" style="stop-color:#D38D03"/>
</linearGradient>
<circle class="st16" cx="928.8" cy="-526.2" r="2.8"/>
<g>
	<g>
		<path class="st17" d="M929.5-519.1h-1.4c-0.5,0-0.9-0.4-0.9-0.9v-0.4c0-0.5,0.4-0.9,0.9-0.9h1.4c0.5,0,0.9,0.4,0.9,0.9v0.4
			C930.4-519.5,930-519.1,929.5-519.1z"/>
		<path class="st18" d="M929.4-521.3h-1.1c-0.4,0-0.7-0.3-0.7-0.7c0,0,0,0,0,0v-0.3c0-0.4,0.3-0.7,0.7-0.7c0,0,0,0,0,0h1.1
			c0.4,0,0.7,0.3,0.7,0.7c0,0,0,0,0,0v0.3C930.1-521.6,929.8-521.3,929.4-521.3C929.4-521.3,929.4-521.3,929.4-521.3z"/>
	</g>
	<ellipse class="st19" cx="899.5" cy="-514.2" rx="1.8" ry="1.7"/>
</g>
<path class="st20" d="M960.8-511.1v0.8c0,0.4-0.4,0.7-0.9,0.7s-0.9-0.3-0.9-0.7v-1.9"/>
<path class="st21" d="M898.5-509.9h0.4v2h-0.4V-509.9z M959.6-509.5h0.5v2h-0.5V-509.5z"/>
<g>
	<path class="st22" d="M899.5-512.5v1.8c0,0.4-0.4,0.7-0.9,0.7s-0.9-0.3-0.9-0.7v-0.8"/>
	<g>
		<path class="st23" d="M898.2-505.1l-15.6,28.7 M899.3-505.2l15.8,28.6"/>
		<path class="st24" d="M959.1-504.9l-16,28.7 M960.3-504.9l16.3,28.6"/>
	</g>
	<g>
		<path class="st25" d="M959.9-504.4L959.9-504.4c-0.6,0-1-0.4-1-0.9v-1.3c0-0.5,0.4-0.9,0.9-0.9h0.1c0.5,0,0.9,0.4,0.9,0.9v1.3
			C960.8-504.8,960.4-504.4,959.9-504.4z"/>
		<path class="st26" d="M898.8-505.1h-0.2c-0.5,0-0.8-0.4-0.8-0.8v-1.1c0-0.5,0.4-0.8,0.8-0.8h0.2c0.5,0,0.8,0.4,0.8,0.8v1.1
			C899.6-505.5,899.2-505.1,898.8-505.1z"/>
	</g>
</g>
<ellipse class="st27" cx="928.9" cy="-473" rx="3.4" ry="0.6"/>
<path class="st28" d="M931.1-473.3h-4.4c-0.6,0-1-0.5-1-1l0,0c0-0.6,0.5-1,1-1h4.4c0.6,0,1,0.5,1,1l0,0
	C932.1-473.8,931.7-473.3,931.1-473.3z M930.6-475.4h-3.4c-0.5,0-0.9-0.4-0.9-0.9v-0.2c0-0.5,0.4-0.9,0.9-0.9h3.4
	c0.5,0,0.9,0.4,0.9,0.9v0.2C931.5-475.8,931.1-475.4,930.6-475.4z"/>
<linearGradient id="SVGID_5_" gradientUnits="userSpaceOnUse" x1="924.6949" y1="570.5" x2="932.8849" y2="570.5" gradientTransform="matrix(1 0 0 -1 0 102)">
	<stop  offset="0.218" style="stop-color:#D38D03"/>
	<stop  offset="0.382" style="stop-color:#D4960A"/>
	<stop  offset="0.487" style="stop-color:#DBD032"/>
	<stop  offset="0.962" style="stop-color:#D38D03"/>
</linearGradient>
<path class="st29" d="M931.2-463.5h-5.6c-0.7-0.1-0.9-1.6-0.9-3.7v-2.6c0-2-0.2-3.3,1.9-3.7h5.4c1.2,0.8,0.9,1.6,0.9,3.7v2.6
	C932.9-465.1,933.2-464.1,931.2-463.5L931.2-463.5z"/>
<ellipse class="st30" cx="935.8" cy="-459" rx="9.1" ry="1.2"/>
<g>
	
		<linearGradient id="SVGID_6_" gradientUnits="userSpaceOnUse" x1="916.055" y1="562.7" x2="941.822" y2="562.7" gradientTransform="matrix(1 0 0 -1 0 102)">
		<stop  offset="0" style="stop-color:#F9B233"/>
		<stop  offset="1" style="stop-color:#F39200"/>
	</linearGradient>
	<ellipse class="st31" cx="928.9" cy="-460.7" rx="12.9" ry="2.3"/>
	<ellipse class="st32" cx="928.8" cy="-462.2" rx="12.5" ry="2"/>
</g>
<linearGradient id="SVGID_7_" gradientUnits="userSpaceOnUse" x1="915.9" y1="564.5" x2="941.668" y2="564.5" gradientTransform="matrix(1 0 0 -1 0 102)">
	<stop  offset="0" style="stop-color:#F9B233"/>
	<stop  offset="1" style="stop-color:#F39200"/>
</linearGradient>
<ellipse class="st33" cx="928.8" cy="-462.5" rx="12.9" ry="2.3"/>
<path class="st34" d="M941.9-474.8c0,0,17.3,12.9,36,0H941.9z"/>
<ellipse class="st35" cx="960.1" cy="-475.3" rx="18.4" ry="3.5"/>
<ellipse class="st36" cx="960.2" cy="-475.4" rx="17.7" ry="3"/>
<path class="st34" d="M882.3-475.8c0,0,16.4,11.2,34.1,0H882.3z"/>
<ellipse class="st35" cx="899.5" cy="-476.2" rx="17.4" ry="3"/>
<ellipse class="st37" cx="899.6" cy="-476.3" rx="17" ry="2.4"/>
<path class="st38" d="M93.7,73.1h-7.8c-0.3,0-0.6-0.3-0.6-0.6v-6.1c0-0.3,0.3-0.6,0.6-0.6h7.8c0.3,0,0.6,0.3,0.6,0.6v6.1
	C94.3,72.8,94,73.1,93.7,73.1z"/>
<path class="st39" d="M80.8,58.8h-2.1c0,0-0.7,0.1-0.7-1.2V53h1.6c1.2,0,1.5-0.1,1.5-0.1"/>
<path class="st40" d="M12.5,43c0,0-2.6,5.6-0.9,7.3c0,0,0.9,0.5,1.4-0.7c0,0-0.4-4.1,1.6-5.6C14.6,44,13.5,43,12.5,43z"/>
<path class="st41" d="M96.1,65.8H82.6c-1,0-1.8-0.8-1.8-1.8V47.3c0-1,0.8-1.8,1.8-1.8h13.5c1,0,1.8,0.8,1.8,1.8V64
	C97.8,65,97,65.8,96.1,65.8z"/>
<g>
	<path class="st42" d="M6.2,44.8c0,0,2.9-23.3,24.8-32.3"/>
	<path class="st43" d="M87.9,33.1c0,0-8.5-17.1-21.8-20.5"/>
</g>
<path class="st38" d="M48.6,6.3c0,0-6.5-8.9-11.8-1.7s3.8,11.7,11.4,21c0,0,9.9-8.3,11.4-10.9c1.5-2.7,4.1-6.3-0.3-11.9
	C55.2-2.5,48.6,6.3,48.6,6.3z"/>
<path class="st44" d="M89.3,53.1c0,0-2.4-3.3-4.4-0.6s1.5,4.2,4.2,7.8c0,0,3.7-3.1,4.2-4.1c0.6-1,1.8-2.4-0.1-4.4
	C91.4,49.8,89.3,53.1,89.3,53.1z"/>
<g>
	<path class="st45" d="M46,11.7l2.2,9v0.2l1.1-2.2v-0.1l-2-8c-0.1-0.2-0.2-0.4-0.4-0.5C46.9,10.1,46,11.7,46,11.7z"/>
	<path class="st45" d="M49.3,18.7L49.3,18.7l0.1-0.1l3-4.9h1.9l-0.9,1.4l-3.8,6.2c-0.2,0.3-0.6,0.3-1,0.1c-0.2-0.1-0.4-0.3-0.5-0.4
		v-0.2C48.1,20.8,49.3,18.7,49.3,18.7z M42.1,14.7l2.9-4.6c0.2-0.2,1.6-0.3,2-0.1l0,0l-1,1.7l-2.7,4.2c-0.1,0.1-0.2,0.2-0.3,0.2
		h-0.1C42.9,16.1,42.1,14.7,42.1,14.7z"/>
	<path class="st45" d="M42.1,14.7h-9.7v1.4h10.5L42.1,14.7z M63,15.3l-10.7-0.2l0.1-1.4L63,13.9V15.3z"/>
</g>
<path class="st38" d="M92.9,45.6h-7.1c-0.5,0-1-0.4-1-1v-5.3c0-0.5,0.4-1,1-1h7.1c0.5,0,1,0.4,1,1v5.3
	C93.8,45.1,93.4,45.6,92.9,45.6z"/>
<g>
	<path class="st46" d="M33,45.4c0.3-7.2,6.2-13,13.5-13s13.2,5.8,13.5,13"/>
	<path class="st46" d="M61,47.5H32.1v-2.1H61V47.5z"/>
</g>
<path class="st47" d="M37.7,42.2h2.2v3.3h-2.2V42.2z M45,42.2h2.2v3.3H45V42.2z M51.6,42.2h2.2v3.3h-2.2V42.2z"/>
<path class="st48" d="M47.7,69.8H46c-6.2-0.6-10.8-5.1-11.3-11.3l0,0c-0.7-6.2-0.6-7.9-0.6-11.3h25v11.3
	C58.5,65.3,54,69.5,47.7,69.8z"/>
<path class="st44" d="M59.6,75.9h5.8v19h-5.8L59.6,75.9z"/>
<path class="st49" d="M65.4,79.6H69v11.7h-3.6V79.6z"/>
<path class="st50" d="M69,83.3h4v4.1h-4V83.3z"/>
<path class="st44" d="M34.5,95.8h-5.6V76.7h5.6V95.8z"/>
<path class="st49" d="M28.9,92.1h-3.5V80.4h3.5V92.1z"/>
<path class="st50" d="M25.3,88.4h-3.9v-4.1h3.9V88.4z"/>
<path class="st51" d="M34.5,84.5h24.9v4.4H34.5V84.5z"/>
<g>
	<path class="st52" d="M41.9,59.1c0.1,2.9,2.4,5.2,5.2,5.2c2.9,0,5.2-2.3,5.2-5.2 M44.5,53.8c0-1.1-1-1.9-2-1.9
		c-1.1,0-1.9,0.9-1.9,2 M54.8,53.8c0-1.1-1-1.9-2-1.9c-1.1,0-1.9,0.9-1.9,2"/>
	<path class="st53" d="M77.6,83.3c0,0,3.7-3.5,5.2-5.9"/>
	<path class="st54" d="M17.2,84.1c0,0-8.7-10.2-8.7-14.7"/>
</g>
<path class="st46" d="M59,57.1c0,0-2,9.3,6.3,12v-23c0,0-1.9-4.3-6.9-5"/>
<g>
	<path class="st55" d="M9.9,64.1c0,0-10.1-4.4-7.2-11.4s9-3.5,9-3.5s0.3,0.3,0.9,0c0,0,6.1-3.4,9,3.5s-7,11.2-7,11.2"/>
	<path class="st55" d="M9.2,63.6c0,0,2.2-2,5.2-0.6l0.9,0.4"/>
	<path class="st55" d="M15.8,62.6c0,0-2.5,2.6-6,0.9L8.7,63"/>
	<path class="st55" d="M9.7,64l-1-0.5c-0.3-0.2-0.4-0.5-0.3-0.8l0.1-0.1c0.2-0.3,0.5-0.4,0.8-0.3l1,0.5c0.3,0.2,0.4,0.5,0.3,0.8
		l-0.1,0.1C10.4,64.1,10,64.2,9.7,64z M15.9,63.2l-1.1,0.6c-0.3,0.2-0.6,0.1-0.8-0.2l0,0c-0.2-0.3-0.1-0.6,0.2-0.8l1.1-0.6
		c0.3-0.2,0.6-0.1,0.8,0.2l0,0C16.2,62.6,16.1,63,15.9,63.2z"/>
</g>
<image style="overflow:visible;enable-background:new    ;" width="745" height="283" xlink:href="F1434549.jpeg"  transform="matrix(1.2617 0 0 1.198 -871.5886 -568.64)">
</image>
<linearGradient id="SVGID_8_" gradientUnits="userSpaceOnUse" x1="-872.157" y1="618.5" x2="-750.9569" y2="618.5" gradientTransform="matrix(1 0 0 -1 0 102)">
	<stop  offset="0.218" style="stop-color:#D38D03"/>
	<stop  offset="0.382" style="stop-color:#D4960A"/>
	<stop  offset="0.487" style="stop-color:#DBD032"/>
	<stop  offset="0.962" style="stop-color:#D38D03"/>
</linearGradient>
<path class="st56" d="M-872.2-543.9h76.4l12.9,0.8c6.5,0.8,11.7,2.6,15.7,5.3s6,5.9,6,9.5c0,7-7.9,11.4-23.8,13.2
	c5.4,1.3,9.5,3.3,12.4,5.8s5.6,6.6,8.2,12.2l13.3,8H-790c-3.3-8-6.3-13.8-9-17.5c-1.7-2.4-5.5-3.5-11.5-3.5h-13.3v8.3l20.1,12.7
	h-68.6l20.1-12.7v-29.3L-872.2-543.9z M-823.7-521h18l5.6-0.1c6.1,0,9.1-2,9.1-6c0-2.6-1-4.3-3-5.2s-5.9-1.3-11.6-1.3h-18
	L-823.7-521L-823.7-521z"/>
<linearGradient id="SVGID_9_" gradientUnits="userSpaceOnUse" x1="-756" y1="618.5" x2="-634.7999" y2="618.5" gradientTransform="matrix(1 0 0 -1 0 102)">
	<stop  offset="0.218" style="stop-color:#D38D03"/>
	<stop  offset="0.382" style="stop-color:#D4960A"/>
	<stop  offset="0.487" style="stop-color:#DBD032"/>
	<stop  offset="0.962" style="stop-color:#D38D03"/>
</linearGradient>
<path class="st57" d="M-665.3-543.9l-13.1,10l22.9,32l20.7,12.8h-69.1l19-11.2l-2.5-3.8H-719l-2.4,3.8l16.5,11.2H-756l16.1-12.8
	l22.6-32l-12.9-10H-665.3L-665.3-543.9z M-703.8-528l-9.7,14.9h20L-703.8-528z"/>
<linearGradient id="SVGID_10_" gradientUnits="userSpaceOnUse" x1="-634.789" y1="618.7" x2="-544.7" y2="618.7" gradientTransform="matrix(1 0 0 -1 0 102)">
	<stop  offset="0.218" style="stop-color:#D38D03"/>
	<stop  offset="0.382" style="stop-color:#D4960A"/>
	<stop  offset="0.487" style="stop-color:#DBD032"/>
	<stop  offset="0.962" style="stop-color:#D38D03"/>
</linearGradient>
<path class="st58" d="M-631.9-487v-27.5c4.9,5.6,11.6,10,20.2,13.2s18.1,4.7,28.4,4.7c10.9,0,16.3-1.5,16.3-4.4
	c0-1.4-0.7-2.3-2.2-2.8s-5-0.9-10.5-1.3l-12-0.9c-13.9-1-23.8-2.7-29.5-5c-9.2-3.7-13.7-8.9-13.7-15.6c0-6.3,3.1-11.3,9.2-14.9
	s14.6-5.4,25.4-5.4c10.4,0,19.7,1.4,28,4.3l2.3,0.8l15.4-4.7v23.2c-14.4-9.4-29.7-14.1-45.9-14.1c-9.8,0-14.7,1.5-14.7,4.4
	c0,1.4,1.2,2.4,3.6,3.1s6.9,1.3,13.5,1.8l11.6,0.9c14.6,1.2,24.4,2.9,29.4,5.3c8.3,4,12.5,9.3,12.5,15.9c0,5.9-3.3,10.7-9.9,14.2
	s-15.4,5.3-26.5,5.3c-11.9,0-24.1-2-36.5-5.9L-631.9-487L-631.9-487z"/>
<path class="st59" d="M-330.8-552.4h43.3c4.9,0,8.8,0.4,11.6,1.2s5.6,2.3,8.3,4.5c5.2,4.2,7.8,8.9,7.8,14c0,5.5-2.7,9.9-8,13.3
	c-5.4,3.4-12.3,5.1-20.8,5.1h-42.1l12.1-8.8v-20.4L-330.8-552.4L-330.8-552.4z M-301.8-521.8h8.1c5.7,0,9.5-0.7,11.4-2.2
	c1.9-1.4,2.8-4.3,2.8-8.7c0-8.6-4.7-13-14-13h-8.3V-521.8z"/>
<path class="st60" d="M-193.2-552.4v16.5l-12.4-10.2h-23.2v8.3h12.8l9.1-4.5v17.2l-9.1-5.2h-12.8v8.4h23.2l13.3-10.9v18.5h-65.6
	l12.1-8.8v-20.4l-12.1-8.8L-193.2-552.4L-193.2-552.4z"/>
<path class="st59" d="M-184.1-512.8v-19.1c2.9,3.9,7,7,12.1,9.2c5.2,2.2,10.8,3.3,17.1,3.3c6.5,0,9.8-1,9.8-3c0-0.9-0.4-1.6-1.3-1.9
	s-3-0.6-6.3-0.9l-7.2-0.6c-8.4-0.7-14.3-1.9-17.7-3.5c-5.5-2.5-8.3-6.2-8.3-10.8c0-4.4,1.8-7.8,5.5-10.3s8.8-3.7,15.3-3.7
	c6.2,0,11.8,1,16.8,3l1.4,0.6l9.2-3.3v16.1c-8.6-6.5-17.8-9.8-27.6-9.8c-5.9,0-8.8,1-8.8,3c0,0.9,0.7,1.7,2.1,2.1
	c1.4,0.5,4.1,0.9,8.1,1.3l7,0.6c8.8,0.8,14.7,2,17.6,3.7c5,2.8,7.5,6.4,7.5,11.1c0,4.1-2,7.4-5.9,9.9c-3.9,2.4-9.3,3.7-15.9,3.7
	c-7.1,0-14.5-1.4-22-4.1L-184.1-512.8L-184.1-512.8z"/>
<path class="st61" d="M-127.9-552.4h40.6l-12.1,8.9v20.3l12.1,8.9h-40.6l12.1-8.9v-20.3L-127.9-552.4z"/>
<path class="st60" d="M-25.4-552.4v16.8c-8-7.4-16.6-11-25.9-11c-4.1,0-7.4,1.2-9.7,3.7s-3.5,5.9-3.5,10.4c0,8.7,4.6,13.1,13.7,13.1
	c4.2,0,7.6-1,10.2-3v-2.1l-13.4-9h41.4l-12,9v12.2l-7.3-4c-6.8,2.7-13.9,4-21.2,4c-8.8,0-16.1-1.9-22.1-5.7
	c-5.9-3.8-8.9-8.5-8.9-14.1c0-5.9,3.2-10.9,9.7-15.1s14.2-6.3,23.2-6.3c7.7,0,14.3,1.7,19.8,5L-25.4-552.4L-25.4-552.4z"/>
<path class="st62" d="M16-552.4l20.5,20.6v-11.7l-12.1-8.9h33.8l-12.1,8.9v29.2H29L8.3-535.9v12.8l12.1,8.9h-33.8l12.1-8.9v-20.3
	l-12.1-8.9L16-552.4L16-552.4z"/>
<radialGradient id="SVGID_11_" cx="-102.5" cy="474.8" r="114.8" gradientTransform="matrix(1 0 0 -1 0 102)" gradientUnits="userSpaceOnUse">
	<stop  offset="0" style="stop-color:#000000"/>
	<stop  offset="0.73" style="stop-color:#984023"/>
	<stop  offset="1" style="stop-color:#000000"/>
</radialGradient>
<circle class="st63" cx="-102.5" cy="-372.8" r="114.8"/>
<radialGradient id="SVGID_12_" cx="-102.5" cy="474.8" r="57.4" gradientTransform="matrix(1 0 0 -1 0 102)" gradientUnits="userSpaceOnUse">
	<stop  offset="0.15" style="stop-color:#FFFFFF"/>
	<stop  offset="0.213" style="stop-color:#E0CBC9"/>
	<stop  offset="0.293" style="stop-color:#C09593"/>
	<stop  offset="0.362" style="stop-color:#AA706F"/>
	<stop  offset="0.417" style="stop-color:#9E5B5C"/>
	<stop  offset="0.45" style="stop-color:#995356"/>
	<stop  offset="0.544" style="stop-color:#7E342F"/>
	<stop  offset="0.647" style="stop-color:#5C1A0C"/>
	<stop  offset="0.736" style="stop-color:#3F0800"/>
	<stop  offset="0.807" style="stop-color:#1F0200"/>
	<stop  offset="0.85" style="stop-color:#000000"/>
	<stop  offset="0.856" style="stop-color:#120100"/>
	<stop  offset="0.862" style="stop-color:#2F0200"/>
	<stop  offset="0.869" style="stop-color:#430700"/>
	<stop  offset="0.875" style="stop-color:#5A1100"/>
	<stop  offset="0.882" style="stop-color:#761D04"/>
	<stop  offset="0.888" style="stop-color:#952A10"/>
	<stop  offset="0.895" style="stop-color:#B63B1D"/>
	<stop  offset="0.9" style="stop-color:#D34E29"/>
	<stop  offset="0.906" style="stop-color:#BE4020"/>
	<stop  offset="0.916" style="stop-color:#A02F14"/>
	<stop  offset="0.926" style="stop-color:#822209"/>
	<stop  offset="0.937" style="stop-color:#681700"/>
	<stop  offset="0.948" style="stop-color:#510D00"/>
	<stop  offset="0.959" style="stop-color:#3D0500"/>
	<stop  offset="0.971" style="stop-color:#290200"/>
	<stop  offset="0.984" style="stop-color:#0E0100"/>
	<stop  offset="1" style="stop-color:#000000"/>
</radialGradient>
<circle class="st64" cx="-102.5" cy="-372.8" r="57.4"/>
<radialGradient id="SVGID_13_" cx="-102.5" cy="474.8" r="47.8" gradientTransform="matrix(1 0 0 -1 0 102)" gradientUnits="userSpaceOnUse">
	<stop  offset="0.15" style="stop-color:#FFFFFF"/>
	<stop  offset="0.282" style="stop-color:#A9A09D"/>
	<stop  offset="0.425" style="stop-color:#655A55"/>
	<stop  offset="0.564" style="stop-color:#382F2A"/>
	<stop  offset="0.694" style="stop-color:#1C150E"/>
	<stop  offset="0.813" style="stop-color:#090500"/>
	<stop  offset="0.919" style="stop-color:#010100"/>
	<stop  offset="1" style="stop-color:#000000"/>
</radialGradient>
<circle class="st65" cx="-102.5" cy="-372.8" r="47.8"/>
<path class="st66" d="M-102.5-372.8l-185.1,175L-102.5-372.8l-175-185.1L-102.5-372.8L72.4-187.7L-102.5-372.8l-95.2,84.1
	L-102.5-372.8l-84.1-95.1L-102.5-372.8l-203.9,84.9L-102.5-372.8l203.8-84.8L-102.5-372.8l-84.9-203.8L-102.5-372.8l-219-8
	L-102.5-372.8l8-218.9L-102.5-372.8L-160.6-267L-102.5-372.8l-105.8-58L-102.5-372.8L3.3-314.7L-102.5-372.8l-99.6,136.3
	L-102.5-372.8l-136.3-99.6L-102.5-372.8l-51.9,168.1L-102.5-372.8l-168.1-51.9L-102.5-372.8l-58-9L-102.5-372.8l9-58L-102.5-372.8
	l-24.4,7.2L-102.5-372.8l-7.2-24.3L-102.5-372.8l-263-16.6L-102.5-372.8l16.6-263L-102.5-372.8l-268.3-31.1L-102.5-372.8l268.3,31.2
	L-102.5-372.8l31.1-268.3L-102.5-372.8l-109.2-17.8L-102.5-372.8L-84.7-482L-102.5-372.8l-25.6,14.8L-102.5-372.8l25.5-14.8
	L-102.5-372.8l-14.8-25.5L-102.5-372.8l14.8,25.6L-102.5-372.8l-75.1-12.3L-102.5-372.8l75.1,12.4L-102.5-372.8l12.3-75.1
	L-102.5-372.8l-12.4,75.1L-102.5-372.8l-38.6,49.6L-102.5-372.8l-49.6-38.6l99.2,77.2"/>
<linearGradient id="SVGID_14_" gradientUnits="userSpaceOnUse" x1="-193.2" y1="542.5518" x2="-107.9" y2="542.5518" gradientTransform="matrix(1 0 0 -1 0 102)">
	<stop  offset="0" style="stop-color:#F4C123"/>
	<stop  offset="1" style="stop-color:#C79407"/>
</linearGradient>
<path class="st67" d="M-191.4-437.6c1.7,0.4,10.3-0.2,21.4-1.6c0,0,13.3-1.9,26.8-7.5c0,0,21.9-6.3,35.3,4.5v9.2
	c0,0-16.3-7.9-23.9-6.9c0,0-14.1,1-22.5,3.4s-20.2,6-38.9,2.4L-191.4-437.6L-191.4-437.6z"/>
<path class="st11" d="M-108.2-442.3c0,0-20.4-10.4-35.1-4.2c-14.5,6.1-24.7,7.9-31.4,9.1c-5.1,0.9-17-0.2-17-0.2s12.6,0.2,17.2-1.1
	c3.2-0.9,23.7-7.7,25.4-8.6c0,0,14.5-7.2,28.4-2.8c0,0,9.8,2.4,11.8,4.4S-108.2-442.3-108.2-442.3L-108.2-442.3z M-107.8-433
	c0,0-20.3-8.2-35.4-3.7c-17.6,5.2-27.8,5.5-32.8,5.5s-17.5-2.8-17.5-2.8s12.1,2.1,18,1.5c15.5-1.5,24.9-4.7,26.3-5.3
	c0,0,14.8-6.8,28.7-2.5c0,0,9.8,2.3,11.8,4.3S-107.8-433-107.8-433z"/>
<linearGradient id="SVGID_15_" gradientUnits="userSpaceOnUse" x1="-10" y1="541.7518" x2="-97.8" y2="541.7518" gradientTransform="matrix(1 0 0 -1 0 102)">
	<stop  offset="0" style="stop-color:#F4C123"/>
	<stop  offset="1" style="stop-color:#C79407"/>
</linearGradient>
<path class="st68" d="M-11.9-436.8c-1.7,0.4-10.6-0.2-22-1.6c0,0-13.7-1.9-27.6-7.5c0,0-22.5-6.3-36.3,4.5v9.2
	c0,0,16.8-7.9,24.6-6.9c0,0,14.5,1,23.2,3.4s20.8,6,40,2.4C-10-433.3-11.9-436.8-11.9-436.8z"/>
<path class="st11" d="M-97.4-441.5c0,0,21-10.4,36.1-4.2c14.9,6.1,25.4,7.9,32.3,9.1c5.2,0.9,17.4-0.2,17.4-0.2s-13,0.2-17.7-1.1
	c-3.3-0.9-24.3-7.7-26.2-8.6c0,0-14.9-7.2-29.2-2.8c0,0-10,2.4-12.2,4.4C-99-442.9-97.4-441.5-97.4-441.5L-97.4-441.5z M-97.8-432.1
	c0,0,20.9-8.2,36.4-3.7c18.1,5.2,28.6,5.5,33.8,5.5s18-2.8,18-2.8s-12.4,2.1-18.5,1.5c-16-1.5-25.6-4.7-27-5.3
	c0,0-15.2-6.8-29.5-2.5c0,0-10,2.3-12.2,4.3C-99-433.2-97.8-432.1-97.8-432.1z"/>
<ellipse class="st69" cx="-4.1" cy="-436.2" rx="5.9" ry="5.4"/>
<linearGradient id="SVGID_16_" gradientUnits="userSpaceOnUse" x1="-108.1" y1="488.5" x2="-97.614" y2="488.5" gradientTransform="matrix(1 0 0 -1 0 102)">
	<stop  offset="0.556" style="stop-color:#D38D03"/>
	<stop  offset="1" style="stop-color:#DBD032"/>
</linearGradient>
<path class="st70" d="M-102.9-318L-102.9-318c-2.9,0-5.2-2.4-5.2-5.2v-126.6c0-2.9,2.4-5.2,5.2-5.2l0,0c2.9,0,5.2,2.4,5.2,5.2v126.6
	C-97.6-320.3-100-318-102.9-318z"/>
<path class="st15" d="M-107.8-425c0,0,1.4,1.7,8.6,1.7c0,0,2.8-1.7,3.7-3.4c0,0-1.8-1.7-4.8,1.3c0,0-5.4-2.6-8.3-1.7
	C-111.4-426.4-107.8-425-107.8-425z M-108.1-449.1c0,0,1.4,1.7,8.6,1.7c0,0,2.8-1.7,3.7-3.4c0,0-2.4-1.9-5.3,1c0,0-4.9-2.4-7.8-1.5
	S-108.1-449.1-108.1-449.1L-108.1-449.1z"/>
<linearGradient id="SVGID_17_" gradientUnits="userSpaceOnUse" x1="-112.1" y1="577.8" x2="-93.877" y2="577.8" gradientTransform="matrix(1 0 0 -1 0 102)">
	<stop  offset="0.246" style="stop-color:#DBD032"/>
	<stop  offset="0.556" style="stop-color:#D38D03"/>
</linearGradient>
<circle class="st71" cx="-103" cy="-475.8" r="9.1"/>
<g>
	<g>
		<path class="st72" d="M-100.8-452.9h-4.4c-1.6,0-2.9-1.3-2.9-2.9v-1.3c0-1.6,1.3-2.9,2.9-2.9h4.4c1.6,0,2.9,1.3,2.9,2.9v1.3
			C-97.8-454.2-99.2-452.9-100.8-452.9z"/>
		<path class="st73" d="M-101.1-460h-3.5c-1.3,0-2.3-1-2.3-2.3v-1c0-1.3,1-2.3,2.3-2.3h3.5c1.3,0,2.3,1,2.3,2.3v1
			C-98.8-461-99.8-460-101.1-460z"/>
	</g>
	<ellipse class="st74" cx="-197.6" cy="-437.1" rx="5.8" ry="5.4"/>
</g>
<path class="st75" d="M0.3-427.2v2.5c-0.1,1.4-1.4,2.4-3.1,2.4s-3.1-1.1-3.1-2.4v-6.1"/>
<path class="st21" d="M-200.9-423.3h1.4v6.4h-1.4V-423.3z M-3.5-422H-2v6.4h-1.5V-422z"/>
<g>
	<path class="st76" d="M-197.5-431.6v5.9c0,1.3-1.3,2.4-3,2.4s-2.9-1-3-2.4v-2.5"/>
	<g>
		<path class="st77" d="M-201.8-407.8l-50.1,92.7 M-198.1-407.9l50.9,92.2"/>
		<path class="st78" d="M-5.3-407.2l-51.4,92.7 M-1.2-407l52.4,92.2"/>
	</g>
	<g>
		<path class="st79" d="M-2.6-405.4h-0.3c-1.6,0-2.9-1.3-2.9-2.9v-4.2c0-1.6,1.3-2.9,2.9-2.9h0.3c1.6,0,2.9,1.3,2.9,2.9v4.2
			C0.3-406.7-1-405.4-2.6-405.4z"/>
		<path class="st80" d="M-199.8-407.8h-0.6c-1.5,0-2.7-1.2-2.7-2.7c0,0,0,0,0,0v-3.4c0-1.5,1.2-2.7,2.7-2.7c0,0,0,0,0,0h0.6
			c1.5,0,2.7,1.2,2.7,2.7c0,0,0,0,0,0v3.4C-197.1-409-198.3-407.8-199.8-407.8C-199.8-407.8-199.8-407.8-199.8-407.8z"/>
	</g>
</g>
<ellipse class="st27" cx="-102.6" cy="-304.3" rx="11.1" ry="2"/>
<path class="st81" d="M-95.4-305.3h-14.3c-1.8,0-3.2-1.5-3.2-3.2l0,0c0-1.8,1.5-3.2,3.2-3.2h14.3c1.8,0,3.2,1.5,3.2,3.2l0,0
	C-92.2-306.8-93.6-305.3-95.4-305.3z M-97.2-311.8H-108c-1.6,0-2.9-1.3-2.9-2.9v-0.7c0-1.6,1.3-2.9,2.9-2.9h10.8
	c1.6,0,2.9,1.3,2.9,2.9v0.7C-94.3-313.1-95.6-311.8-97.2-311.8z"/>
<linearGradient id="SVGID_18_" gradientUnits="userSpaceOnUse" x1="-116.2089" y1="391.3" x2="-89.7889" y2="391.3" gradientTransform="matrix(1 0 0 -1 0 102)">
	<stop  offset="0.218" style="stop-color:#D38D03"/>
	<stop  offset="0.382" style="stop-color:#D4960A"/>
	<stop  offset="0.487" style="stop-color:#DBD032"/>
	<stop  offset="0.962" style="stop-color:#D38D03"/>
</linearGradient>
<path class="st82" d="M-95.2-273.4h-18.2c-2.3-0.4-2.8-5.3-2.8-11.8v-8.2c0-6.5-0.5-10.5,6-11.8h17.3c4,2.5,3,5.3,3,11.8v8.2
	C-89.9-278.7-88.7-275.4-95.2-273.4z"/>
<ellipse class="st30" cx="-80.3" cy="-258.9" rx="29.3" ry="3.8"/>
<g>
	
		<linearGradient id="SVGID_19_" gradientUnits="userSpaceOnUse" x1="-144.1" y1="366.6" x2="-60.9" y2="366.6" gradientTransform="matrix(1 0 0 -1 0 102)">
		<stop  offset="0" style="stop-color:#F9B233"/>
		<stop  offset="1" style="stop-color:#F39200"/>
	</linearGradient>
	<ellipse class="st83" cx="-102.5" cy="-264.6" rx="41.6" ry="7.3"/>
	<ellipse class="st84" cx="-103" cy="-269.4" rx="40.2" ry="6.5"/>
</g>
<linearGradient id="SVGID_20_" gradientUnits="userSpaceOnUse" x1="-144.6" y1="372.3" x2="-61.4" y2="372.3" gradientTransform="matrix(1 0 0 -1 0 102)">
	<stop  offset="0" style="stop-color:#F9B233"/>
	<stop  offset="1" style="stop-color:#F39200"/>
</linearGradient>
<ellipse class="st85" cx="-103" cy="-270.3" rx="41.6" ry="7.3"/>
<path class="st34" d="M-60.6-310c0,0,55.9,41.7,116.1,0H-60.6z"/>
<ellipse class="st35" cx="-2" cy="-311.6" rx="59.3" ry="11.2"/>
<ellipse class="st36" cx="-1.7" cy="-311.9" rx="57.3" ry="9.6"/>
<path class="st34" d="M-253.1-313.3c0,0,53,36.3,110.1,0H-253.1z"/>
<ellipse class="st35" cx="-197.6" cy="-314.6" rx="56.2" ry="9.8"/>
<ellipse class="st37" cx="-197.1" cy="-314.9" rx="54.8" ry="7.8"/>
<path class="st38" d="M-593.5-291.5h-19.8c-0.8,0-1.5-0.7-1.5-1.5v-15.4c0-0.8,0.7-1.5,1.5-1.5h19.8c0.8,0,1.5,0.7,1.5,1.5v15.4
	C-592-292.2-592.7-291.5-593.5-291.5z"/>
<path class="st39" d="M-626.2-327.8h-5.4c0,0-1.8,0.2-1.8-3v-11.8c0,0,1.2,0,4.1-0.1l3.8-0.2"/>
<path class="st40" d="M-799.7-368c0,0-6.5,14.2-2.2,18.6c0,0,2.2,1.4,3.5-1.7c0,0-1-10.4,4.1-14.2C-794.3-365.3-797.1-368-799.7-368
	L-799.7-368z"/>
<path class="st41" d="M-587.6-309.9h-34.3c-2.5,0-4.5-2-4.5-4.5c0,0,0,0,0,0v-42.5c0-2.5,2-4.5,4.5-4.5c0,0,0,0,0,0h34.3
	c2.5,0,4.5,2,4.5,4.5c0,0,0,0,0,0v42.5C-583.1-311.9-585.1-309.9-587.6-309.9C-587.6-309.9-587.6-309.9-587.6-309.9z"/>
<g>
	<path class="st86" d="M-815.8-363.2c0,0,7.3-59,62.8-81.9"/>
	<path class="st87" d="M-608.3-393.1c0,0-21.6-43.5-55.2-52"/>
</g>
<path class="st38" d="M-708.1-461.1c0,0-16.6-22.6-30.1-4.2c-13.4,18.4,9.6,29.7,28.9,53.4c0,0,25.3-21,29.1-27.7s10.4-16-0.7-30.3
	C-691.3-483.4-708.1-461.1-708.1-461.1L-708.1-461.1z"/>
<path class="st44" d="M-604.7-342.3c0,0-6.2-8.4-11.1-1.6s3.9,10.7,10.7,19.8c0,0,9.4-7.8,10.8-10.3s4.6-6.1-0.3-11.3
	C-599.5-350.7-604.7-342.3-604.7-342.3L-604.7-342.3z"/>
<g>
	<path class="st45" d="M-714.8-447.3l5.6,23.3v0.1l2.8-5.7l0.1-0.1v-0.2l-5-20.4c-0.1-0.6-0.5-1-1.1-1.3L-714.8-447.3L-714.8-447.3z
		"/>
	<path class="st45" d="M-706.3-429.5l0.1-0.1v-0.2l7.6-12.5l4.9,0.1l-2.2,3.6l-9.6,15.6c-0.4,0.6-1.6,0.7-2.6,0.2
		c-0.6-0.3-1-0.7-1.2-1.1v-0.1c-0.1-0.1-0.1-0.3-0.1-0.4L-706.3-429.5z M-724.6-439.6l7.4-11.8c0.4-0.6,4.1-0.7,5.1-0.1l0,0
		l-2.7,4.2l-6.8,10.7c-0.1,0.3-0.5,0.4-0.9,0.5h-0.3L-724.6-439.6L-724.6-439.6z"/>
	<path class="st45" d="M-724.6-439.6h-24.7v3.5h26.9L-724.6-439.6z M-671.6-438.1l-27-0.6l0.1-3.7l27,0.6L-671.6-438.1z"/>
</g>
<path class="st38" d="M-595.7-361.3h-17.9c-1.4,0-2.5-1.1-2.5-2.5v-13.5c0-1.4,1.1-2.5,2.5-2.5h17.9c1.4,0,2.5,1.1,2.5,2.5v13.5
	C-593.3-362.4-594.4-361.3-595.7-361.3z"/>
<g>
	<path class="st46" d="M-747.6-361.7c0.7-18.3,15.8-32.9,34.3-32.9s33.5,14.6,34.3,32.9"/>
	<path class="st46" d="M-676.6-356.3h-73.3l-0.1-5.5l73.3,0.1L-676.6-356.3z"/>
</g>
<path class="st47" d="M-735.6-369.9h5.5v8.3h-5.5V-369.9z M-717.3-369.9h5.5v8.3h-5.5V-369.9z M-700.3-369.9h5.5v8.3h-5.5V-369.9z"
	/>
<path class="st48" d="M-710.2-299.9h-4.5c-15.8-1.4-27.3-12.9-28.7-28.7l0,0c-1.7-15.8-1.6-20.1-1.6-28.7h63.4v28.7
	C-683-311.4-694.5-300.5-710.2-299.9L-710.2-299.9z"/>
<path class="st44" d="M-680.1-284.4h14.7v48.3h-14.7V-284.4z"/>
<path class="st49" d="M-665.4-275h9.2v29.6h-9.2V-275z"/>
<path class="st50" d="M-656.2-265.6h10.1v10.3h-10.1V-265.6z"/>
<path class="st44" d="M-743.8-233.8h-14.3v-48.4h14.3V-233.8z"/>
<path class="st49" d="M-758.2-243.2h-9v-29.6h9V-243.2z"/>
<path class="st50" d="M-767.1-252.5h-9.9v-10.3h9.9V-252.5z"/>
<path class="st51" d="M-743.8-262.4h63.3v11.2h-63.3V-262.4z"/>
<g>
	<path class="st88" d="M-725.1-326.9c0.1,7.2,6,13.1,13.3,13.1s13.2-5.8,13.3-13.1 M-718.4-340.5c-0.1-2.7-2.4-4.9-5.2-4.8
		s-4.9,2.3-4.9,5.1 M-692.4-340.5c-0.1-2.7-2.4-4.9-5.2-4.8s-4.9,2.3-4.9,5.1"/>
	<path class="st89" d="M-634.4-265.6c0,0,9.4-9,13.2-15"/>
	<path class="st90" d="M-787.7-263.5c0,0-22.1-26-22.2-37.3"/>
</g>
<path class="st46" d="M-681.6-332.1c0,0-5.2,23.7,16.1,30.5V-360c0,0-4.8-11-17.4-12.8"/>
<g>
	<path class="st55" d="M-806.4-314.3c0,0-25.5-11.2-18.3-29c7.2-17.7,22.8-9,22.8-9s0.7,0.7,2.2,0c0,0,15.5-8.7,22.8,8.9
		c7.2,17.6-17.9,28.4-17.9,28.4"/>
	<path class="st55" d="M-808-315.6c0,0,5.6-5,13.1-1.5l2.4,1.1"/>
	<path class="st55" d="M-791.3-318c0,0-6.4,6.7-15.3,2.2l-2.8-1.4"/>
	<path class="st55" d="M-806.8-314.5l-2.5-1.3c-0.7-0.4-1-1.3-0.6-2l0.1-0.3c0.4-0.7,1.3-1,2-0.6l2.5,1.3c0.7,0.4,1,1.3,0.6,2
		l-0.1,0.3C-805.1-314.4-806.1-314.1-806.8-314.5z M-791.2-316.7l-2.7,1.6c-0.7,0.4-1.6,0.2-2.1-0.5l0,0c-0.4-0.7-0.2-1.6,0.5-2.1
		l2.7-1.6c0.7-0.4,1.6-0.2,2.1,0.5l0,0C-790.2-318-790.5-317.1-791.2-316.7z"/>
</g>
</svg>
